<svg width="757" height="712" viewBox="0 0 757 712" fill="none" xmlns="http://www.w3.org/2000/svg">
<g clip-path="url(#clip0_169_1260)">
<path d="M3.40176 35.1893L3.51906 35.072C-2.58045 38.4736 1.05579 43.9867 0.586601 48.5613C2.22878 85.9794 5.51312 123.398 6.68611 160.933C8.91477 227.089 9.97046 293.245 10.5569 359.519C11.2607 426.144 7.97639 492.77 4.69204 559.278C3.28446 588.719 1.40769 618.161 3.16716 647.721C3.98825 661.21 4.10555 674.699 3.98825 688.188C3.98825 695.461 5.98232 698.511 13.0202 698.511C32.1398 698.276 51.2594 699.566 70.379 700.857C113.545 703.672 156.71 703.085 199.876 700.505C214.656 699.684 229.553 699.449 244.332 698.041C274.243 695.226 304.154 691.121 334.183 689.361C345.443 688.658 349.549 685.256 351.191 674.113C351.543 671.767 351.543 669.421 351.66 667.075C351.777 645.961 351.777 624.847 351.777 603.734C351.777 601.974 351.895 599.863 351.074 598.573C348.728 595.288 350.487 594.115 353.068 592.473C370.076 582.151 386.732 571.125 402.919 559.512C411.482 553.295 411.834 553.295 412.655 563.735C414.649 587.429 422.625 608.543 437.405 627.076C446.789 638.806 456.055 650.653 465.439 662.383C472.829 671.532 480.688 680.447 491.128 686.077C510.365 696.517 530.54 705.079 552.24 708.95C575.7 713.056 599.394 712.352 622.853 708.833C658.395 703.554 688.423 687.954 710.123 658.395C719.507 645.609 725.841 631.533 730.651 616.519C746.134 567.489 750.591 516.816 753.993 465.908C755.635 441.393 755.635 416.643 756.221 392.128C756.925 362.099 757.746 331.954 755.4 301.925C753.993 283.627 751.647 265.328 750.591 247.03C748.714 213.365 749.066 179.583 744.022 146.036C738.04 106.741 723.143 71.5517 699.215 40.1158C677.749 12.0816 649.715 -2.22883 613.47 0.234437C589.658 1.75931 566.081 4.69177 542.504 8.09342C510.013 12.668 481.157 25.8054 456.994 48.3267C436.819 67.0944 421.335 88.9119 416.878 116.712C414.297 132.43 413.594 148.617 412.069 164.452C408.667 198.117 404.444 231.546 404.327 265.446C404.21 306.852 403.271 348.258 404.444 389.782C404.913 407.025 402.919 422.977 392.597 437.288C391.659 438.578 390.955 439.985 390.486 441.393C389.43 444.677 387.084 446.554 384.034 447.727C372.891 452.067 361.161 453.827 348.493 458.049C348.493 448.9 348.61 440.689 348.493 432.596C348.024 387.67 350.37 342.745 348.376 297.82C345.561 234.948 347.789 171.959 346.968 109.087C346.734 93.9557 347.907 79.0588 350.722 64.162C352.012 57.1241 353.889 50.0862 354.006 42.8137C354.241 29.6763 347.672 22.2865 334.652 20.9962C327.497 20.2924 320.224 19.8232 313.069 19.5886C298.055 19.2367 282.923 19.0021 267.909 18.8849C237.412 18.533 207.031 16.8908 176.417 18.1811C143.104 19.5886 109.674 22.1692 76.2439 20.8789C63.8103 20.4097 51.2594 19.4713 38.7085 20.8789C26.2749 22.2865 13.8413 23.8114 4.69204 33.899C4.22284 34.2509 3.87095 34.7201 3.40176 35.1893Z" fill="#FEFEFE"/>
<path d="M4.69322 33.8984C13.9598 23.8108 26.2761 22.2859 38.827 20.8783C51.2606 19.4707 63.8115 20.4091 76.3624 20.8783C109.792 22.2859 143.222 19.7053 176.535 18.2978C207.033 17.0075 237.53 18.6496 268.028 19.0015C283.042 19.1188 298.173 19.3534 313.187 19.7053C320.46 19.9399 327.615 20.4091 334.77 21.1129C347.79 22.4032 354.242 29.793 354.125 42.9304C354.007 50.2029 352.13 57.2407 350.84 64.2786C348.025 79.0582 346.969 94.0724 347.087 109.204C347.79 172.076 345.679 235.065 348.494 297.937C350.488 342.862 348.142 387.787 348.612 432.712C348.729 440.923 348.612 449.017 348.612 458.166C361.28 453.826 373.127 452.184 384.153 447.844C387.203 446.671 389.549 444.677 390.604 441.51C391.073 440.102 391.895 438.577 392.716 437.404C403.038 423.094 405.032 407.024 404.563 389.898C403.39 348.492 404.328 307.086 404.445 265.562C404.563 231.663 408.785 198.116 412.187 164.569C413.829 148.616 414.533 132.546 416.996 116.828C421.454 89.0286 436.937 67.2111 457.112 48.4434C481.276 25.9221 510.131 12.902 542.623 8.21011C566.2 4.80846 589.777 1.9933 613.588 0.351127C649.833 -1.99484 677.985 12.1982 699.333 40.2325C723.262 71.6684 738.159 106.741 744.024 146.27C749.068 179.935 748.598 213.599 750.592 247.264C751.648 265.562 753.994 283.861 755.402 302.159C757.748 332.188 756.927 362.333 756.223 392.362C755.636 416.994 755.636 441.627 753.994 466.142C750.592 516.932 746.135 567.722 730.652 616.753C725.96 631.767 719.508 645.843 710.125 658.629C688.424 688.188 658.396 703.788 622.855 709.067C599.395 712.586 575.701 713.289 552.241 709.184C530.541 705.313 510.366 696.75 491.129 686.311C480.689 680.681 472.83 671.766 465.44 662.617C456.057 650.887 446.79 639.04 437.406 627.31C422.627 608.777 414.65 587.546 412.656 563.969C411.835 553.529 411.483 553.529 402.921 559.746C386.733 571.359 370.077 582.385 353.069 592.707C350.488 594.349 348.729 595.522 351.075 598.806C352.013 600.097 351.779 602.208 351.779 603.968C351.779 625.081 351.779 646.195 351.661 667.309C351.661 669.655 351.544 672.001 351.192 674.346C349.55 685.49 345.444 688.891 334.184 689.595C304.155 691.355 274.362 695.46 244.333 698.275C229.554 699.683 214.657 699.918 199.877 700.739C156.712 703.202 113.546 703.788 70.3802 701.09C51.2606 699.8 32.141 698.627 13.0214 698.745C5.9835 698.862 3.87213 695.695 3.98943 688.422C4.10673 674.933 3.98943 661.444 3.16834 647.954C1.29157 618.395 3.28564 588.953 4.69322 559.512C7.97757 493.004 11.1446 426.378 10.5581 359.753C9.97163 293.245 8.91595 227.089 6.80458 160.815C5.6316 123.28 2.34725 85.9788 0.705078 48.5607C0.822376 43.8688 2.46455 39.5287 3.63753 35.0714L3.52023 35.1887C4.34132 35.1887 4.57592 34.6022 4.69322 33.8984ZM700.623 456.406C701.093 456.876 701.562 456.993 701.914 456.406C701.914 456.289 701.562 455.937 701.327 455.703C698.747 447.023 693.585 439.633 690.418 431.187C674.7 390.602 672.12 348.492 674.583 305.561C675.756 285.855 679.158 266.266 676.46 246.56C670.947 208.086 655.581 183.688 611.829 170.082C587.782 162.575 562.798 165.39 538.752 170.551C498.167 179.114 460.631 195.887 424.269 215.241C422.744 216.062 421.806 217.001 421.688 218.643C420.633 231.546 419.46 244.449 420.046 257.821C421.102 257.469 421.688 257.351 422.04 257C454.766 233.657 489.369 213.013 520.688 187.676C525.614 183.688 530.306 183.571 533.356 186.738C536.523 190.14 535.702 194.832 531.245 199.641C521.04 210.432 510.366 220.754 499.457 230.842C490.308 239.288 482.214 248.789 473.886 258.876C498.049 262.161 519.515 270.958 540.746 280.459C561.86 289.96 583.091 299.344 599.395 317.525C601.506 314.124 603.383 311.074 605.26 307.907C609.248 300.986 613.119 293.948 617.224 287.145C619.218 283.861 622.151 281.984 626.139 283.04C629.775 283.978 631.769 286.676 631.652 290.312C631.535 295.121 631.183 300.048 630.714 304.857C629.071 319.05 628.368 332.892 630.479 347.319C634.467 374.767 643.734 400.103 656.519 424.384C665.786 442.565 679.744 454.178 700.623 456.406ZM333.597 334.886C325.856 339.812 318.7 344.621 311.428 348.961C304.742 352.949 297.587 353.419 291.135 348.375C283.511 342.51 278.35 334.534 275.535 325.502C274.244 321.279 273.189 321.279 269.787 322.687C257.002 327.848 244.099 333.009 231.079 337.935C225.8 339.929 220.405 341.572 214.657 342.158C210.2 342.627 206.329 341.572 204.335 337.232C202.458 333.126 203.983 329.607 207.033 326.675C210.669 323.156 214.422 319.637 218.293 316.352C241.284 296.764 266.972 281.163 292.543 265.21C304.977 257.469 316.589 248.437 329.727 241.985C332.19 240.812 331.603 238.818 331.603 237.059C331.603 196.239 331.721 155.419 331.603 114.6C331.603 100.758 331.955 86.7999 333.949 73.076C335.357 63.5748 337.116 54.191 338.641 44.8071C339.462 39.5287 337.937 36.7136 331.721 36.0098C312.601 34.0157 293.481 34.9541 274.362 34.4849C233.542 33.4292 192.722 32.0216 151.902 34.7195C121.522 36.7136 91.0247 37.7692 60.5272 35.5406C48.7973 34.7195 37.0675 35.5406 25.6896 38.7076C17.7133 40.9363 16.1884 42.9304 16.0711 51.0239C16.0711 57.7099 15.9538 64.3959 16.7749 70.9646C21.3496 111.198 21.3496 151.666 23.2263 192.134C25.1031 232.953 24.6339 273.773 25.5723 314.593C26.9799 375.119 26.0415 435.762 23.109 496.288C22.1706 515.056 22.1706 533.823 20.6458 552.474C17.2441 594.584 18.0652 636.811 19.2382 679.038C19.3555 682.792 20.6458 683.73 24.0474 683.613C43.9881 682.909 63.8115 685.959 83.7522 686.78C99.1183 687.367 114.484 686.897 130.32 686.897C127.27 679.156 127.27 670.945 125.862 663.086C122.812 645.608 119.176 628.248 116.713 610.654C112.959 584.027 122.343 548.837 162.577 541.682C163.75 541.448 164.805 540.979 165.978 540.861C168.324 540.627 169.38 539.336 169.849 537.225C172.43 526.668 179.585 520.099 189.086 515.759C202.458 509.425 216.182 503.678 230.14 498.751C263.101 487.139 295.827 475.174 329.375 465.087C333.128 463.914 334.77 462.975 334.418 458.166C333.011 433.533 332.894 409.018 333.715 384.385C333.949 367.729 333.597 351.777 333.597 334.886ZM423.8 197.999C426.38 196.826 428.14 196.122 429.782 195.301C444.561 188.263 458.989 180.521 474.472 174.891C497.58 166.445 520.336 157.061 544.969 153.894C563.15 151.548 581.448 149.672 599.864 152.018C601.858 152.252 604.322 153.66 605.143 149.672C607.489 137.238 616.051 129.731 626.726 124.335C643.851 115.655 665.317 121.168 676.108 137.238C684.905 150.376 686.782 169.73 670.126 184.275C668.249 185.917 668.132 186.855 669.657 188.849C687.369 212.426 693.703 239.17 692.295 268.143C691.005 293.127 688.424 317.995 689.245 343.096C690.418 377.817 696.049 411.364 712.588 442.448C714.347 445.732 715.52 449.251 717.162 452.536C721.033 460.512 718.687 468.605 718.453 476.934C717.866 495.349 717.514 513.648 714.347 531.712C712.236 543.911 709.538 555.875 703.673 566.784C701.445 570.772 698.277 573.822 693.351 572.766C688.19 571.593 686.43 567.488 686.196 562.561C686.078 560.45 686.196 558.221 686.078 556.11C685.609 543.442 684.905 530.773 682.56 518.223C682.09 515.877 682.09 513.413 678.571 512.71C671.768 511.302 667.428 506.61 663.909 500.98C657.81 491.127 653.587 480.453 649.833 469.544C647.605 462.858 646.432 455.82 642.795 449.72C626.608 422.977 617.811 393.652 612.181 363.154C610.187 352.128 610.89 341.102 610.538 329.842C608.544 332.305 606.55 334.768 605.846 337.583C602.445 350.604 593.296 355.999 580.862 357.876C571.361 359.284 571.361 359.518 573.472 369.137C579.102 395.294 584.146 421.452 587.196 448.078C590.246 473.884 593.53 499.572 597.401 525.26C600.333 544.732 605.377 563.852 607.723 583.44C612.063 618.513 618.28 653.233 624.145 688.07C624.849 692.528 626.843 693.349 630.831 692.293C658.161 685.021 681.973 672.352 698.747 648.658C706.84 637.163 712.471 624.612 716.576 611.357C731.004 565.376 735.226 517.753 738.745 470.013C740.387 446.671 740.387 423.094 740.974 399.751C741.795 366.556 742.733 333.361 740.27 300.165C738.745 279.521 735.578 258.994 735.109 238.349C734.405 209.846 733.584 181.46 729.948 153.073C725.021 115.069 711.415 81.1696 688.659 50.6721C669.539 24.9837 644.32 12.5501 611.594 15.3653C588.252 17.3594 565.379 19.9399 542.623 23.4589C505.322 29.2065 474.59 46.9185 451.365 76.7122C440.573 90.5534 432.714 106.037 431.072 123.983C429.665 138.998 428.257 153.894 426.732 168.909C425.794 178.292 424.855 187.794 423.8 197.999ZM236.826 634.231C240.111 633.058 242.691 632.236 245.154 631.181C277.06 617.691 308.026 602.677 337.468 584.496C365.502 567.136 392.95 549.072 418.287 527.724C437.406 511.654 456.057 495.584 469.898 474.47C493.357 438.694 518.107 403.857 543.561 369.489C554.704 354.474 565.73 339.343 574.645 322.687C576.991 318.347 576.287 316.47 572.416 314.124C545.672 297.702 516.934 285.62 486.906 276.706C477.405 273.89 477.288 274.242 471.188 282.453C465.675 289.843 460.162 297.116 454.532 304.388C450.309 309.784 446.555 315.531 443.623 321.748C438.11 333.595 435.881 345.912 437.524 360.222C443.506 350.134 448.667 341.22 454.063 332.422C457.582 326.792 462.039 325.15 466.144 327.848C470.015 330.428 470.25 334.651 466.965 340.281C458.872 353.888 450.896 367.494 442.685 380.984C430.016 402.097 415.941 422.39 405.853 444.794C400.926 455.82 393.067 461.45 382.159 464.383C375.59 466.142 368.904 467.784 362.453 469.778C325.621 480.805 289.493 493.59 253.131 506.024C235.301 512.123 217.707 518.926 199.995 526.785C213.719 541.917 223.454 558.573 226.856 578.397C230.023 596.812 238.234 614.29 236.826 634.231ZM558.693 376.057C557.871 376.409 557.637 376.409 557.52 376.526C533.708 407.962 510.718 439.985 489.135 472.946C487.844 474.94 487.844 476.816 488.548 479.045C494.061 496.288 497.697 514.117 502.741 531.477C516.934 580.273 530.776 629.187 547.667 677.162C549.074 681.15 551.068 685.373 549.661 689.595C548.488 693.232 550.247 693.349 552.71 693.818C570.305 697.102 588.134 696.164 605.846 695.577C609.365 695.46 609.717 694.17 609.013 690.885C606.55 678.804 604.556 666.722 602.679 654.64C598.457 627.075 595.172 599.393 590.011 571.945C583.208 535.465 577.46 498.868 573.238 462.037C569.836 433.416 565.613 404.678 558.693 376.057ZM476.818 492.534C475.645 493.355 475.176 493.707 474.824 494.059C460.631 511.537 444.561 527.255 426.263 540.392C423.682 542.151 424.034 544.146 424.621 546.374C426.263 552.591 427.67 558.925 428.257 565.259C429.782 581.446 434.122 596.695 443.975 609.95C457.23 628.014 470.836 645.843 485.85 662.617C498.753 676.927 517.052 681.502 535.35 689.009C513.415 623.439 493.709 558.808 476.818 492.534ZM336.412 603.146C333.949 604.437 332.19 605.258 330.548 606.196C297 625.081 262.632 641.972 226.035 654.171C220.991 655.813 217.12 655.696 212.897 651.591C207.502 646.43 203.514 640.447 199.056 633.879C198.587 635.404 198.235 636.107 198.118 636.811C193.661 651.825 192.84 667.543 188.969 682.675C188.03 686.545 190.728 685.724 192.605 685.607C204.687 685.138 216.768 684.786 228.85 683.965C263.101 681.502 297.118 676.106 331.369 674.346C335.24 674.112 336.412 672.939 336.412 669.185C336.295 647.485 336.412 625.785 336.412 603.146ZM175.831 670.71C177.356 662.382 178.646 653.937 180.406 645.608C184.629 626.02 189.203 606.196 203.983 591.769C212.546 583.44 211.959 576.168 208.206 567.136C207.033 564.321 205.508 561.506 204.335 558.573C202.575 554.116 199.877 552.356 194.716 552.474C180.054 552.591 166.096 555.172 152.372 560.333C149.322 561.506 148.032 562.679 149.908 566.315C153.779 573.353 155.891 581.094 158.237 588.719C166.565 615.346 170.084 643.028 175.831 670.71ZM332.776 257.351C322.923 263.686 314.83 269.081 306.619 274.242C295.945 280.928 295.827 280.811 300.167 292.424C304.859 304.857 308.496 317.643 310.959 331.484C314.712 328.903 317.762 326.792 320.812 324.798C323.744 322.921 326.442 320.223 330.196 320.81C333.48 321.279 333.597 319.754 333.48 317.174C333.128 307.672 332.776 298.054 332.659 288.435C332.776 278.582 332.776 268.729 332.776 257.351ZM163.28 687.132C154.014 649.831 152.724 611.357 137.475 575.464C130.437 586.607 130.085 598.337 131.844 609.95C134.19 625.785 137.944 641.268 140.173 657.104C141.58 666.957 146.389 676.692 142.636 687.132C149.908 687.132 156.946 687.132 163.28 687.132ZM458.989 252.542C456.76 251.487 455.939 251.956 455.118 252.542C444.327 260.284 433.066 267.322 422.744 275.65C420.163 277.761 419.342 279.873 419.225 283.04C418.404 317.174 418.638 351.307 419.225 385.441C419.225 386.379 418.638 387.787 420.281 388.491C421.923 385.793 423.565 383.212 425.207 380.515C426.028 379.224 426.615 378.169 425.911 376.292C418.99 358.111 420.75 339.929 426.967 321.983C431.541 308.845 439.752 297.937 448.315 287.38C449.371 286.09 452.42 284.682 450.074 282.101C446.204 278.113 447.611 273.773 449.136 269.55C451.365 263.451 455.236 258.173 458.989 252.542ZM684.554 468.84C693.703 486.669 693.937 506.376 699.685 526.199C702.5 508.839 703.556 492.886 702.735 476.934C702.617 475.292 703.087 473.18 700.741 472.594C695.58 471.186 690.418 469.309 684.554 468.84ZM286.913 300.4C286.326 298.758 285.505 297.116 285.153 295.473C283.98 290.547 281.986 288.905 277.529 292.776C275.066 294.887 272.016 296.412 269.201 298.171C260.99 303.45 252.896 308.611 245.506 315.179C259.817 312.012 272.25 303.567 286.913 300.4ZM216.299 600.331C212.897 604.319 208.206 607.252 208.675 612.648C209.261 619.451 211.607 625.902 215.713 631.533C216.768 632.94 217.707 635.404 219.935 634.582C221.695 633.879 221.46 631.65 221.578 629.89C222.164 619.686 219.114 610.419 216.299 600.331ZM295.475 329.842C293.951 323.625 292.66 318.346 291.018 311.778C289.611 314.828 284.919 314.71 286.913 317.525C289.728 321.279 291.018 325.854 295.475 329.842ZM588.017 329.959C585.788 334.064 583.677 337.818 581.448 341.806C589.542 340.516 591.301 337.114 588.017 329.959Z" fill="#111112"/>
<path d="M3.63675 35.0713C2.46377 39.5286 0.821595 43.8687 0.704297 48.5606C1.05619 43.8687 -2.46275 38.3556 3.63675 35.0713Z" fill="#9747FF"/>
<path d="M4.69056 33.8994C4.57326 34.6032 4.33867 35.1897 3.51758 35.1897C3.86947 34.7205 4.22137 34.2513 4.69056 33.8994Z" fill="#9747FF"/>
<path d="M333.597 334.887C333.597 351.778 333.949 367.73 333.479 383.683C332.776 408.316 332.776 432.948 334.183 457.463C334.418 462.273 332.893 463.211 329.139 464.384C295.709 474.472 262.866 486.436 229.905 498.049C215.947 502.975 202.223 508.84 188.851 515.057C179.467 519.514 172.312 526.083 169.614 536.522C169.027 538.634 168.089 539.924 165.743 540.159C164.57 540.276 163.514 540.745 162.341 540.98C122.108 548.135 112.724 583.442 116.478 609.951C118.941 627.546 122.577 644.906 125.627 662.383C127.035 670.36 127.035 678.453 130.084 686.195C114.249 686.195 98.8831 686.664 83.517 686.078C63.5763 685.374 43.8702 682.324 23.8122 682.911C20.2933 683.028 19.1203 682.089 19.003 678.336C17.83 636.109 17.0089 593.999 20.4106 551.771C21.9354 533.121 21.9354 514.353 22.8738 495.585C25.8063 435.06 26.7447 374.534 25.3371 313.891C24.3987 273.071 24.8679 232.251 22.9911 191.431C21.1144 151.081 21.1144 110.613 16.5397 70.2622C15.8359 63.6935 15.8359 57.0075 15.8359 50.3215C15.8359 42.2279 17.4781 40.2338 25.4544 38.0052C36.8323 34.8381 48.5621 34.017 60.292 34.8381C90.7895 37.0668 121.287 36.0111 151.667 34.017C192.487 31.3192 233.307 32.844 274.127 33.7824C293.246 34.2516 312.366 33.4305 331.485 35.3073C337.702 35.8938 339.227 38.8263 338.406 44.1047C336.881 53.4885 335.122 62.9897 333.714 72.3735C331.72 86.0974 331.368 99.9386 331.368 113.897C331.485 154.717 331.368 195.537 331.368 236.356C331.368 238.233 331.955 240.11 329.491 241.283C316.354 247.852 304.624 256.766 292.308 264.508C266.854 280.461 241.048 296.178 218.058 315.65C214.187 318.934 210.551 322.453 206.797 325.972C203.748 328.905 202.34 332.541 204.1 336.529C206.094 340.869 209.964 341.925 214.422 341.456C220.052 340.869 225.565 339.227 230.844 337.233C243.746 332.306 256.649 327.263 269.552 321.984C272.954 320.577 274.009 320.577 275.3 324.799C277.997 333.831 283.276 341.807 290.9 347.672C297.352 352.716 304.507 352.247 311.193 348.259C318.7 344.623 325.855 339.813 333.597 334.887Z" fill="#9747FF"/>
<path d="M423.799 197.999C424.855 187.794 425.91 178.293 426.849 168.909C428.373 153.895 429.781 138.998 431.189 123.984C432.831 106.037 440.69 90.6713 451.481 76.7128C474.824 46.9191 505.438 29.2071 542.739 23.4594C565.495 19.9405 588.368 17.3599 611.359 15.4832C644.085 12.668 669.187 25.1016 688.424 50.7899C711.179 81.2875 724.786 115.187 729.713 153.191C733.466 181.577 734.287 209.964 734.874 238.467C735.343 259.229 738.51 279.756 740.035 300.283C742.498 333.479 741.56 366.674 740.739 399.869C740.152 423.329 740.269 446.789 738.51 470.131C734.991 517.871 730.768 565.494 716.341 611.475C712.118 624.73 706.487 637.281 698.511 648.776C681.738 672.588 657.926 685.138 630.596 692.411C626.607 693.467 624.731 692.646 623.91 688.188C618.045 653.351 611.711 618.63 607.488 583.558C605.142 563.969 600.098 544.85 597.166 525.378C593.295 499.69 590.01 474.002 586.961 448.196C583.794 421.57 578.867 395.412 573.237 369.254C571.125 359.636 571.125 359.401 580.627 357.994C593.06 356.117 602.209 350.721 605.611 337.701C606.315 334.886 608.309 332.423 610.303 329.96C610.655 341.22 609.951 352.246 611.945 363.272C617.575 393.77 626.256 423.094 642.56 449.838C646.196 455.821 647.369 462.976 649.598 469.662C653.351 480.57 657.574 491.245 663.674 501.098C667.193 506.728 671.533 511.42 678.336 512.828C681.738 513.531 681.855 515.995 682.324 518.34C684.67 530.891 685.374 543.56 685.843 556.228C685.96 558.339 685.843 560.568 685.96 562.679C686.312 567.488 688.072 571.711 693.116 572.884C698.042 574.057 701.326 571.007 703.438 566.902C709.42 555.993 712 544.029 714.112 531.83C717.279 513.649 717.631 495.35 718.217 477.052C718.452 468.723 720.798 460.63 716.927 452.654C715.285 449.369 714.112 445.733 712.352 442.566C695.813 411.482 690.183 377.935 689.01 343.214C688.189 318.113 690.887 293.245 692.06 268.261C693.467 239.171 687.133 212.427 669.421 188.967C667.896 186.973 668.014 186.035 669.89 184.393C686.547 169.965 684.67 150.493 675.873 137.356C665.081 121.169 643.616 115.656 626.49 124.453C615.816 129.849 607.253 137.473 604.907 149.79C604.086 153.778 601.623 152.37 599.629 152.136C581.213 149.79 563.032 151.666 544.733 154.012C520.101 157.179 497.345 166.563 474.237 175.009C458.754 180.639 444.326 188.263 429.546 195.419C428.022 196.122 426.262 196.826 423.799 197.999Z" fill="#FEFEFE"/>
<path d="M236.826 634.232C238.233 614.291 230.14 596.814 226.973 578.515C223.571 558.692 213.835 542.036 200.111 526.904C217.823 518.928 235.301 512.242 253.247 506.142C289.61 493.826 325.855 480.923 362.569 469.897C369.138 467.903 375.707 466.378 382.275 464.501C393.184 461.569 400.926 455.939 405.97 444.913C416.057 422.509 430.133 402.099 442.801 381.102C450.895 367.613 458.988 354.007 467.082 340.4C470.366 334.77 470.132 330.547 466.261 327.966C462.155 325.269 457.698 326.793 454.179 332.541C448.783 341.338 443.622 350.253 437.64 360.341C435.881 346.03 438.227 333.714 443.74 321.867C446.672 315.65 450.426 310.02 454.648 304.507C460.279 297.234 465.792 289.962 471.305 282.572C477.404 274.361 477.404 274.009 487.023 276.824C517.051 285.739 545.789 297.821 572.533 314.242C576.404 316.588 577.225 318.465 574.762 322.805C565.847 339.344 554.821 354.476 543.678 369.607C518.224 403.976 493.474 438.813 470.014 474.589C456.291 495.585 437.523 511.773 418.403 527.842C393.067 549.191 365.619 567.255 337.585 584.615C308.143 602.796 277.176 617.928 245.271 631.299C242.691 632.238 240.11 633.059 236.826 634.232Z" fill="#FEFEFE"/>
<path d="M700.623 456.525C679.744 454.179 665.786 442.566 656.167 424.385C643.382 399.987 634.115 374.768 630.127 347.32C628.015 332.892 628.719 319.051 630.361 304.858C630.948 300.049 631.3 295.122 631.3 290.313C631.417 286.559 629.423 283.979 625.787 283.041C621.799 281.985 618.866 283.979 616.872 287.146C612.767 293.949 608.896 300.987 604.908 307.908C603.031 311.075 601.037 314.242 599.043 317.526C582.738 299.462 561.507 289.961 540.394 280.46C519.28 270.959 497.697 262.161 473.534 258.877C481.862 248.789 489.955 239.288 499.105 230.843C510.013 220.755 520.688 210.55 530.893 199.642C535.35 194.832 536.171 190.14 533.004 186.739C529.954 183.572 525.262 183.806 520.336 187.677C489.017 213.014 454.414 233.775 421.688 257C421.219 257.352 420.75 257.352 419.694 257.821C419.107 244.449 420.28 231.547 421.336 218.644C421.453 216.884 422.392 216.063 423.917 215.242C460.396 195.888 497.932 179.114 538.4 170.552C562.563 165.508 587.43 162.575 611.476 170.082C655.111 183.806 670.595 208.087 676.108 246.561C678.923 266.267 675.404 285.973 674.231 305.562C671.768 348.493 674.348 390.603 690.066 431.188C693.351 439.516 698.394 447.023 700.975 455.703C701.092 456.055 700.858 456.29 700.623 456.525Z" fill="#FEFEFE"/>
<path d="M558.693 376.058C565.614 404.678 569.837 433.416 573.238 462.154C577.461 498.986 583.209 535.583 590.012 572.063C595.173 599.511 598.457 627.193 602.68 654.758C604.557 666.84 606.668 679.039 609.014 691.003C609.718 694.288 609.366 695.578 605.847 695.695C588.135 696.282 570.306 697.22 552.711 693.936C550.248 693.466 548.371 693.349 549.661 689.713C551.069 685.49 549.075 681.268 547.667 677.279C530.776 629.304 516.935 580.391 502.742 531.595C497.698 514.235 494.062 496.406 488.549 479.163C487.845 476.934 487.845 475.175 489.136 473.063C510.718 440.102 533.709 407.963 557.52 376.644C557.638 376.41 557.872 376.41 558.693 376.058Z" fill="#FEFEFE"/>
<path d="M476.816 492.535C493.707 558.809 513.413 623.557 535.23 689.127C516.932 681.62 498.751 677.045 485.731 662.735C470.716 646.079 457.11 628.132 443.855 610.068C434.119 596.813 429.662 581.564 428.137 565.377C427.551 558.926 426.143 552.709 424.501 546.492C423.914 544.146 423.68 542.27 426.143 540.51C444.442 527.373 460.512 511.655 474.705 494.177C475.174 493.591 475.643 493.356 476.816 492.535Z" fill="#FEFEFE"/>
<path d="M336.412 603.147C336.412 625.786 336.412 647.486 336.412 669.069C336.412 672.823 335.239 673.996 331.368 674.23C297 675.99 263.101 681.503 228.85 683.849C216.768 684.67 204.686 685.022 192.605 685.491C190.728 685.608 187.913 686.429 188.968 682.558C192.839 667.427 193.66 651.709 198.118 636.695C198.352 635.991 198.587 635.287 199.056 633.762C203.513 640.448 207.501 646.431 212.897 651.474C217.237 655.58 220.991 655.814 226.035 654.055C262.632 641.856 297 624.848 330.547 606.08C332.189 605.376 333.949 604.438 336.412 603.147Z" fill="#9747FF"/>
<path d="M175.831 670.711C169.966 643.029 166.564 615.347 158.236 588.603C155.89 580.978 153.779 573.237 149.908 566.199C148.031 562.68 149.322 561.389 152.371 560.216C165.978 555.055 180.054 552.475 194.716 552.357C199.877 552.357 202.575 554.117 204.334 558.457C205.507 561.389 207.032 564.087 208.205 567.02C211.959 576.052 212.545 583.441 203.983 591.652C189.203 605.963 184.628 625.903 180.406 645.492C178.646 653.82 177.356 662.266 175.831 670.711Z" fill="#FEFEFE"/>
<path d="M332.776 257.352C332.776 268.729 332.658 278.7 332.776 288.553C332.893 298.171 333.128 307.672 333.597 317.291C333.714 319.872 333.597 321.396 330.313 320.927C326.559 320.341 323.744 323.039 320.929 324.915C317.879 326.909 314.829 329.021 311.076 331.601C308.612 317.76 304.976 304.975 300.284 292.541C295.944 280.928 296.061 281.046 306.736 274.36C314.946 269.081 323.04 263.686 332.776 257.352Z" fill="#FEFEFE"/>
<path d="M163.281 687.133C156.947 687.133 150.026 687.133 142.636 687.133C146.272 676.693 141.58 667.075 140.173 657.104C137.944 641.269 134.191 625.668 131.845 609.951C130.085 598.338 130.554 586.725 137.475 575.465C152.724 611.358 154.014 649.832 163.281 687.133Z" fill="#FEFEFE"/>
<path d="M458.987 252.544C455.233 258.057 451.362 263.452 449.251 269.669C447.844 274.009 446.436 278.232 450.189 282.22C452.535 284.683 449.603 286.091 448.43 287.499C439.75 298.173 431.539 309.081 427.082 322.101C420.865 340.048 419.105 358.229 426.026 376.411C426.73 378.287 426.143 379.343 425.322 380.633C423.68 383.331 422.038 385.912 420.396 388.61C418.754 387.788 419.34 386.498 419.34 385.56C418.754 351.426 418.519 317.292 419.34 283.158C419.457 279.991 420.278 277.88 422.859 275.769C433.181 267.323 444.442 260.285 455.233 252.661C455.937 252.074 456.758 251.488 458.987 252.544Z" fill="#FEFEFE"/>
<path d="M684.553 468.842C690.418 469.194 695.579 471.188 700.74 472.595C703.086 473.182 702.617 475.293 702.734 476.935C703.555 492.888 702.382 508.84 699.684 526.201C693.937 506.377 693.585 486.671 684.553 468.842Z" fill="#FEFEFE"/>
<path d="M286.912 300.401C272.25 303.685 259.816 312.014 245.506 315.181C252.778 308.612 260.989 303.451 269.2 298.172C272.015 296.413 275.065 294.888 277.528 292.777C281.986 288.906 283.98 290.548 285.153 295.475C285.505 297.117 286.326 298.642 286.912 300.401Z" fill="#FEFEFE"/>
<path d="M216.297 600.333C219.113 610.421 222.162 619.805 221.693 629.775C221.576 631.534 221.81 633.763 220.051 634.467C217.705 635.405 216.767 632.825 215.828 631.417C211.723 625.787 209.377 619.335 208.79 612.532C208.204 607.254 212.896 604.321 216.297 600.333Z" fill="#FEFEFE"/>
<path d="M295.475 329.843C291.135 325.855 289.727 321.163 286.912 317.527C284.801 314.712 289.493 314.829 291.017 311.779C292.542 318.465 293.833 323.626 295.475 329.843Z" fill="#FEFEFE"/>
<path d="M588.018 329.961C591.42 337.233 589.543 340.518 581.449 341.808C583.678 337.82 585.789 333.949 588.018 329.961Z" fill="#FEFEFE"/>
<path d="M701.327 455.821C701.561 456.056 702.031 456.408 701.913 456.525C701.561 457.112 701.092 456.994 700.623 456.525C700.858 456.29 701.092 456.056 701.327 455.821Z" fill="#FEFEFE"/>
</g>
<defs>
<clipPath id="clip0_169_1260">
<rect width="756.808" height="712" fill="white"/>
</clipPath>
</defs>
</svg>
