<svg width="347" height="205" viewBox="0 0 347 205" fill="none" xmlns="http://www.w3.org/2000/svg">
<path d="M87.3802 150.083C81.2956 152.212 75.388 154.603 69.0379 152.737C65.1087 151.618 61.446 149.677 57.5906 148.266C53.2501 146.715 48.9301 144.918 44.4298 144.099C34.9362 142.421 26.3077 144.09 20.0629 152.362C15.5999 158.299 11.0917 164.182 6.67803 170.123C5.56127 171.62 4.72001 173.387 4.03077 175.118C2.78353 178.192 3.72613 180.604 6.62422 182.184C13.1275 185.8 18.5802 185.308 24.1945 180.459C26.3877 178.555 28.3505 176.433 30.4491 174.472C32.2274 172.782 34.0549 171.096 35.8825 169.41C37.5498 167.86 39.0374 167.883 41.1135 169.197C46.0302 172.185 51.0495 175.133 56.3151 177.504C66.8422 182.297 77.562 186.56 88.7947 189.425C91.1785 190.019 93.3279 190.445 95.4106 189.277C106.547 183.097 117.597 176.762 125.143 165.966C125.537 165.403 126.815 164.962 127.493 165.167C143.731 169.34 159.831 173.998 176.11 177.677C190.589 180.91 205.318 182.922 219.826 185.81C227.203 187.264 232.955 184.959 237.903 179.757C239.316 178.285 240.732 176.764 242.009 175.132C246.83 169.076 251.654 162.97 256.38 156.857C257.546 155.364 258.671 153.769 259.406 152.092C261.133 148.014 258.94 144.506 254.494 144.238C252.961 144.161 251.355 144.376 249.842 144.648C243.441 145.807 237.838 148.72 232.481 152.249C229.803 154.014 226.969 155.269 223.702 155.148C221.076 155.08 218.392 155.106 215.783 154.841C206.82 153.951 198.062 152.382 189.394 149.729C180.824 147.084 171.848 145.746 163.086 143.632C161.138 143.173 158.754 142.578 157.529 141.186C154.259 137.49 151.783 133.214 151.52 127.979C151.433 126.035 151.966 124.987 153.955 124.357C160.323 122.401 166.609 120.239 172.94 118.131C180.499 115.578 188.112 112.981 195.635 110.276C199.061 109.07 202.45 107.711 205.663 106.09C209.549 104.127 211.109 101.476 210.021 96.6194C208.743 91.0521 206.919 85.4893 204.573 80.2309C199.956 70.0182 195.031 59.9289 189.847 49.9672C187.835 46.077 185.112 42.3762 182.098 39.1976C169.901 26.3721 153.991 21.2335 137.165 18.1542C127.039 16.3239 116.906 17.5715 106.942 19.1806C98.9911 20.4597 90.9462 22.2771 83.5432 25.3392C58.1503 35.8016 33.9711 48.4 14.6252 68.5976C12.0176 71.3114 10.2731 74.3945 9.62621 78.0153C8.58632 83.9868 12.4474 87.7319 18.3558 86.5323C21.3881 85.8893 24.4366 85.049 27.3536 83.9992C37.0246 80.5288 45.8028 75.2467 54.4905 69.8579C58.783 67.184 63.2565 64.7238 67.5571 61.9513C74.5811 57.4676 81.5147 52.8771 89.7812 50.7801C95.5621 49.3216 97.9711 50.8117 98.2016 57.633C98.2683 59.2274 97.7804 60.9249 97.3048 62.4744C96.6037 64.9487 95.8574 67.3695 94.9631 69.7782C87.2224 90.7366 83.0903 112.49 79.439 134.432C78.404 141.546 79.8294 147.125 87.3802 150.083Z" fill="white"/>
<path d="M300.839 81.5363C320.605 82.6741 329.503 78.3453 338.942 65.0743C343.548 58.6032 344.024 51.6417 340.141 44.568C339.408 43.2165 338.737 41.7212 337.849 40.4561C336.253 38.1395 336.301 36.356 338.141 33.9262C342.719 27.8004 340.895 22.8334 333.829 20.0149C331.092 18.8948 328.567 16.9979 326.187 15.1626C324.226 13.6599 322.757 11.6021 320.907 9.95956C311.985 1.97274 298.189 0.087306 288.704 6.10539C276.755 13.7072 271.297 25.073 271.931 39.0278C272.393 48.4501 276.15 57.0526 281.202 65.0173C281.815 66.0113 282.428 67.0054 283.045 67.9501C288.03 75.5121 294.378 81.0022 300.839 81.5363Z" fill="white"/>
<path d="M87.3795 150.083C79.7795 147.121 78.354 141.541 79.537 134.44C83.1842 112.547 87.3204 90.7444 95.0611 69.786C95.9554 67.3773 96.7017 64.9564 97.4028 62.4822C97.8332 60.8793 98.317 59.2311 98.2996 57.6408C98.065 50.8688 95.6601 49.3294 89.8792 50.7879C81.6127 52.8849 74.6791 57.4754 67.6551 61.9591C63.3585 64.6822 58.9344 67.1466 54.5885 69.8657C45.8967 75.3038 37.1226 80.5366 27.4516 84.007C24.5346 85.0568 21.482 85.9464 18.4538 86.5401C12.5866 87.8424 8.72549 84.0972 9.76538 78.1257C10.4123 74.505 12.1568 71.4219 14.7644 68.7081C34.1103 48.5105 58.2895 35.9121 83.6824 25.4497C91.0854 22.3876 99.1302 20.5702 107.081 19.2911C117.045 17.682 127.182 16.3851 137.304 18.2647C154.13 21.344 170.04 26.4826 182.237 39.3081C185.251 42.4867 187.974 46.1874 189.986 50.0777C195.17 60.0394 200.095 70.1287 204.713 80.3414C207.062 85.5505 208.887 91.1133 210.16 96.7299C211.297 101.591 209.688 104.238 205.802 106.201C202.586 107.871 199.151 109.176 195.774 110.386C188.251 113.091 180.643 115.64 173.079 118.242C166.793 120.403 160.462 122.511 154.094 124.467C152.106 125.097 151.572 126.145 151.66 128.089C151.922 133.324 154.403 137.551 157.668 141.297C158.893 142.689 161.228 143.279 163.225 143.742C171.992 145.808 180.963 147.195 189.533 149.84C198.201 152.493 206.955 154.11 215.922 154.951C218.532 155.216 221.215 155.19 223.841 155.258C227.108 155.379 229.942 154.124 232.621 152.36C237.973 148.88 243.629 145.921 249.982 144.758C251.494 144.486 253.1 144.271 254.633 144.349C259.03 144.613 261.272 148.125 259.545 152.202C258.806 153.929 257.685 155.475 256.519 156.967C251.793 163.081 246.969 169.186 242.149 175.242C240.872 176.874 239.455 178.396 238.042 179.868C233.094 185.069 227.293 187.37 219.965 185.92C205.404 183.078 190.675 181.066 176.249 177.788C159.92 174.104 143.821 169.446 127.632 165.278C126.95 165.122 125.676 165.513 125.282 166.076C117.687 176.868 106.686 183.208 95.5497 189.387C93.4671 190.556 91.3135 190.179 88.9338 189.535C77.6519 186.666 66.9361 182.354 56.4543 177.615C51.1887 175.243 46.1653 172.345 41.2526 169.307C39.1725 168.043 37.689 167.97 36.0216 169.52C34.1941 171.206 32.3706 172.843 30.5883 174.582C28.4897 176.544 26.5228 178.715 24.3337 180.57C18.6701 185.414 13.2174 185.907 6.76339 182.295C3.86938 180.665 2.9227 178.303 4.16994 175.228C4.85918 173.498 5.70044 171.73 6.8172 170.234C11.1856 164.24 15.7391 158.41 20.202 152.473C26.451 144.152 35.0795 142.482 44.569 144.21C48.8801 144.914 53.1961 146.76 57.5365 148.311C61.3961 149.672 65.108 151.618 68.9839 152.782C75.3874 154.603 81.3443 152.215 87.3795 150.083ZM145.196 128.2C142.011 128.88 138.864 129.712 135.704 130.097C132.298 130.46 129.318 129.271 127.381 126.28C125.398 123.237 125.757 120.089 127.782 117.227C129.132 115.303 130.594 113.239 132.496 111.857C137.511 108.25 142.793 105.013 147.94 101.615C148.622 101.175 149.665 100.566 149.767 99.9292C150.389 94.8168 150.422 89.6062 151.389 84.5223C152.257 80.0262 153.672 75.5256 155.555 71.3616C157.32 67.4361 161.141 66.8583 164.389 69.6094C170.606 74.89 175.18 81.4249 178.751 88.6714C180.196 91.621 179.297 94.0789 176.302 95.4698C171.545 97.7577 166.747 99.9428 161.817 101.919C152.939 105.405 144.493 109.672 137.137 115.767C135.643 117.033 134.275 118.559 133.245 120.211C131.709 122.567 132.804 124.345 135.602 124.13C137.8 123.964 139.982 123.4 142.122 122.733C151.765 119.607 161.362 116.429 170.968 113.152C179.961 110.072 188.913 106.89 197.865 103.707C200.219 102.859 202.479 101.954 204.747 100.95C206.497 100.201 207.203 98.8687 206.569 96.9295C205.193 92.5458 204.286 87.9028 202.393 83.7742C198.138 74.5844 193.575 65.5181 188.806 56.5342C183.26 46.1453 174.688 38.7336 164.411 33.3159C147.66 24.5329 129.782 21.5653 111.202 24.6963C102.491 26.1608 93.5383 28.1514 85.4986 31.707C71.6337 37.8595 58.2256 45.0924 45.0396 52.6415C34.9344 58.36 25.6683 65.3396 18.1213 74.348C16.5815 76.1571 15.6746 78.1178 15.886 80.9654C18.5197 80.3391 20.9357 79.943 23.2364 79.1402C32.698 75.8014 41.3983 70.8605 49.9258 65.6073C58.0877 60.5722 66.2456 55.5864 74.4487 50.654C80.2447 47.2108 86.5387 44.9507 93.2198 44.0135C96.7864 43.514 99.4994 44.9299 101.441 47.8709C103.827 51.4445 104.392 55.4137 103.507 59.5113C102.651 63.2636 101.692 67.0572 100.252 70.662C95.2383 83.2562 92.7074 96.4528 90.1764 109.649C88.3991 119.135 86.9136 128.694 85.2843 138.192C84.8791 140.691 85.7842 142.354 88.0327 143.384C89.3727 143.992 90.6471 144.792 92.0446 145.305C97.9264 147.43 103.866 149.46 109.748 151.585C121.458 155.879 133.389 159.299 145.78 161.366C155.381 162.954 164.825 165.225 174.27 167.495C189.164 171.11 204.116 174.63 218.814 178.824C226.964 181.137 232.374 178.158 236.907 171.979C237.408 171.325 237.909 170.671 238.41 170.018C242.356 164.932 246.347 159.899 250.292 154.814C251.29 153.556 252.292 152.248 253.737 150.382C251.925 150.679 250.742 150.581 249.76 151.046C244.908 153.276 239.966 155.4 235.332 157.996C231.898 159.897 228.46 161.847 224.453 161.664C217.032 161.349 209.548 161.177 202.25 159.977C194.215 158.668 186.369 156.281 178.482 154.388C171.91 152.802 165.281 151.31 158.705 149.774C155.1 148.929 152.498 146.778 150.725 143.602C148.129 138.969 145.072 134.496 145.295 128.804C145.418 128.516 145.241 128.254 145.196 128.2ZM119.272 163.097C119.149 162.789 119.029 162.431 118.955 162.127C112.65 159.719 106.398 157.266 100.093 154.858C97.7827 153.972 95.8265 153.611 93.0493 154.772C87.8032 156.97 82.0138 157.931 76.3478 159.2C74.6263 159.604 72.5799 159.733 70.9852 159.204C64.0225 156.94 57.2568 154.097 50.2326 151.977C46.1635 150.747 41.8895 150.195 37.6485 149.844C32.9143 149.453 28.8884 151.304 25.9444 155.083C21.1077 161.336 16.3162 167.643 11.5289 173.9C10.8596 174.788 10.4247 175.845 9.89934 176.794C13.8253 179.155 16.258 179.157 19.4533 176.542C21.741 174.695 23.7654 172.43 25.9626 170.476C28.6445 168.066 31.3344 165.558 34.2424 163.415C37.2038 161.227 40.3722 161.34 43.4227 163.479C45.4865 164.941 47.5874 166.554 49.8852 167.588C58.9777 171.716 68.1317 175.7 77.2857 179.685C80.1631 180.916 83.1019 182.003 85.9874 183.135C89.2592 184.398 92.2882 184.996 95.4754 182.48C100.092 178.889 105.202 175.935 109.773 172.291C113.178 169.544 116.085 166.21 119.272 163.097ZM173.156 90.2941C169.979 84.2719 166.339 79.0555 161.532 74.7356C161.179 74.8057 160.879 74.8305 160.526 74.9006C159.179 82.1873 157.786 89.4206 156.439 96.7073C156.669 96.9249 156.899 97.1426 157.13 97.3602C162.339 95.0104 167.54 92.7592 173.156 90.2941Z" fill="black"/>
<path d="M300.839 81.5369C294.33 80.9987 288.031 75.5127 283.045 67.9507C282.428 67.006 281.815 66.0119 281.202 65.0178C276.151 57.0532 272.344 48.4466 271.931 39.0283C271.297 25.0735 276.756 13.7077 288.705 6.10595C298.238 0.0919428 311.989 1.92398 320.908 9.96012C322.758 11.6026 324.276 13.6645 326.187 15.1632C328.568 16.9985 331.043 18.8913 333.83 20.0154C340.846 22.8299 342.719 27.8009 338.141 33.9268C336.302 36.3566 336.254 38.14 337.85 40.4567C338.738 41.7217 339.36 43.213 340.141 44.5686C344.025 51.6423 343.549 58.6038 338.942 65.0748C329.504 78.3458 320.606 82.6746 300.839 81.5369ZM307.04 75.5949C318.551 76.8942 327.399 71.3696 333.98 61.4372C336.985 56.9191 337.418 52.2876 334.739 47.4486C333.398 45.0538 332.156 42.6671 330.917 40.231C329.415 37.376 329.738 34.6719 331.828 32.2132C332.6 31.284 333.331 30.2521 333.918 29.1586C334.62 27.876 334.459 26.82 332.815 26.2869C331.413 25.8235 329.855 25.4464 328.737 24.5595C324.823 21.4554 320.971 18.2075 317.278 14.8238C308.138 6.47139 294.869 6.61561 286.426 15.6493C281.745 20.6246 278.86 26.6918 278.046 33.5261C276.951 43.1673 280.877 51.5354 285.16 59.7841C286.489 62.3269 288.229 64.7051 289.977 66.9846C293.999 72.3816 299.11 76.0315 307.04 75.5949Z" fill="black"/>
<path d="M145.196 128.2C145.237 128.303 145.418 128.516 145.402 128.714C145.18 134.405 148.236 138.878 150.832 143.512C152.605 146.687 155.208 148.839 158.812 149.683C165.384 151.269 172.013 152.761 178.589 154.297C186.525 156.195 194.372 158.581 202.357 159.887C209.656 161.086 217.143 161.209 224.561 161.574C228.567 161.756 231.956 159.802 235.44 157.905C240.119 155.363 245.015 153.186 249.867 150.955C250.845 150.54 252.032 150.588 253.844 150.291C252.399 152.158 251.401 153.416 250.4 154.723C246.454 159.809 242.463 164.841 238.517 169.927C238.016 170.581 237.515 171.235 237.014 171.888C232.482 178.068 227.072 181.046 218.921 178.734C204.174 174.535 189.272 171.019 174.377 167.405C164.933 165.134 155.439 162.86 145.888 161.276C133.497 159.208 121.61 155.842 109.855 151.494C103.977 149.32 98.0338 147.339 92.152 145.214C90.7545 144.702 89.476 143.95 88.14 143.294C85.8916 142.264 84.9905 140.551 85.3916 138.101C87.021 128.604 88.4571 119.04 90.2837 109.559C92.8147 96.3624 95.3457 83.1657 100.359 70.5715C101.799 66.9667 102.758 63.1732 103.615 59.4208C104.549 55.3274 103.934 51.354 101.548 47.7805C99.6068 44.8395 96.8444 43.4195 93.3272 43.9231C86.5967 44.8562 80.352 47.1203 74.556 50.5636C66.3529 55.496 58.1458 60.4777 50.0331 65.5169C41.5056 70.77 32.8546 75.715 23.3437 79.0498C21.0923 79.8566 18.627 80.2486 15.9933 80.875C15.7819 78.0273 16.6847 76.1159 18.2286 74.2575C25.7757 65.2491 35.0418 58.2696 45.0483 52.5429C58.185 44.9897 71.6384 37.8102 85.5074 31.6084C93.547 28.0528 102.5 26.0622 111.211 24.5977C129.791 21.4667 147.668 24.4343 164.42 33.2173C174.696 38.635 183.269 46.0467 188.815 56.4355C193.588 65.3702 198.151 74.4365 202.402 83.6756C204.295 87.8042 205.202 92.4471 206.577 96.8309C207.211 98.7701 206.456 100.098 204.755 100.851C202.488 101.855 200.175 102.806 197.874 103.609C188.922 106.791 179.97 109.973 170.976 113.053C161.371 116.33 151.774 119.509 142.131 122.634C140.04 123.305 137.809 123.866 135.611 124.031C132.812 124.247 131.718 122.468 133.253 120.113C134.333 118.464 135.651 116.935 137.146 115.668C144.506 109.524 152.948 105.306 161.826 101.82C166.752 99.8935 171.554 97.6591 176.311 95.3712C179.257 93.9762 180.159 91.469 178.76 88.5728C175.188 81.3263 170.619 74.742 164.398 69.5108C161.15 66.7597 157.333 67.2881 155.564 71.263C153.681 75.427 152.266 79.9276 151.398 84.4237C150.435 89.4583 150.402 94.6689 149.776 99.8306C149.723 100.472 148.68 101.081 147.949 101.517C142.802 104.914 137.519 108.152 132.504 111.759C130.607 113.091 129.145 115.155 127.79 117.129C125.766 119.99 125.456 123.142 127.389 126.182C129.323 129.221 132.303 130.411 135.713 129.998C138.865 129.712 142.016 128.831 145.196 128.2Z" fill="white"/>
<path d="M119.273 163.097C116.087 166.21 113.179 169.544 109.725 172.287C105.154 175.931 100.044 178.885 95.4273 182.476C92.2442 184.943 89.2111 184.394 85.9393 183.131C83.0538 181.999 80.1109 180.961 77.2376 179.681C68.0836 175.696 58.9255 171.762 49.8371 167.584C47.5393 166.55 45.4877 164.941 43.3746 163.475C40.2788 161.283 37.1598 161.174 34.1943 163.411C31.2863 165.554 28.6457 168.066 25.9145 170.472C23.7132 172.475 21.6929 174.691 19.4052 176.538C16.2099 179.153 13.7771 179.151 9.85121 176.79C10.3766 175.841 10.8115 174.784 11.4807 173.896C16.2722 167.59 21.0637 161.283 25.8963 155.079C28.8402 151.3 32.9155 149.453 37.6003 149.84C41.8414 150.191 46.1647 150.747 50.1845 151.973C57.1593 154.089 63.9744 156.936 70.9371 159.2C72.5811 159.733 74.5782 159.6 76.2997 159.196C81.9163 157.923 87.7057 156.962 93.0012 154.768C95.8317 153.562 97.7346 153.968 100.045 154.854C106.35 157.262 112.606 159.666 118.907 162.123C119.03 162.431 119.15 162.789 119.273 163.097Z" fill="white"/>
<path d="M173.155 90.2949C167.539 92.76 162.338 95.0112 157.133 97.3117C156.903 97.0941 156.673 96.8764 156.442 96.6588C157.79 89.3721 159.182 82.1388 160.529 74.8521C160.883 74.782 161.183 74.7572 161.536 74.6871C166.339 79.0563 169.979 84.2727 173.155 90.2949Z" fill="white"/>
<path d="M307.04 75.5946C299.06 76.0271 293.999 72.3814 289.928 66.9803C288.184 64.6514 286.44 62.3226 285.111 59.7798C280.877 51.5351 276.902 43.1629 277.997 33.5218C278.81 26.6874 281.695 20.6202 286.377 15.6449C294.869 6.61534 308.138 6.47112 317.323 14.8769C321.016 18.2606 324.872 21.4592 328.782 24.6127C329.901 25.4995 331.454 25.9259 332.86 26.34C334.504 26.8732 334.669 27.8798 333.963 29.2117C333.376 30.3052 332.645 31.3371 331.873 32.2663C329.779 34.7743 329.51 37.4332 330.962 40.2842C332.201 42.7202 333.493 45.111 334.784 47.5017C337.463 52.3408 337.03 56.9722 334.025 61.4903C327.399 71.3693 318.551 76.8939 307.04 75.5946ZM306.713 27.3063C306.493 29.9692 308.245 32.1995 310.665 32.3499C313.032 32.5456 315.123 30.6828 315.277 28.213C315.477 25.7966 313.396 23.3405 310.935 23.0874C308.72 22.8546 306.929 24.6926 306.713 27.3063Z" fill="#9747FF"/>
<path d="M306.713 27.3064C306.929 24.6927 308.769 22.8588 310.934 23.0875C313.396 23.3407 315.477 25.7967 315.277 28.2131C315.073 30.6788 313.032 32.5458 310.665 32.3501C308.195 32.1955 306.493 29.9694 306.713 27.3064Z" fill="black"/>
</svg>
