<svg width="148" height="131" viewBox="0 0 148 131" fill="none" xmlns="http://www.w3.org/2000/svg">
<g clip-path="url(#clip0_173_2655)">
<path d="M47.5 3.12695L40 8.12695L42 14.127L49.5 18.127L68 19.127L96 18.127L111 14.127L98 8.12695L77 3.12695H47.5Z" fill="#9747FF"/>
<path d="M18 109.127L36.5 101.127L50 106.627L49 108.127L23 121.127L21 125.127L10 128.627L5 122.627L4 111.627L7.5 102.627H13L18 109.127Z" fill="#9747FF"/>
<path d="M107.5 95.127L94 101.627L98 104.127L123 110.127L127.5 114.627L137.5 116.627L144 103.627L142.5 89.127L136 88.627L129 101.627L107.5 95.127Z" fill="#9747FF"/>
<path d="M18.8658 106.47C24.2271 103.997 29.5591 101.524 34.8324 99.0794C34.8031 98.8175 34.8031 98.7011 34.7738 98.6429C30.0571 93.7253 29.9106 87.9348 31.3754 81.7951C31.9028 79.6418 32.4008 77.4594 32.8988 75.3062C29.0317 75.6845 25.4868 74.8115 22.0592 73.473C18.3678 72.0181 17.7233 68.6718 17.4889 65.3255C17.0788 59.9714 16.9616 54.5883 16.61 49.2051C16.3756 45.6842 15.9069 42.1634 15.5846 38.6425C15.2917 35.4999 15.2331 32.3573 16.3463 29.302C17.7526 25.4319 20.2135 23.6278 24.3443 23.4823C27.4204 23.3659 30.4672 23.2786 33.6606 23.1913C33.8363 21.1254 33.9828 19.2049 34.1879 17.2844C34.4223 15.2184 34.6566 13.1525 35.0082 11.0865C35.5062 8.17668 37.1761 5.93613 39.5198 4.19023C43.4456 1.25132 47.9865 -0.0871974 52.879 9.71789e-05C58.7676 0.11649 64.6855 0.43657 70.5741 0.843944C78.6013 1.42591 86.6578 2.15336 94.3335 4.6849C101.365 6.98366 108.191 9.83528 115.134 12.425C115.28 12.4832 115.398 12.5414 115.544 12.5705C117.829 13.3562 118.298 14.6074 117.126 16.8188C115.398 20.0778 113.464 23.2495 111.97 26.5958C108.454 34.3941 108.63 42.367 111.032 50.4563C113.406 58.371 115.134 66.4312 114.988 74.7533C114.9 79.3799 114.489 83.9774 112.673 88.284C111.941 90.0008 110.974 91.6303 110.036 93.4052C116.071 95.413 122.107 97.3917 128.288 99.4577C128.698 98.4683 128.962 97.7118 129.313 96.9843C130.515 94.511 131.686 92.0085 132.976 89.5643C133.356 88.8077 133.972 88.1094 134.558 87.4983C138.22 83.7738 143.698 84.6176 145.719 89.4188C146.628 91.6012 147.126 94.0745 147.272 96.4606C147.653 102.833 146.686 108.915 142.819 114.298C139.684 118.692 134.851 120.641 130.104 119.274C127.263 118.488 125.3 116.655 123.776 114.21C123.396 113.599 122.634 113.017 121.931 112.843C113.113 110.719 104.294 108.653 95.4761 106.616C94.3921 106.354 93.2495 106.354 92.1363 106.208C91.4625 106.121 90.5543 106.179 90.2027 105.772C89.148 104.666 88.152 105.161 87.0387 105.423C77.3709 107.634 67.5859 109.147 57.6251 108.507C57.127 108.478 56.6583 108.391 56.1895 108.304C55.1349 108.158 54.0509 107.896 53.465 109.206C53.3478 109.438 53.0548 109.613 52.7911 109.729C45.7893 113.338 38.7874 117.004 31.727 120.525C29.5591 121.601 27.1567 122.183 24.9009 123.114C24.1978 123.405 23.4654 123.958 23.0845 124.598C20.4479 129.051 14.5007 131.815 9.40309 130.796C6.70781 130.273 4.48128 128.847 3.28013 126.461C-0.557709 118.983 -1.40731 111.359 2.86998 103.706C3.95395 101.756 5.53595 100.243 7.6453 99.3704C11.7175 97.6536 15.3796 98.9048 17.3717 102.833C17.8991 103.851 18.2799 105.015 18.8658 106.47ZM137.077 92.5905C136.696 93.0561 136.198 93.4634 135.964 93.9872C134.821 96.4897 133.796 99.0503 132.653 101.582C131.569 103.997 130.28 104.579 127.731 103.968C126.589 103.706 125.446 103.444 124.333 103.095C119.675 101.582 114.988 100.04 110.329 98.4683C107.576 97.5372 104.88 96.9843 102.449 99.1958C102.244 99.3704 101.921 99.4577 101.658 99.5741C100.105 100.302 98.5229 101.058 96.7944 101.873C97.3218 102.047 97.6147 102.193 97.937 102.28C105.993 104.172 114.05 106.092 122.136 107.867C124.743 108.449 126.94 109.206 128.112 111.883C128.874 113.658 130.456 114.618 132.36 114.822C135.319 115.112 137.37 113.599 138.952 111.301C142.438 106.296 142.819 100.68 142.292 94.8602C142.263 94.5401 142.116 94.1909 141.94 93.5798C141.296 94.8602 140.681 95.8204 140.358 96.8679C139.89 98.4392 139.597 100.069 139.274 101.669C138.952 103.328 137.927 104.288 136.55 104.142C135.173 103.997 134.352 102.891 134.499 101.145C134.733 98.1192 135.495 95.2384 136.96 92.5614C138.015 91.0192 139.391 90.5245 141.266 91.1647C140.681 90.6118 139.977 90.0299 139.391 90.1172C138.161 90.3208 137.253 91.1647 137.077 92.5905ZM39.0218 15.4221C38.7581 19.5832 38.3187 23.5987 38.3187 27.5852C38.3773 37.6531 38.7581 47.7502 38.7581 57.8182C38.7581 63.2013 38.4359 68.5845 37.8792 73.9095C37.5277 77.4013 36.4437 80.8348 35.7406 84.2975C34.9789 87.993 34.9789 91.543 37.6449 94.5983C39.5784 96.8097 41.805 98.672 44.4417 100.011C49.4806 102.6 54.9298 103.793 60.5254 103.735C65.623 103.677 70.7206 103.095 75.8181 102.6C84.4313 101.786 92.3707 98.7884 100.076 94.9765C105.056 92.5032 108.191 88.575 109.07 83.1918C109.685 79.4963 109.978 75.6845 109.978 71.9308C109.949 64.6562 108.074 57.6436 106.052 50.7182C103.562 42.047 103.679 33.4921 107.253 25.1118C108.161 22.9295 109.216 20.8053 110.271 18.5356C109.714 18.5647 109.245 18.5647 108.777 18.6229C103.269 19.2631 97.7612 20.1069 92.2242 20.5434C81.3259 21.4164 70.3983 22.1147 59.4707 21.4455C52.381 21.009 45.2034 20.3688 39.0218 15.4221ZM106.14 14.4328C106.169 14.1709 106.199 13.909 106.228 13.6471C100.779 11.9013 95.4175 9.71889 89.8512 8.52586C83.2009 7.10005 76.4041 6.2853 69.6073 5.64514C63.5136 5.09228 57.3321 5.03408 51.2091 4.94679C48.1037 4.88859 45.2912 6.08162 42.7425 7.82751C41.1604 8.90414 41.0726 9.5152 42.1272 11.1738C43.4456 13.2398 45.5842 14.0836 47.7814 14.7529C52.4396 16.1787 57.2442 16.7315 62.0781 16.7606C68.2597 16.8188 74.4705 16.7897 80.6521 16.4406C89.148 15.9459 97.6147 15.1311 106.14 14.4328ZM6.06329 107.46C4.27621 113.425 4.51058 118.866 7.46952 124.017C7.96756 124.919 9.16872 125.675 10.2234 125.966C13.2702 126.81 17.401 124.948 18.8365 122.125C19.774 120.292 21.0924 119.186 23.0259 118.604C31.7563 115.956 39.6663 111.563 47.5178 107.023C47.635 106.965 47.6936 106.82 47.7522 106.761C45.5549 105.743 43.2405 104.986 41.3069 103.706C39.5491 102.542 38.2308 102.717 36.4437 103.531C30.7016 106.179 24.9302 108.74 19.0709 111.126C16.112 112.319 14.4714 111.097 13.944 107.954C13.7976 107.023 13.5632 106.034 13.153 105.19C12.157 103.037 10.1941 102.833 8.67068 104.463C9.37379 104.928 10.3113 105.219 10.7507 105.888C13.0358 109.147 13.8854 112.93 14.1784 116.829C14.2663 118.051 13.3874 118.924 12.0691 119.012C10.7507 119.128 9.95972 118.401 9.57887 117.208C9.40309 116.655 9.37379 116.073 9.22731 115.491C8.61208 112.814 8.05545 110.108 6.06329 107.46ZM33.7777 64.3653C33.7777 54.0645 33.7777 43.7638 33.7777 33.2593C31.8442 33.3466 30.145 33.463 28.4458 33.5212C27.4497 33.5503 27.0689 34.0159 27.0981 34.9761C27.186 37.0712 27.1567 39.1371 27.2739 41.2322C27.5962 47.5174 28.0649 53.8026 28.27 60.0878C28.4165 64.3944 28.9145 64.9763 33.2797 64.5108C33.3969 64.5108 33.5434 64.4526 33.7777 64.3653ZM33.3383 28.3708C30.2622 28.3708 27.0981 28.3708 23.9341 28.3708C22.3228 28.3708 21.2682 29.2729 21.0045 30.7278C20.5943 32.7937 20.2428 34.9179 20.3307 37.013C20.4479 40.1556 21.0924 43.2691 21.2974 46.4117C21.6783 52.3477 21.8834 58.3128 22.2056 64.278C22.44 68.5263 23.2017 69.312 27.3618 70.0976C29.3833 70.4759 31.3754 70.9706 33.4555 71.4652C33.4555 70.9996 33.4555 70.214 33.4555 69.3993C33.1625 69.4284 32.8988 69.4574 32.6645 69.4574C26.0728 69.6029 23.4361 66.955 23.4654 61.1063C23.4654 60.8153 23.4947 60.5243 23.4654 60.2333C23.2603 56.4215 22.9966 52.6096 22.8209 48.7686C22.6158 44.0256 22.2349 39.2826 22.3521 34.5396C22.4693 30.3204 24.1685 28.9819 28.4458 28.72C30.1157 28.6327 31.7856 28.4872 33.3383 28.3708Z" fill="black"/>
<path d="M97.0586 38.1476C97.2344 32.8227 97.8496 28.487 99.666 24.3842C99.8711 23.9477 100.076 23.4821 100.34 23.1039C101.131 21.9399 102.391 21.5617 103.533 22.1436C104.705 22.7256 105.174 24.0641 104.529 25.4026C102.889 28.7198 102.156 32.2698 102.039 35.9362C101.98 37.8275 102.185 39.6898 102.273 41.5812C102.303 42.105 102.449 42.6287 102.478 43.1525C102.566 44.7238 101.834 45.7713 100.574 45.9459C99.2851 46.1496 98.084 45.364 97.8203 43.9091C97.4102 41.7267 97.2344 39.5152 97.0586 38.1476Z" fill="black"/>
</g>
<defs>
<clipPath id="clip0_173_2655">
<rect width="147.361" height="131" fill="white"/>
</clipPath>
</defs>
</svg>
