<svg width="249" height="179" viewBox="0 0 249 179" fill="none" xmlns="http://www.w3.org/2000/svg">
<g clip-path="url(#clip0_2022_853)">
<path d="M222.985 174.164C225.876 179.383 230.292 178.178 233.745 176.572C235.913 175.529 238.242 172.397 238.483 169.988C239.526 160.513 239.526 150.958 240.329 141.483C241.935 122.533 243.782 103.583 245.709 84.6328C246.673 74.676 248.6 64.7995 249.001 54.8427C249.323 45.5283 244.826 40.7105 235.672 39.1046C228.526 37.9001 221.299 37.4987 214.153 36.4548C193.195 33.4035 172.238 30.1917 151.28 27.1404C142.287 25.7753 133.214 24.4103 124.22 23.1255C121.008 22.6438 118.84 21.5196 118.278 17.826C117.797 14.6944 116.512 11.6431 115.548 8.59185C114.504 5.37998 112.336 3.37257 108.964 2.73019C105.592 2.16812 102.139 1.60604 98.686 1.28485C92.6638 0.803073 86.6415 0.160699 80.6193 0.160699C70.4216 0.0804025 60.3042 0.240996 50.1065 0.642479C46.2523 0.642479 42.5586 2.73019 41.836 6.66473C40.3103 14.5338 36.0546 16.3806 28.4264 16.3003C19.6741 16.1397 15.7395 21.1181 15.5789 29.9508C15.5789 32.7612 14.0533 33.2429 12.0459 33.7247C6.9872 34.9292 6.18424 36.2942 7.0675 41.3529C7.22809 42.3968 7.30839 43.5209 7.30839 44.5648C6.74631 65.7631 6.26453 86.9614 5.46157 108.24C5.22067 115.226 4.25711 122.131 3.37385 129.037C2.41029 136.745 0.804357 144.534 0.0816872 152.403C-0.560686 159.068 2.41029 162.44 9.07491 163.324C14.9366 164.127 20.7982 164.608 26.6599 165.01C38.1423 165.813 49.705 166.134 61.1875 167.178C75.7212 168.543 90.1746 170.791 104.628 171.996C120.527 173.28 136.506 173.682 152.485 174.645C168.946 175.609 185.487 176.251 201.867 177.938C209.495 178.821 216.321 179.142 222.985 174.164Z" fill="white"/>
<path d="M222.985 174.162C216.32 179.14 209.495 178.819 202.027 178.016C185.647 176.33 169.106 175.688 152.645 174.724C136.666 173.761 120.687 173.359 104.788 172.074C90.2542 170.87 75.8008 168.622 61.3474 167.257C49.865 166.213 38.3023 165.811 26.8199 165.089C20.9582 164.687 15.0162 164.205 9.23488 163.402C2.48996 162.439 -0.40072 159.147 0.241653 152.482C0.80373 144.533 2.40966 136.744 3.37322 128.955C4.25649 122.05 5.22005 115.064 5.46094 108.158C6.2639 86.9599 6.74568 65.7616 7.30776 44.4829C7.30776 43.4391 7.30776 42.3149 7.06687 41.2711C6.18361 36.2124 6.98657 34.8473 12.0453 33.6429C14.133 33.1611 15.5783 32.6793 15.5783 29.869C15.6586 21.0363 19.6734 16.1382 28.4258 16.2185C36.054 16.3791 40.3097 14.452 41.8353 6.58292C42.558 2.72868 46.2516 0.640963 50.0256 0.48037C60.143 0.0788865 70.3407 -0.0817069 80.5383 -0.00141021C86.5606 0.0788865 92.5828 0.640963 98.6051 1.12274C102.058 1.44393 105.43 1.92571 108.883 2.56808C112.175 3.13016 114.424 5.21787 115.467 8.42974C116.431 11.481 117.716 14.5323 118.197 17.6639C118.76 21.3575 121.008 22.4817 124.139 22.9634C133.133 24.2482 142.206 25.6132 151.199 26.9783C172.157 30.1098 193.114 33.3217 214.072 36.2927C221.218 37.3365 228.525 37.738 235.591 38.9425C244.745 40.5484 249.322 45.3662 248.92 54.6806C248.519 64.6374 246.672 74.5139 245.628 84.4707C243.701 103.421 241.854 122.371 240.248 141.321C239.445 150.796 239.445 160.351 238.402 169.826C238.161 172.235 235.832 175.367 233.664 176.41C230.292 178.177 225.875 179.381 222.985 174.162ZM17.0237 43.0376C17.3448 80.2953 16.2207 116.911 9.15458 153.446C12.9285 153.927 15.5783 154.329 18.2281 154.57C43.4413 156.738 68.6544 158.986 93.8676 161.074C103.905 161.957 113.942 162.84 123.979 163.402C152.404 165.169 180.749 166.855 209.174 168.461C210.137 168.541 211.743 168.381 211.984 167.819C213.188 165.169 214.634 162.358 214.794 159.628C215.116 153.044 214.875 146.46 214.714 139.875C214.393 128.714 213.911 117.633 213.67 106.472C213.429 94.4275 213.269 82.4633 213.108 70.4188C213.028 66.8054 211.181 65.5207 207.648 65.0389C185.968 62.2285 164.448 58.856 142.768 56.2866C120.125 53.6368 97.4006 51.8702 74.6767 49.6219C59.5006 48.0963 44.2442 46.4904 29.0682 44.8041C25.2942 44.4829 21.5203 43.7603 17.0237 43.0376ZM229.007 167.979C229.248 164.687 229.569 161.636 229.649 158.504C230.693 131.284 231.175 104.063 237.358 77.3243C238.883 70.5794 238.964 63.433 239.205 56.5275C239.365 50.8264 238.08 49.381 232.46 48.4978C225.394 47.4539 218.327 46.9721 211.261 46.0086C193.998 43.5194 176.734 41.0302 159.55 38.2198C146.221 36.0518 132.892 33.6429 119.643 31.234C113.54 30.1098 109.847 26.5768 108.803 20.3939C108.401 18.1456 107.919 15.817 106.956 13.8096C106.394 12.6052 104.868 11.1598 103.664 11.1598C89.2907 10.3569 74.9979 9.87508 60.6248 9.23271C54.3616 8.91152 49.865 10.0357 47.9379 17.5033C46.1713 24.5694 42.7186 25.9344 35.1707 25.8541C33.1633 25.8541 31.1559 25.9344 29.1485 26.0147C26.8199 26.095 25.2942 26.9783 25.4548 29.7084C25.6154 32.1976 25.5351 34.6065 28.9879 35.0079C33.083 35.4897 37.1781 36.4533 41.3535 36.8548C55.0843 38.1395 68.8953 39.1834 82.626 40.6287C105.511 43.0376 128.395 45.5268 151.28 48.2569C171.675 50.6658 191.99 53.4762 212.385 55.9654C218.006 56.688 221.459 59.8196 222.101 65.1192C223.226 75.2366 224.028 85.4342 224.35 95.5516C224.591 106.793 223.948 118.035 223.948 129.276C224.028 139.875 224.51 150.475 224.751 161.074C224.831 163.723 224.43 166.293 224.269 169.103C226.036 168.622 227.321 168.381 229.007 167.979Z" fill="black"/>
<path d="M17.0232 43.0381C21.5198 43.7608 25.2937 44.4834 29.1479 44.8849C44.324 46.5711 59.5804 48.1771 74.7565 49.7027C97.4804 51.951 120.204 53.7978 142.848 56.3673C164.528 58.8565 186.128 62.229 207.728 65.1197C211.261 65.6015 213.108 66.8059 213.188 70.4996C213.349 82.5441 213.429 94.5083 213.75 106.553C213.991 117.714 214.473 128.795 214.794 139.956C214.954 146.541 215.195 153.125 214.874 159.709C214.714 162.52 213.268 165.25 212.064 167.899C211.823 168.461 210.217 168.542 209.253 168.542C180.828 166.856 152.484 165.25 124.059 163.483C114.022 162.841 103.984 161.957 93.9474 161.155C68.7342 158.986 43.5211 156.818 18.3079 154.65C15.6581 154.41 13.0083 154.008 9.23438 153.526C16.2202 116.911 17.3443 80.2957 17.0232 43.0381ZM126.146 134.335C130.884 133.613 135.782 133.211 140.359 132.007C148.71 129.839 154.411 124.218 154.732 118.035C155.133 109.845 149.834 105.188 143.25 102.136C137.709 99.5669 131.767 97.8004 125.986 95.6324C123.497 94.6688 120.927 93.7856 118.598 92.5811C116.43 91.457 115.868 89.6905 118.358 88.4057C122.131 86.4786 125.986 84.5515 130.402 87.3619C131.687 88.1648 134.738 87.8436 135.702 86.8801C136.906 85.6756 137.709 82.3032 136.906 81.3396C135.059 79.1716 132.409 77.0839 129.679 76.4415C124.3 75.2371 119.08 76.6824 114.182 79.2519C109.766 81.5805 106.554 84.953 106.554 90.1722C106.474 95.3915 109.284 99.1655 113.861 101.333C117.795 103.261 122.051 104.545 126.146 106.232C131.125 108.239 136.264 109.845 140.921 112.414C146.22 115.305 146.06 119.32 140.6 121.327C131.285 124.78 121.65 126.145 112.255 121.086C109.364 119.561 106.634 118.838 104.466 121.97C102.7 124.379 103.904 127.43 107.277 129.678C112.897 133.532 119.401 134.095 126.146 134.335ZM51.5507 103.662C53.1567 108.881 54.2005 114.984 56.8503 120.203C61.5878 129.437 71.5446 131.364 79.494 124.7C92.0202 114.181 94.1882 99.3261 94.9109 84.2303C94.9912 82.8652 92.3414 80.4563 90.5749 79.9746C87.9251 79.3322 86.0783 81.4199 85.5965 84.0697C85.195 86.1574 85.0344 88.3254 84.7132 90.4934C83.5088 98.3625 82.1438 106.151 77.2457 112.816C74.9973 115.867 72.4279 119.481 68.2524 118.437C64.2376 117.473 63.5952 113.137 63.1134 109.604C61.909 100.45 62.5514 91.457 66.6465 83.0258C67.7706 80.6972 65.6026 77.4854 62.7923 77.1642C59.8213 76.843 57.6533 78.3686 56.9306 81.0184C54.9232 88.1648 53.3975 95.3915 51.5507 103.662Z" fill="white"/>
<path d="M229.005 167.979C227.319 168.381 226.034 168.702 224.348 169.103C224.508 166.373 224.91 163.724 224.829 161.074C224.589 150.475 224.026 139.875 224.026 129.276C223.946 118.035 224.669 106.793 224.428 95.5517C224.187 85.354 223.304 75.2366 222.18 65.1193C221.618 59.8197 218.084 56.6078 212.464 55.9654C192.068 53.4762 171.753 50.6659 151.358 48.257C128.473 45.5269 105.589 43.0377 82.7043 40.6288C68.9736 39.1834 55.1625 38.2199 41.4318 36.8548C37.3367 36.4534 33.2415 35.4898 29.0661 35.008C25.6134 34.6065 25.6936 32.1976 25.5331 29.7084C25.3725 26.9783 26.8981 26.1754 29.2267 26.0148C31.2341 25.9345 33.2415 25.8542 35.249 25.8542C42.7968 25.9345 46.2496 24.5694 48.0161 17.5033C49.8629 10.0357 54.4399 8.91159 60.703 9.23278C75.0761 9.87515 89.3689 10.4372 103.742 11.1599C104.946 11.2402 106.472 12.6855 107.034 13.8097C107.998 15.8171 108.48 18.1457 108.881 20.394C110.005 26.5769 113.699 30.1099 119.721 31.2341C133.05 33.643 146.299 36.0519 159.628 38.2199C176.812 40.95 194.076 43.5195 211.34 46.0087C218.406 47.0525 225.472 47.454 232.538 48.4979C238.159 49.3008 239.443 50.7462 239.283 56.5275C239.042 63.5133 238.962 70.6597 237.436 77.3244C231.253 104.063 230.771 131.284 229.728 158.504C229.567 161.636 229.246 164.687 229.005 167.979Z" fill="#9747FF"/>
</g>
<defs>
<clipPath id="clip0_2022_853">
<rect width="249" height="178.5" fill="white"/>
</clipPath>
</defs>
</svg>
