<svg width="274" height="153" viewBox="0 0 274 153" fill="none" xmlns="http://www.w3.org/2000/svg">
<g clip-path="url(#clip0_173_2664)">
<ellipse cx="151.5" cy="111.127" rx="36" ry="34" fill="#9747FF"/>
<path d="M11.3809 78.2429C14.4468 78.2429 17.5547 78.2429 20.7046 78.2429C49.3055 78.4529 77.9483 78.8309 106.549 78.7889C116.881 78.7889 127.254 78.1589 137.586 77.361C150.899 76.353 164.171 74.8411 177.484 73.5391C178.996 73.3711 180.13 73.7911 180.844 75.0931C182.314 77.781 184.078 80.3849 185.044 83.2827C190.672 99.7461 188.026 114.992 177.694 128.935C170.555 138.553 161.231 143.424 149.01 142.752C136.032 142.038 124.567 133.639 120.241 121.417C118.141 115.411 120.241 104.24 127.842 100.124C136.494 95.4203 145.398 94.7903 154.637 97.6462C161.861 99.8721 165.515 105.458 164.969 113.018C164.759 115.915 164.087 118.813 161.315 120.451C157.199 122.929 151.151 121.921 148.044 118.309C147.12 117.259 146.658 115.789 145.776 114.11C147.204 114.194 147.876 114.236 148.59 114.278C151.865 114.404 154.721 112.052 155.099 108.944C155.477 105.878 153.755 103.778 150.186 103.022C149.556 102.896 148.926 102.812 148.338 102.812C143.214 102.77 139.266 104.954 136.662 109.322C133.89 113.942 134.436 118.561 137.04 123.055C141.114 130.111 150.354 134.269 159.299 133.135C165.011 132.421 169.715 130.069 172.655 124.861C179.794 112.178 174.797 95.3363 161.441 89.6245C148.17 83.9547 134.772 84.7107 122.005 91.5564C117.637 93.9083 114.109 97.3522 112.009 102.014C107.557 111.716 107.431 121.333 112.597 130.825C119.863 144.264 130.992 151.782 146.28 152.79C157.745 153.588 168.665 151.698 177.694 144.18C200.29 125.491 203.523 96.0082 191.05 72.1112C190.462 70.9772 190 70.2213 191.05 69.0033C200.626 58.0417 210.117 46.9962 219.693 36.0346C222.801 32.4647 226.371 29.4408 230.738 27.5089C239.054 23.8551 247.286 23.8551 254.929 29.0209C259.045 31.7928 262.699 35.3206 262.531 41.0744C262.447 44.4343 264.295 46.7442 267.193 46.9962C270.301 47.2902 272.695 45.3162 273.157 41.8304C273.829 36.7906 272.317 32.2547 269.293 28.2649C260.263 16.2534 248.126 12.3055 233.678 15.2454C224.397 17.1353 217.131 22.5531 211.041 29.5668C201.885 40.0664 192.814 50.608 183.616 61.0656C182.86 61.9476 181.474 62.4096 180.298 62.7875C179.248 63.1235 178.072 63.1235 176.98 63.2075C160.391 64.5935 143.802 66.1474 127.17 67.1974C115.663 67.9113 104.071 68.5413 92.5638 68.0373C69.5487 66.9874 46.5336 66.9454 23.5185 67.3654C22.3005 67.3654 21.0826 67.3654 19.4446 67.3654C20.0746 66.5674 20.4106 66.1054 20.8306 65.6434C28.7263 56.9498 36.6639 48.2561 44.5596 39.5625C53.7993 29.4408 64.0469 20.6212 76.5204 14.7414C82.0222 12.1375 87.65 9.78562 93.8657 9.40763C98.0236 9.19764 99.6195 10.4156 100.417 14.5314C100.837 16.7153 100.963 18.9833 101.383 21.1672C101.971 24.401 104.659 25.787 107.683 24.611C110.539 23.4771 112.471 20.6212 112.345 17.5553C112.261 16.0014 112.051 14.4894 111.841 12.9775C110.917 6.34175 107.095 2.26791 100.627 0.75597C98.6115 0.293988 96.4696 0 94.4117 0C85.0041 0.0419984 76.4364 3.14988 68.2467 7.47571C56.8232 13.4815 47.2475 21.7971 38.4279 31.1208C27.6343 42.5863 16.8827 54.0519 6.08914 65.5174C5.54316 66.1054 4.82919 66.6514 4.11522 66.9454C1.46932 68.0373 0.209372 70.0953 0.0833768 72.7832C-0.000619959 74.5051 0.125375 76.269 0.293369 78.033C1.17533 87.2726 2.22529 96.5122 3.02326 105.794C3.98922 117.217 4.6612 128.683 5.54316 140.107C5.96315 145.608 9.32302 148.548 14.8248 148.59C15.8748 148.59 16.9247 148.548 17.9747 148.464C26.5423 147.834 35.11 147.12 43.7197 146.532C53.1273 145.902 62.5769 145.44 71.9846 144.852C77.1924 144.516 79.6703 142.542 81.2242 137.503C81.5602 136.369 81.8542 135.193 82.0642 134.059C84.2901 121.249 84.5421 108.314 84.0381 95.3363C83.7861 89.1205 81.2662 86.4326 75.2604 85.4667C61.233 83.1988 47.0795 83.8707 32.9261 83.9967C28.7683 84.0387 25.3244 85.8447 23.8544 89.9185C20.7886 98.6122 18.8566 107.558 18.6887 116.797C18.6047 120.535 20.6206 123.181 23.9804 124.273C25.3664 124.735 26.8363 125.029 28.3063 125.071C35.992 125.365 43.6777 125.617 51.4054 125.827C60.015 126.079 67.0708 117.007 64.8448 108.566C64.2149 106.214 62.199 104.534 59.847 104.492C57.5371 104.45 55.3952 106.004 54.7232 108.398C54.4713 109.28 54.3873 110.162 54.3033 111.086C53.9253 114.572 53.4633 114.992 50.0194 114.908C49.3895 114.908 48.7595 114.866 48.1295 114.866C42.3337 114.866 36.538 114.866 30.8262 114.866C30.6582 114.026 30.5322 113.732 30.5322 113.48C31.3722 107.684 32.2541 101.888 33.0941 96.0502C33.3041 94.7063 34.1441 94.6223 35.194 94.6643C41.6198 94.7063 48.0875 94.6223 54.5133 94.7903C60.015 94.9163 65.5588 95.3363 71.0606 95.6303C72.4045 95.7143 73.4125 96.0083 73.4545 97.7722C73.7065 108.986 73.3705 120.157 71.6066 131.245C71.3966 132.631 70.7246 133.093 69.4227 133.219C61.149 133.933 52.8333 134.647 44.5596 135.403C35.992 136.159 27.4243 136.915 18.8566 137.629C17.9747 137.713 17.0927 137.713 15.7068 137.797C14.1948 117.973 12.8089 98.2342 11.3809 78.2429Z" fill="white"/>
<path d="M11.3829 78.2429C12.8108 98.2342 14.1968 117.931 15.6247 137.881C17.0107 137.797 17.8926 137.797 18.7746 137.713C27.3423 136.957 35.9099 136.243 44.4776 135.487C52.7513 134.773 61.067 134.017 69.3406 133.303C70.6426 133.177 71.3146 132.715 71.5246 131.329C73.2885 120.241 73.6245 109.07 73.3725 97.8562C73.3305 96.0922 72.3225 95.7983 70.9786 95.7143C65.4768 95.4203 59.933 95.0003 54.4312 94.8743C48.0055 94.7063 41.5377 94.7903 35.112 94.7483C34.062 94.7483 33.18 94.8323 33.0121 96.1342C32.1721 101.93 31.2901 107.726 30.4502 113.564C30.4082 113.816 30.5342 114.068 30.7441 114.95C36.4979 114.95 42.2937 114.95 48.0475 114.95C48.6774 114.95 49.3074 114.992 49.9374 114.992C53.3393 115.076 53.8013 114.656 54.2212 111.17C54.3052 110.288 54.3892 109.364 54.6412 108.482C55.3132 106.088 57.4551 104.534 59.765 104.576C62.1169 104.618 64.1328 106.298 64.7628 108.65C66.9887 117.091 59.933 126.121 51.3233 125.911C43.6376 125.701 35.9519 125.449 28.2242 125.155C26.7963 125.113 25.2844 124.819 23.8984 124.357C20.4965 123.265 18.5226 120.577 18.6066 116.881C18.7746 107.642 20.7065 98.6961 23.7724 90.0025C25.2424 85.8867 28.6862 84.0807 32.8441 84.0807C46.9555 83.9547 61.109 83.2827 75.1784 85.5507C81.2262 86.5166 83.7041 89.2045 83.9561 95.4203C84.4601 108.356 84.2081 121.291 81.9821 134.143C81.7722 135.319 81.4782 136.495 81.1422 137.587C79.5882 142.626 77.1103 144.6 71.9025 144.936C62.4949 145.524 53.0453 145.986 43.6376 146.616C35.07 147.204 26.5023 147.918 17.8926 148.548C16.8427 148.632 15.7927 148.674 14.7428 148.674C9.24098 148.632 5.92311 145.692 5.46113 140.191C4.57917 128.767 3.8652 117.301 2.94123 105.878C2.18526 96.5962 1.1353 87.3566 0.211337 78.117C0.0433439 76.395 -0.0826512 74.6311 0.00134551 72.8672C0.127341 70.1373 1.38729 68.0793 4.03319 67.0294C4.78916 66.7354 5.46113 66.1894 6.00711 65.6014C16.8007 54.1359 27.5523 42.6283 38.3459 31.2048C47.1235 21.8811 56.7411 13.6075 68.1647 7.5597C76.3964 3.14988 84.964 0.0419984 94.3717 0C96.4296 0 98.5715 0.25199 100.587 0.75597C107.097 2.26791 110.919 6.34175 111.843 13.0195C112.053 14.5314 112.263 16.0854 112.347 17.5973C112.515 20.6632 110.541 23.5611 107.685 24.653C104.619 25.871 101.973 24.443 101.385 21.2092C100.965 19.0253 100.839 16.7573 100.419 14.5734C99.5795 10.4576 98.0255 9.23964 93.8677 9.44963C87.6519 9.78562 82.0241 12.1795 76.5224 14.7834C64.0069 20.6632 53.7592 29.4828 44.5616 39.6045C36.6239 48.2981 28.7282 56.9918 20.8325 65.6854C20.4125 66.1474 20.0766 66.6094 19.4466 67.4074C21.0425 67.4074 22.2605 67.4074 23.5204 67.4074C46.5355 67.0294 69.5506 67.0294 92.5657 68.0793C104.073 68.6253 115.665 67.9533 127.172 67.2394C143.804 66.1894 160.351 64.5935 176.982 63.2495C178.116 63.1655 179.25 63.1655 180.3 62.8295C181.476 62.4516 182.82 61.9896 183.618 61.1076C192.816 50.65 201.887 40.0664 211.043 29.6088C217.175 22.5951 224.399 17.1773 233.68 15.2874C248.128 12.3475 260.265 16.2954 269.295 28.3069C272.277 32.2967 273.831 36.8326 273.159 41.8724C272.697 45.3582 270.303 47.3321 267.195 47.0382C264.339 46.7442 262.449 44.4763 262.533 41.1164C262.701 35.3626 259.047 31.8348 254.931 29.0629C247.288 23.8971 239.056 23.8971 230.74 27.5509C226.373 29.4828 222.803 32.5067 219.695 36.0766C210.119 47.0382 200.628 58.0837 191.052 69.0453C190.002 70.2633 190.464 71.0192 191.052 72.1532C203.525 96.0922 200.334 125.533 177.696 144.222C168.625 151.698 157.747 153.588 146.282 152.832C130.952 151.782 119.865 144.264 112.599 130.867C107.433 121.333 107.601 111.716 112.011 102.056C114.111 97.4362 117.639 93.9503 122.007 91.5984C134.816 84.7527 148.214 83.9967 161.443 89.6665C174.715 95.3363 179.754 112.22 172.615 124.861C169.675 130.069 164.971 132.421 159.259 133.135C150.313 134.269 141.074 130.111 137 123.055C134.396 118.561 133.85 113.9 136.622 109.322C139.226 104.954 143.174 102.77 148.298 102.812C148.928 102.812 149.558 102.896 150.145 103.022C153.715 103.778 155.437 105.878 155.059 108.944C154.681 112.052 151.825 114.404 148.55 114.278C147.878 114.236 147.164 114.194 145.736 114.11C146.618 115.789 147.08 117.217 148.004 118.309C151.111 121.963 157.159 122.929 161.275 120.451C164.047 118.813 164.719 115.915 164.929 113.018C165.475 105.458 161.821 99.9141 154.597 97.6462C145.4 94.7903 136.454 95.4203 127.802 100.124C120.201 104.24 118.101 115.411 120.201 121.417C124.526 133.639 135.992 142.038 148.97 142.752C161.233 143.424 170.515 138.595 177.654 128.935C187.986 114.992 190.632 99.7461 185.004 83.2827C184.038 80.4269 182.274 77.781 180.804 75.0931C180.09 73.7911 178.956 73.4131 177.444 73.5391C164.173 74.8831 150.859 76.353 137.546 77.361C127.214 78.1589 116.841 78.7889 106.509 78.7889C77.9083 78.7889 49.2654 78.4529 20.6645 78.2429C17.5567 78.2429 14.4488 78.2429 11.3829 78.2429Z" fill="black"/>
</g>
<defs>
<clipPath id="clip0_173_2664">
<rect width="273.241" height="153" fill="white"/>
</clipPath>
</defs>
</svg>
