<svg width="190" height="235" viewBox="0 0 190 235" fill="none" xmlns="http://www.w3.org/2000/svg">
<g clip-path="url(#clip0_2022_525)">
<path d="M2.17044 142.064C1.47985 142.064 0.789253 142.064 0 142.064C0 164.558 0.0986566 186.953 0 209.447C0 216.649 3.05835 221.483 9.767 223.851C13.9106 225.33 18.2515 226.909 22.5924 227.205C54.5571 229.671 86.6205 232.039 118.684 234.111C127.859 234.703 137.133 234.801 146.406 234.9C155.581 234.999 164.855 235.097 174.03 234.407C180.147 234.012 182.909 230.855 183.403 224.738C183.995 217.536 184.29 210.236 183.896 203.034C181.725 162.979 181.331 123.023 186.757 83.0675C188.631 69.5516 188.829 55.7397 189.815 42.125C190.309 35.4164 188.138 29.9903 183.008 25.4521C177.779 20.9139 172.748 16.0797 168.209 10.8509C160.909 2.36643 151.931 -0.59327 140.882 -0.00133023C121.644 1.08389 102.406 1.57718 83.1675 2.07046C71.3287 2.36643 59.3913 2.07046 47.5525 1.9718C43.1129 1.9718 38.6734 1.47852 34.2338 1.67583C28.8077 1.9718 23.4803 3.05702 18.0542 3.35299C10.2603 3.74762 6.60999 6.41135 6.01805 14.2052C4.5382 34.0352 2.86104 53.8652 2.36776 73.7938C1.67716 96.4848 2.17044 119.275 2.17044 142.064Z" fill="white"/>
<path d="M0.5 131.999C0.5 109.209 1.67716 96.4848 2.2691 73.6951C2.86104 53.7665 4.5382 33.9365 6.01805 14.1065C6.60999 6.41132 10.2603 3.64894 18.0542 3.25431C23.4803 3.057 28.8077 1.97178 34.2338 1.77446C38.6734 1.57715 43.1129 2.07043 47.5525 2.07043C59.3913 2.16909 71.3287 2.46506 83.1675 2.16909C102.406 1.67581 121.644 1.18253 140.882 0.0973026C151.833 -0.494637 160.909 2.46506 168.21 10.9495C172.748 16.1783 177.779 21.0125 183.008 25.5507C188.138 30.0889 190.309 35.515 189.815 42.2237C188.829 55.8383 188.533 69.6502 186.757 83.1662C181.331 123.122 181.725 163.078 183.896 203.133C184.291 210.335 183.995 217.635 183.403 224.837C182.909 230.954 180.147 234.012 174.03 234.505C164.855 235.196 155.581 234.999 146.406 234.999C137.133 234.9 127.958 234.801 118.684 234.209C86.6205 232.039 54.6558 229.77 22.5924 227.303C18.2515 227.007 13.9106 225.33 9.767 223.949C3.05835 221.581 0 216.747 0 209.545C0.0986566 187.052 0.5 164.493 0.5 141.999C0.5 140.499 0.5 133.999 0.5 131.999ZM140.092 13.3173C99.0512 13.9092 58.7007 14.5012 17.9555 15.0931C16.673 33.1473 14.8971 50.0175 14.5025 66.8878C13.4173 110.593 12.8254 154.298 12.1348 198.101C11.9374 212.9 11.9374 213.689 26.7359 215.366C49.131 217.931 71.6247 219.707 94.1184 220.989C115.823 222.272 137.626 222.568 159.33 223.16C161.797 223.259 164.263 223.061 166.73 223.16C170.084 223.259 171.958 222.173 171.761 218.326C171.564 214.675 171.761 211.025 171.662 207.473C170.38 171.562 168.012 135.75 173.044 99.8391C175.214 84.35 175.707 68.6636 176.99 52.9772C177.089 51.7934 176.99 50.6095 176.99 48.9323C173.241 50.3135 170.183 51.5961 167.026 52.484C159.922 54.4571 152.819 56.8248 145.518 57.8114C135.751 58.9953 132.496 54.8517 134.173 45.282C136.245 34.5285 138.218 23.8735 140.092 13.3173ZM173.734 37.2908C166.927 29.6943 160.12 21.9991 152.622 13.5146C150.55 24.5641 148.675 34.7258 146.505 46.3672C157.061 42.8156 166.236 39.7573 173.734 37.2908Z" fill="black"/>
<path d="M140.092 13.3184C138.218 23.8746 136.244 34.5295 134.37 45.2831C132.693 54.8528 135.948 58.9964 145.715 57.8125C153.016 56.9246 160.119 54.4582 167.223 52.485C170.38 51.5971 173.438 50.3146 177.187 48.9334C177.187 50.6105 177.286 51.7944 177.187 52.9783C175.904 68.5661 175.411 84.3511 173.241 99.8402C168.209 135.653 170.577 171.564 171.859 207.475C171.958 211.125 171.761 214.775 171.958 218.327C172.155 222.076 170.281 223.26 166.927 223.161C164.46 223.062 161.994 223.26 159.527 223.161C137.724 222.47 116.02 222.174 94.3153 220.99C71.8216 219.708 49.3279 217.932 26.9329 215.367C12.1344 213.69 12.1344 212.901 12.3317 198.102C13.0223 154.397 13.6142 110.692 14.6995 66.8889C15.0941 50.0186 16.8699 33.1483 18.1524 15.0942C58.7003 14.5022 99.0508 13.9103 140.092 13.3184ZM75.3733 117.105C75.7679 117.204 76.0639 117.204 76.4585 117.302C76.4585 127.563 76.3598 137.724 76.4585 147.985C76.4585 153.115 78.8262 156.074 82.5752 156.074C86.4228 156.074 88.5933 153.312 88.5933 148.083C88.5933 135.159 88.5933 122.334 88.1 109.41C87.9027 103.589 86.9161 97.5711 85.1403 91.9477C84.4497 89.6786 80.7994 87.1135 78.333 86.9162C76.0639 86.7189 73.1042 89.0866 71.3284 91.1584C69.7498 92.8356 69.2566 95.598 68.4673 97.9657C67.2834 101.221 66.1982 104.576 64.7184 109.015C63.1399 104.773 62.1533 101.715 60.9694 98.6563C59.3909 94.6114 57.2205 91.0597 52.0903 91.4544C47.2561 91.849 45.4803 95.4993 44.6911 99.5442C42.6193 110.594 40.4488 121.545 38.8703 132.693C38.1797 137.724 38.2784 142.854 38.7717 147.886C39.1663 151.536 41.9287 153.805 45.7763 153.115C49.5252 152.523 50.6105 149.662 50.6105 146.209C50.6105 142.46 50.5118 138.612 50.8078 134.863C51.3011 129.339 52.2876 123.814 52.9782 118.289C55.1487 121.545 55.9379 124.702 56.9245 127.859C58.0097 131.312 59.6869 134.37 63.9291 134.37C68.0727 134.469 70.1445 131.706 71.427 128.253C72.9069 124.504 74.0907 120.755 75.3733 117.105ZM115.132 118.289C115.526 113.257 116.118 108.818 116.118 104.378C116.118 100.629 117.894 99.5442 121.347 99.6429C126.477 99.8402 131.608 99.9388 136.639 99.7415C140.191 99.6429 142.756 97.8671 142.854 94.0195C142.953 90.1718 140.388 88.0014 137.034 87.9027C128.845 87.7054 120.558 87.9027 112.369 88.396C107.93 88.692 105.365 91.7503 104.872 96.2886C104.082 104.28 102.8 112.37 102.602 120.361C102.208 132.101 98.4589 143.644 102.011 155.581C103.589 160.711 104.773 161.994 110.89 161.501C120.558 160.81 130.226 160.514 139.993 160.119C141.966 160.021 143.94 160.613 145.913 160.415C149.168 160.119 151.635 158.541 151.832 154.891C152.029 151.339 150.056 149.267 146.801 148.675C144.236 148.182 141.572 147.886 138.908 147.886C130.226 147.787 121.643 147.886 112.567 147.886C112.961 142.558 113.455 136.935 113.948 131.312C117.598 130.917 120.558 130.621 123.518 130.128C127.069 129.536 129.24 127.464 129.042 123.715C128.746 120.163 126.379 118.585 123.024 118.289C120.558 118.19 118.092 118.289 115.132 118.289Z" fill="white"/>
<path d="M173.733 37.2909C166.235 39.7573 156.962 42.9143 146.504 46.3673C148.674 34.8245 150.549 24.5642 152.621 13.5146C160.119 21.9991 167.024 29.6943 173.733 37.2909Z" fill="#9747FF"/>
</g>
<defs>
<clipPath id="clip0_2022_525">
<rect width="189.914" height="235" fill="white"/>
</clipPath>
</defs>
</svg>
