<svg width="287" height="328" viewBox="0 0 287 328" fill="none" xmlns="http://www.w3.org/2000/svg">
<path d="M55.7724 88.2818C50.4668 82.671 46.5758 82.5612 41.5736 88.5C38.7617 91.8269 36.2332 95.769 34.6862 99.8185C31.2485 108.71 27.8167 117.654 25.5496 126.901C19.9768 149.657 15.2908 172.639 9.71802 195.396C4.68549 215.723 1.34408 236.24 0.196315 257.108C-0.404819 268.272 0.224151 279.355 4.91057 289.613C10.9427 302.794 20.573 312.938 33.7252 319.354C44.6548 324.669 56.4747 326.329 68.4073 327.546C79.9082 328.756 90.9032 326.844 101.109 321.678C107.741 318.307 114.208 314.416 120.308 310.134C136.965 298.493 153.812 287.1 171.248 276.666C189.193 265.961 206.306 254.054 221.333 239.36C223.423 237.298 225.967 235.455 223.416 231.857C230.593 233.436 234.663 231.749 238.229 225.968C239.377 224.172 240.408 222.28 241.267 220.3C246.777 208.217 252.849 196.342 257.626 183.963C262.824 170.514 266.846 156.656 271.364 142.905C273.06 137.762 274.531 132.536 276.28 127.386C278.634 120.393 281.65 113.541 283.56 106.435C286.574 95.1662 288.453 83.3761 285.158 72.0487C280.058 54.6168 269.774 40.5038 252.726 32.955C243.493 28.8547 233.792 25.3986 223.953 23.1428C203.987 18.4476 183.748 14.6984 163.58 10.6181C148.752 7.56554 133.917 4.45974 119.059 1.62594C111.573 0.188294 104.034 -0.758569 96.4752 1.04438C89.8033 2.5879 87.1629 6.00366 87.6951 12.787C87.7127 12.9467 87.5115 13.0766 87.4285 13.3013C86.8488 13.419 86.2633 13.4836 85.6364 13.6604C79.5202 15.3582 74.4673 18.3934 73.1013 25.0627C71.7178 31.5724 76.2919 34.9472 80.8485 38.1622C82.2492 39.1392 83.7505 40.0512 85.4881 41.1527C82.6314 41.6292 80.1888 41.9523 77.8288 42.5357C66.6438 45.1693 62.9739 55.8638 70.6365 64.2855C73.6436 67.6175 77.5326 70.152 81.0782 72.9936C82.4374 74.0829 84.0334 74.8767 85.4814 75.7946C83.499 77.36 81.6645 78.8013 79.7353 80.3608C79.4461 79.6923 79.1628 79.077 78.8204 78.4144C76.3234 73.3561 70.3464 71.4289 65.6896 74.6359C63.2872 76.3015 61.4163 78.8782 59.6342 81.2834C58.0356 83.3991 57.0163 85.8819 55.7724 88.2818Z" fill="white"/>
<path d="M55.7724 88.2818C57.0754 85.9293 58.0889 83.3932 59.6342 81.2834C61.4163 78.8782 63.2872 76.3015 65.6896 74.6359C70.2873 71.3816 76.3234 73.3561 78.8204 78.4144C79.1037 79.0297 79.3929 79.6982 79.7353 80.3608C81.6704 78.8545 83.499 77.36 85.4814 75.7946C84.0334 74.8767 82.4374 74.0829 81.0782 72.9936C77.5384 70.2052 73.6436 67.6175 70.6365 64.2855C63.0272 55.8579 66.697 45.1634 77.8288 42.5357C80.242 41.9464 82.6905 41.6765 85.4881 41.1527C83.7505 40.0512 82.2492 39.1392 80.8485 38.1622C76.2919 34.9472 71.7178 31.5724 73.1013 25.0627C74.5264 18.4407 79.5734 15.3523 85.6364 13.6604C86.2101 13.4895 86.8488 13.419 87.4285 13.3013C87.5647 13.0708 87.7127 12.9467 87.6951 12.787C87.1629 6.00366 89.8092 2.64113 96.4752 1.04438C104.034 -0.758569 111.573 0.18837 119.005 1.63188C133.917 4.45981 148.698 7.57149 163.526 10.6241C183.747 14.6985 203.986 18.4477 224.006 23.137C233.85 25.446 243.545 28.8489 252.779 32.9492C269.833 40.5513 280.11 54.611 285.21 72.0429C288.559 83.3644 286.68 95.1545 283.613 106.429C281.703 113.536 278.74 120.381 276.333 127.381C274.584 132.53 273.113 137.756 271.417 142.899C266.893 156.597 262.877 170.509 257.679 183.957C252.902 196.336 246.83 208.211 241.32 220.294C240.455 222.221 239.424 224.113 238.281 225.963C234.663 231.749 230.593 233.437 223.468 231.851C225.967 235.455 223.428 237.351 221.386 239.354C206.359 254.048 189.246 265.955 171.301 276.66C153.811 287.1 137.018 298.487 120.361 310.128C114.26 314.41 107.793 318.302 101.161 321.673C90.9558 326.838 79.9607 328.75 68.4598 327.54C56.5213 326.27 44.7074 324.663 33.7778 319.349C20.6256 312.933 11.0544 302.836 4.96312 289.608C0.276699 279.349 -0.35227 268.267 0.248864 257.102C1.39663 236.234 4.73872 215.717 9.71802 195.396C15.2908 172.639 19.9768 149.657 25.5496 126.901C27.8167 117.654 31.2485 108.71 34.6862 99.8185C36.2864 95.7632 38.7617 91.8269 41.5736 88.5C46.5699 82.508 50.4136 82.6769 55.7724 88.2818ZM219.387 232.463C219.299 232.149 219.21 231.836 219.122 231.522C217.325 230.858 215.522 229.656 213.742 229.637C208.503 229.514 203.181 229.131 198.112 230.067C181.486 233.192 164.937 237.01 148.323 240.242C140.728 241.726 133.04 242.842 125.304 243.534C119.171 244.102 116.388 241.338 115.98 235.187C115.624 229.516 115.475 223.768 115.332 218.073C115.076 206.949 114.382 195.766 114.717 184.631C115.266 165.66 116.737 146.75 117.392 127.768C117.702 118.359 117.249 108.874 116.749 99.4469C116.627 96.8744 115.252 94.1707 113.716 91.9694C112.121 89.7209 110.643 89.9916 109.127 92.3676C106.314 96.6643 105.02 101.548 104.762 106.533C104.275 115.799 104.326 125.06 103.892 134.32C103.416 144.178 102.621 154.07 101.873 163.904C101.652 166.784 100.095 168.302 98.0431 168.259C95.8788 168.174 94.331 166.352 94.3927 163.489C94.9201 148.724 95.3884 133.91 96.1878 119.169C96.6204 111.363 98.4604 103.618 95.9362 95.8687C94.8096 92.491 94.0913 88.9068 92.308 85.9247C89.6567 81.4222 86.6643 81.6443 84.7145 86.4385C83.0967 90.3341 81.8925 94.5613 81.3271 98.7181C80.4523 104.956 80.6773 111.396 79.7493 117.64C77.1141 135.278 74.2011 152.839 71.3413 170.394C70.6992 174.344 69.2607 175.957 66.9191 175.73C64.6308 175.498 63.2842 173.545 63.4473 169.648C63.6481 163.161 63.6243 156.591 64.6411 150.176C67.3345 133.555 70.5246 117.041 73.6556 100.48C74.8082 94.3186 74.784 88.2334 72.9915 82.2355C72.2308 79.7334 70.5221 79.383 68.4982 81.0607C67.9537 81.4978 67.421 82.0414 67.0539 82.6206C62.423 89.973 58.531 97.6751 57.7841 106.539C57.3238 112.139 57.0291 117.774 56.1313 123.314C53.0049 141.384 49.6598 159.423 46.3146 177.463C45.9047 179.609 44.7266 181.139 42.3259 180.865C40.2563 180.662 39.0161 178.698 39.3557 175.913C40.9292 161.84 42.1716 147.696 44.295 133.724C45.8295 123.696 48.5702 113.858 50.7078 103.925C51.6282 99.5673 51.2711 95.3506 49.1756 91.0023C45.3533 93.4708 43.2568 96.9343 41.8875 100.641C38.4851 109.851 34.8047 118.985 32.4014 128.462C27.8618 146.418 24.3745 164.635 20.1128 182.667C16.0468 200.032 11.2594 217.207 9.28648 234.987C7.6832 249.279 5.95587 263.423 8.7818 277.819C11.4137 290.944 17.5666 301.31 28.9321 308.623C44.2988 318.512 61.3928 321.1 79.1221 320.654C89.0631 320.42 98.0553 316.466 106.357 311.133C119.433 302.688 132.563 294.237 145.444 285.49C154.22 279.567 163.597 274.708 171.965 268.021C180.433 261.269 190.083 255.95 198.799 249.494C205.823 244.302 212.481 238.234 219.387 232.463ZM124.438 117.886C125.686 117.964 126.703 117.906 127.637 118.072C141.213 120.509 154.794 122.999 168.417 125.376C182.702 127.896 196.584 131.645 210.175 136.666C219.273 140.027 225.53 145.964 229.514 154.737C234.584 166.031 234.095 177.722 231.932 189.381C230.346 197.961 227.713 206.332 225.683 214.798C225.137 217.175 224.88 219.736 225.044 222.196C225.126 223.426 226.401 225.225 227.454 225.486C228.559 225.741 230.346 224.844 231.317 223.875C232.577 222.605 233.513 220.831 234.295 219.129C237.507 212.094 240.884 205.096 243.758 197.937C247.266 189.2 250.544 180.326 253.657 171.417C258.732 156.85 263.529 142.207 268.438 127.604C270.181 122.402 271.753 117.111 273.602 111.896C274.432 109.65 276.102 107.688 276.772 105.459C279.447 96.0057 281.112 86.1787 279.038 76.656C275.41 59.87 265.877 46.698 250.047 39.4458C240.796 35.1859 230.899 31.9129 221.002 29.6097C200.107 24.8014 178.987 20.88 157.939 16.6274C143.719 13.7232 129.535 10.6534 115.197 8.13943C109.816 7.22403 104.198 7.57392 98.7217 7.74654C97.2729 7.79849 95.8818 9.35255 94.4203 10.2679C95.9275 11.2331 97.3277 12.695 98.9417 13.1636C102.27 14.0358 105.753 14.3523 109.206 14.8875C130.741 18.1707 151.451 24.2384 171.627 32.3045C173.938 33.235 175.142 35.8499 174.437 38.2442C173.802 40.3075 172.087 40.8737 169.089 40.0728C168.48 39.9244 167.871 39.776 167.262 39.6277C143.902 34.4446 120.951 27.6002 98.072 20.4247C93.2773 18.9599 88.481 19.4347 83.9788 21.601C78.7076 24.1215 78.4678 27.8114 83.107 31.2868C83.7511 31.7545 84.3953 32.2222 85.0927 32.6841C93.5147 38.2207 102.725 42.1081 112.302 44.9314C127.112 49.279 141.946 53.3546 156.75 57.6491C160.924 58.8591 165.074 60.3411 169.129 61.9413C170.926 62.6052 172.013 64.1556 171.432 66.213C170.862 68.3769 169.182 69.2624 167.095 68.8999C164.351 68.448 161.655 67.9371 159.036 67.1483C145.255 62.8489 131.545 58.2183 117.693 54.25C109.404 51.8773 100.908 50.0662 92.4115 48.7401C88.1366 48.0799 83.4291 48.3833 79.2295 49.3849C74.1901 50.5869 70.4549 54.8237 76.0446 60.0799C78.8689 62.7316 81.9121 65.4132 85.2516 67.3617C97.7051 74.7705 111.433 79.0758 125.469 82.2696C137.181 84.9114 149.048 86.9975 160.838 89.3614C163.7 89.908 165.106 91.4231 164.696 93.5694C164.179 96.2123 162.168 96.5417 160.004 96.457C154.315 96.1682 148.656 95.6606 142.92 95.4308C136.433 95.23 129.97 95.2421 123.547 95.1418C123.854 102.812 124.137 110.269 124.438 117.886ZM207.889 221.986C207.865 221.773 207.895 221.554 207.871 221.341C202.668 221.053 197.458 220.711 192.207 220.482C188.848 220.313 185.424 220.529 182.089 220.088C177.004 219.41 174.57 216.877 174.231 211.85C173.929 206.173 173.833 200.418 174.069 194.736C174.563 184.068 176.482 173.62 181.854 164.193C186.367 156.261 192.464 149.986 201.845 148.09C206.062 147.248 210.462 147.086 214.933 146.593C212.882 145.58 210.848 144.242 208.614 143.519C200.059 140.69 191.576 137.531 182.843 135.53C170.9 132.752 158.732 130.861 146.629 128.586C139.255 127.19 131.835 125.853 124.297 124.421C124.131 131.227 123.989 137.762 123.835 144.674C128.391 141.532 132.994 139.786 138.138 140.027C145.56 140.394 154.01 147.652 156.794 155.803C159.643 164.055 160.256 172.554 159.912 181.158C159.483 190.956 158.889 200.719 158.733 210.541C158.689 213.563 159.201 216.739 156.26 218.41C153.722 219.821 150.734 221.066 147.843 221.223C143.821 221.397 139.688 220.56 135.644 220.036C131.818 219.542 127.975 218.888 123.865 218.263C123.913 224.561 123.973 230.481 124.056 236.614C127.433 236.457 130.301 236.572 133.051 236.107C140.616 234.842 148.14 233.205 155.651 231.946C173.205 228.933 190.035 222.768 207.889 221.986ZM225.621 184.905C226.991 179.744 226.777 167.538 225.184 162.865C223.527 158.091 220.1 154.859 215.145 154.382C210.846 153.994 206.351 154.273 202.146 155.222C194.847 156.942 190.448 162.491 187.273 168.875C180.662 182.211 180.3 196.527 181.08 210.933C181.121 211.791 182.515 213.2 183.331 213.271C187.027 213.564 190.735 213.479 194.679 213.583C194.622 211.596 194.511 210.099 194.506 208.591C194.278 199.189 197.354 190.93 203.351 183.75C205.92 180.666 209.351 179.048 213.367 178.821C218.459 178.583 222.182 181.082 225.621 184.905ZM129.811 208.665C129.459 205.471 128.929 202.62 128.89 199.823C128.82 192.827 129.795 186.039 134.519 180.508C137.473 177.004 141.101 174.234 145.926 174.51C148.368 174.672 150.709 175.869 153.777 176.823C152.842 171.27 152.019 165.757 150.989 160.322C149.882 154.679 146.278 150.821 141.402 148.126C140.196 147.45 138.694 147.023 137.346 147.01C129.865 147.081 123.603 152.835 123.076 160.274C122.4 169.776 121.777 179.273 121.484 188.841C121.284 195.328 121.727 201.798 121.911 208.35C124.56 208.436 126.943 208.55 129.811 208.665ZM101.938 90.1969C103.654 88.1759 105.223 86.279 106.993 84.2522C103.913 83.191 101.052 82.1595 97.9183 81.1041C99.3525 84.3401 100.586 87.2212 101.938 90.1969Z" fill="black"/>
<path d="M219.388 232.463C212.482 238.235 205.824 244.302 198.599 249.624C189.882 256.08 180.227 261.347 171.764 268.152C163.397 274.839 154.019 279.697 145.244 285.621C132.363 294.368 119.233 302.819 106.157 311.264C97.8551 316.596 88.8689 320.604 78.922 320.784C61.24 321.171 44.0928 318.59 28.7319 308.754C17.3665 301.44 11.1603 291.08 8.58166 277.95C5.7025 263.559 7.48306 249.41 9.08633 235.118C11.0593 217.337 15.7934 200.168 19.9126 182.798C24.1744 164.765 27.6616 146.548 32.2013 128.593C34.6046 119.115 38.2849 109.982 41.6874 100.772C43.0567 97.0649 45.2064 93.5955 48.9755 91.1328C51.0119 95.4338 51.4222 99.6446 50.5076 104.055C48.37 113.988 45.6293 123.826 44.0948 133.854C41.9714 147.826 40.729 161.971 39.1555 176.044C38.8692 178.823 40.0503 180.74 42.1257 180.996C44.5796 181.264 45.7578 179.734 46.1145 177.593C49.4064 159.56 52.8048 141.514 55.9312 123.445C56.8881 117.952 57.1237 112.269 57.5839 106.669C58.325 97.7524 62.2229 90.1036 66.8537 82.7511C67.2209 82.1719 67.7536 81.6283 68.298 81.1912C70.2629 79.4661 72.0307 79.8639 72.7913 82.366C74.5838 88.364 74.6081 94.4491 73.4554 100.61C70.3245 117.171 67.1344 133.685 64.441 150.306C63.4183 156.668 63.4953 163.232 63.2471 169.779C63.1373 173.67 64.4307 175.628 66.719 175.861C69.0606 176.088 70.499 174.474 71.1412 170.525C73.9951 152.916 76.9081 135.356 79.5492 117.771C80.4772 111.527 80.258 105.14 81.1269 98.8486C81.6924 94.6919 82.9498 90.4588 84.5144 86.569C86.4641 81.7748 89.4566 81.5527 92.1079 86.0553C93.8379 89.0432 94.6154 92.6748 95.736 95.9992C98.3135 103.742 96.4203 111.493 95.9877 119.299C95.1882 134.041 94.7199 148.854 94.1925 163.62C94.0777 166.488 95.6254 168.311 97.843 168.39C99.9008 168.486 101.404 166.973 101.673 164.035C102.421 154.201 103.216 144.308 103.692 134.451C104.126 125.19 104.075 115.929 104.562 106.663C104.82 101.678 106.114 96.7948 108.926 92.4981C110.496 90.1163 111.974 89.8456 113.516 92.1C115.046 94.248 116.374 97.0108 116.549 99.5774C117.102 108.998 117.502 118.49 117.192 127.898C116.537 146.88 115.119 165.785 114.517 184.761C114.182 195.896 114.87 207.026 115.132 218.203C115.275 223.898 115.418 229.593 115.779 235.318C116.182 241.415 118.965 244.179 125.104 243.664C132.786 242.979 140.528 241.856 148.122 240.373C164.737 237.141 181.233 233.329 197.912 230.197C202.981 229.262 208.356 229.639 213.542 229.768C215.381 229.834 217.125 230.989 218.922 231.653C219.158 231.842 219.3 232.15 219.388 232.463Z" fill="white"/>
<path d="M124.438 117.886C124.137 110.269 123.801 102.819 123.495 95.1483C129.917 95.2485 136.38 95.2365 142.867 95.4373C148.544 95.6197 154.256 96.1214 159.951 96.4635C162.121 96.6014 164.179 96.2129 164.643 93.5758C165.059 91.4828 163.652 89.9677 160.785 89.3679C148.995 87.0039 137.128 84.9179 125.416 82.2761C111.386 79.1355 97.6522 74.777 85.1987 67.3681C81.8533 65.3664 78.8693 62.7322 75.9916 60.0863C70.402 54.8302 74.1372 50.5934 79.1766 49.3914C83.4294 48.3839 88.0836 48.0864 92.3586 48.7465C100.855 50.0727 109.352 51.8838 117.64 54.2565C131.492 58.2248 145.208 62.9086 158.983 67.1548C161.602 67.9436 164.357 68.5019 167.042 68.9064C169.129 69.2689 170.756 68.3892 171.379 66.2195C171.96 64.162 170.873 62.6117 169.076 61.9478C165.027 60.4008 160.871 58.8656 156.697 57.6555C141.893 53.3611 127.006 49.2914 112.249 44.9378C102.619 42.1205 93.456 38.174 85.0398 32.6906C84.3424 32.2287 83.7041 31.8142 83.054 31.2933C78.4681 27.812 78.7079 24.1222 83.9259 21.6075C88.3748 19.447 93.2185 18.9131 98.0191 20.4312C120.898 27.6067 143.902 34.4453 167.357 39.5101C167.966 39.6585 168.575 39.8068 169.184 39.9552C172.182 40.7562 173.897 40.19 174.532 38.1267C175.291 35.7264 174.087 33.1115 171.722 32.1869C151.546 24.1209 130.783 18.059 109.301 14.77C105.848 14.2347 102.365 13.9182 99.0368 13.046C97.3754 12.6365 95.9751 11.1746 94.5154 10.1503C95.9295 9.29407 97.3679 7.68092 98.8168 7.62896C104.293 7.45635 109.911 7.10645 115.292 8.02186C129.571 10.4885 143.814 13.6056 158.034 16.5098C179.083 20.7624 200.202 24.6839 221.097 29.4922C231.048 31.7895 240.891 35.0683 250.142 39.3283C265.972 46.5804 275.505 59.7524 279.133 76.5384C281.207 86.0611 279.548 95.9413 276.867 105.342C276.203 107.624 274.527 109.532 273.697 111.779C271.842 116.94 270.27 122.231 268.533 127.487C263.624 142.089 258.774 156.739 253.752 171.3C250.64 180.209 247.362 189.082 243.853 197.819C240.979 204.978 237.602 211.977 234.39 219.011C233.608 220.714 232.667 222.434 231.412 223.757C230.494 224.72 228.654 225.624 227.549 225.368C226.496 225.107 225.221 223.308 225.139 222.078C224.922 219.624 225.185 217.117 225.778 214.681C227.802 206.161 230.435 197.79 232.027 189.264C234.19 177.604 234.679 165.913 229.609 154.62C225.679 145.84 219.368 139.91 210.27 136.549C196.679 131.528 182.797 127.778 168.512 125.258C154.889 122.881 141.308 120.391 127.732 117.955C126.703 117.907 125.739 117.958 124.438 117.886Z" fill="#9747FF"/>
<path d="M207.889 221.986C190.041 222.822 173.206 228.933 155.805 231.875C148.241 233.139 140.717 234.777 133.206 236.036C130.402 236.506 127.534 236.391 124.211 236.542C124.127 230.41 124.073 224.544 124.02 218.192C128.129 218.817 131.919 219.476 135.798 219.965C139.843 220.489 143.922 221.332 147.997 221.152C150.836 221.001 153.882 219.803 156.414 218.339C159.355 216.668 158.843 213.492 158.887 210.47C159.044 200.648 159.638 190.885 160.066 181.086C160.411 172.482 159.797 163.984 156.948 155.732C154.17 147.634 145.72 140.376 138.293 139.956C133.148 139.715 128.493 141.467 123.99 144.603C124.144 137.69 124.279 131.103 124.451 124.35C132.043 125.775 139.41 127.118 146.783 128.515C158.886 130.79 171.055 132.681 182.998 135.459C191.736 137.513 200.22 140.672 208.768 143.447C211.003 144.171 213.036 145.509 215.087 146.522C210.616 147.015 206.216 147.177 201.999 148.019C192.672 149.909 186.522 156.19 182.009 164.122C176.637 173.549 174.718 183.997 174.223 194.665C173.988 200.347 174.024 206.054 174.386 211.779C174.671 216.811 177.164 219.392 182.244 220.017C185.579 220.458 189.003 220.242 192.361 220.411C197.559 220.646 202.769 220.987 208.026 221.27C207.896 221.554 207.865 221.773 207.889 221.986Z" fill="white"/>
<path d="M225.621 184.906C222.236 181.077 218.459 178.584 213.373 178.876C209.304 179.109 205.926 180.72 203.357 183.805C197.307 190.99 194.231 199.249 194.512 208.646C194.57 210.148 194.628 211.65 194.685 213.637C190.747 213.586 187.039 213.672 183.337 213.326C182.468 213.26 181.127 211.845 181.086 210.988C180.306 196.582 180.609 182.218 187.279 168.93C190.454 162.546 194.853 156.997 202.152 155.276C206.298 154.281 210.852 154.048 215.151 154.436C220.106 154.914 223.533 158.145 225.191 162.919C226.772 167.486 226.991 179.745 225.621 184.906Z" fill="white"/>
<path d="M129.811 208.665C126.943 208.55 124.56 208.436 121.911 208.35C121.727 201.798 121.278 195.275 121.484 188.841C121.782 179.326 122.4 169.776 123.076 160.274C123.603 152.835 129.918 147.075 137.346 147.01C138.694 147.023 140.196 147.45 141.402 148.126C146.278 150.821 149.882 154.679 150.989 160.322C152.025 165.811 152.848 171.323 153.777 176.823C150.709 175.869 148.362 174.619 145.926 174.51C141.101 174.234 137.473 177.004 134.519 180.508C129.748 186.099 128.82 192.827 128.89 199.823C128.929 202.62 129.459 205.471 129.811 208.665Z" fill="white"/>
<path d="M101.938 90.1969C100.639 87.2153 99.3525 84.3401 97.9183 81.1041C101.057 82.2127 103.913 83.191 106.993 84.2522C105.223 86.279 103.601 88.1818 101.938 90.1969Z" fill="white"/>
</svg>
