<svg width="499" height="392" viewBox="0 0 499 392" fill="none" xmlns="http://www.w3.org/2000/svg">
<g clip-path="url(#clip0_55_871)">
<path d="M182.5 40.5L99 44L94 40.5L109.5 14L141.5 6.5L172.5 18L182.5 40.5Z" fill="#9747FF"/>
<path d="M195 71.5L168 99L166.5 103.5H185H223.5H247.5L238.5 86.5L219 72L195 71.5Z" fill="#9747FF"/>
<path d="M98 84.5L111.5 219.5L89.5 234.5L82.5 257L106 282L139.5 276.5L179 265H203L234 252.5L239 228.5L229 206L179 154.5L127.5 103.5L98 84.5Z" fill="#9747FF"/>
<path d="M384 246.5L377 295L384 312L407 354L423 379H447.5L458.5 369L455.5 351V308L468 284L477 257.5L461 232.5L436.5 218L407 224L384 246.5Z" fill="#9747FF"/>
<path d="M446.719 168.557C453.974 186.197 449.706 200.637 436.333 213.085C439.605 214.01 443.02 214.579 446.007 215.93C465.213 224.466 476.452 238.977 478.443 260.245C479.51 271.698 477.092 282.154 470.903 292.041C466.635 298.87 463.008 306.481 460.874 314.234C458.1 324.264 461.087 334.436 463.079 344.394C464.075 349.516 465.071 354.637 465.497 359.759C466.209 367.654 464.715 374.981 456.464 380.458C458.811 380.6 459.949 380.742 461.158 380.742C471.686 380.885 482.284 380.885 492.812 381.169C494.519 381.24 496.724 381.809 497.862 383.019C498.858 384.014 499.356 386.717 498.716 387.784C497.72 389.278 495.515 390.772 493.737 390.914C488.331 391.27 482.854 390.914 477.376 390.914C393.797 390.203 310.217 389.563 226.708 388.851C154.51 388.211 82.3111 387.571 10.1836 387.002C9.82798 387.002 9.47232 387.002 9.11666 387.002C4.91989 386.931 2.57255 385.153 2.57255 382.094C2.57255 379.035 4.91989 377.115 9.04553 377.115C18.1504 377.115 27.3264 377.257 36.4312 377.328C45.0382 377.399 53.6451 377.328 63.0345 377.328C49.8751 367.014 44.8248 354.352 51.2977 338.988C57.2728 324.762 67.1601 315.088 85.0141 315.586C79.8927 309.966 75.6248 305.129 71.2857 300.364C51.2977 278.455 31.3097 256.618 11.3929 234.709C7.12498 230.014 7.83629 227.88 12.7444 223.897C17.7236 219.843 21.9204 214.721 26.5439 210.026C26.046 209.457 25.8326 209.102 25.6192 209.031C13.598 204.336 8.68987 190.323 12.531 179.795C16.6566 168.557 14.167 158.954 8.90327 148.924C-4.11383 123.886 -1.76648 95.0776 14.9495 72.2444C19.3596 66.2693 23.9832 60.2231 29.5315 55.3862C43.0465 43.5783 58.6243 42.7959 74.8423 48.842C79.0391 50.4069 82.9513 52.6832 87.2904 54.746C87.077 35.7538 94.4035 20.4605 109.768 9.57738C121.22 1.46837 134.095 -1.09237 147.966 0.899315C172.435 4.38477 200.745 31.3437 188.866 70.6795C202.666 65.4157 216.181 65.558 229.198 72.1732C242.215 78.7885 250.253 89.4582 254.236 103.542C255.232 103.329 256.157 103.187 257.01 102.973C257.793 102.76 258.575 102.475 259.5 102.12C253.098 90.2407 253.525 78.9307 262.203 68.4033C271.095 57.6624 282.76 56.9511 294.781 60.0097C295.35 54.6748 295.35 49.2688 296.631 44.2896C300.472 29.5654 316.192 16.1215 330.703 14.6989C337.318 14.0587 343.364 15.7658 348.913 19.8915C353.75 12.7072 360.151 7.23003 368.332 4.02911C387.679 -3.65311 406.885 6.58985 410.441 26.649C410.939 29.2808 410.797 31.9838 411.011 34.9714C425.593 29.1386 438.254 32.3395 448.71 43.3649C459.593 54.8882 459.522 67.9765 452.125 81.6337C454.259 81.9183 455.966 82.2028 457.744 82.4873C463.577 83.3409 468.698 85.6171 472.539 90.1695C477.448 95.8601 483.138 101.195 484.347 109.233C484.774 112.007 485.059 114.852 485.13 117.697C485.272 125.451 481.644 130.786 474.033 133.418C478.372 142.665 477.732 151.201 470.761 158.527C464.43 165.213 456.535 168.983 446.719 168.557ZM400.839 204.62C400.839 202.984 400.696 201.277 400.91 199.641C401.621 194.662 406.458 192.67 410.441 195.729C411.437 196.511 412.362 197.507 413.216 198.503C416.488 202.273 420.542 204.62 425.379 205.118C427.371 205.332 430.003 204.834 431.496 203.625C439.463 197.294 443.873 182.57 436.902 172.113C435.338 169.766 433.702 167.347 432.635 164.787C430.999 160.874 433.63 157.247 437.827 157.176C439.25 157.176 440.601 157.673 442.024 157.745C445.794 157.887 449.706 158.74 453.192 157.887C459.309 156.322 464.715 153.121 466.493 146.435C467.987 140.673 464.715 137.259 460.234 134.2C459.024 133.346 458.242 130.43 458.669 128.936C459.096 127.443 461.158 125.949 462.866 125.309C464.786 124.597 467.062 124.811 469.196 124.455C472.468 123.886 474.887 122.463 475.314 118.693C476.452 107.81 466.707 94.1529 455.895 92.4458C452.409 91.8767 448.568 92.3035 445.011 92.8725C442.095 93.2993 439.534 93.5839 437.756 90.8097C435.978 88.0356 437.472 85.7594 439.108 83.412C441.241 80.3534 443.375 77.0813 444.94 73.667C449.493 63.5663 447.501 55.1016 439.179 47.7751C428.509 38.2434 407.881 41.3021 405.818 55.315C405.747 55.9552 405.391 56.9511 404.893 57.1644C403.115 58.018 400.91 59.5118 399.416 59.0139C397.922 58.5871 396.571 56.1686 396.002 54.3903C395.575 53.1811 396.5 51.4739 396.926 49.9802C398.136 45.6411 399.558 41.3732 400.483 36.9631C402.119 29.352 400.127 22.5945 394.721 16.9751C391.094 13.2051 386.684 10.3598 381.206 10.9289C371.604 11.9959 363.637 16.1926 357.804 24.1594C356.097 26.5067 354.959 28.7829 355.457 31.9838C356.097 36.1806 354.105 38.8125 350.975 39.1681C347.846 39.5238 345.427 37.2476 344.716 33.2642C343.72 28.0716 341.444 25.8665 336.322 24.7995C331.912 23.8037 327.858 24.8707 323.945 26.7912C311.924 32.624 304.1 44.1474 304.953 55.2439C305.238 58.516 306.02 61.788 306.66 65.0601C307.229 67.7631 307.016 70.3238 304.669 72.1732C302.25 74.0227 299.903 72.8845 297.342 72.031C292.932 70.5372 288.38 68.9723 283.756 68.5455C276.145 67.8342 270.526 71.8887 267.04 78.4328C263.626 84.9058 263.981 91.521 268.463 97.4961C270.099 99.7012 272.019 101.622 273.798 103.685C275.434 105.676 276.145 107.881 274.651 110.229C273.229 112.434 271.166 112.291 268.676 112.22C264.977 112.078 261.207 112.576 257.58 113.358C256.513 113.572 255.446 115.564 255.09 116.915C253.525 122.961 252.529 129.15 250.609 135.054C249.755 137.685 250.111 138.966 251.818 140.815C257.793 147.217 264.053 151.77 273.869 149.493C279.844 148.142 282.618 153.263 279.844 158.812C278.635 161.23 277.354 163.72 276.714 166.28C274.509 175.67 277.07 181.858 284.396 184.917C288.38 186.624 292.505 186.909 296.417 184.917C301.397 182.356 306.162 179.511 308.865 174.247C309.506 173.038 310.43 171.473 311.568 171.046C313.347 170.335 315.694 169.837 317.401 170.406C319.82 171.188 320.318 173.749 319.677 176.097C319.251 177.661 318.539 179.298 317.472 180.436C313.133 185.13 315.338 196.085 319.18 200.352C322.096 203.625 327.431 202.273 329.067 198.147C330.276 195.089 331.841 192.172 333.69 189.469C335.184 187.335 337.603 186.766 340.021 187.976C342.368 189.114 343.222 191.248 342.653 193.666C341.942 196.511 341.23 199.57 339.737 201.989C336.393 207.252 337.532 212.303 340.306 217.068C342.368 220.625 345.498 223.684 349.908 223.328C354.105 223.043 355.955 219.345 357.235 215.93C358.302 213.227 358.586 210.169 359.369 207.395C360.009 204.976 361.716 203.482 364.277 203.625C366.838 203.696 368.403 205.189 368.901 207.75C369.043 208.461 369.114 209.173 369.256 209.884C370.394 217.424 376.867 222.474 385.047 222.19C394.65 221.834 400.199 217.14 400.768 208.817C400.91 207.252 400.839 205.972 400.839 204.62ZM114.178 217.566C115.387 217.851 116.241 218.064 117.166 218.207C127.337 219.558 133.241 226.102 137.296 234.78C138.79 237.981 137.723 240.898 135.162 242.107C132.53 243.387 130.112 242.178 128.333 238.906C127.551 237.412 126.84 235.918 125.915 234.567C122.358 229.232 117.237 227.169 110.906 227.809C102.655 228.663 97.4622 233.144 94.0479 240.613C87.077 255.764 95.2571 273.547 110.835 274.898C114.32 275.183 118.019 275.396 121.434 274.685C130.112 272.907 138.719 270.773 147.254 268.425C160.698 264.727 173.929 260.103 188.013 259.178C195.695 258.68 203.377 258.68 211.059 258.04C224.361 256.831 231.19 251.14 234.035 239.119C235.956 231.152 234.035 223.613 229.625 217.068C223.365 207.892 217.248 198.361 209.566 190.465C184.598 164.858 158.849 139.962 133.526 114.639C124.706 105.819 115.458 97.7095 103.935 91.8056C107.421 133.773 110.835 175.67 114.178 217.566ZM92.7675 324.193C89.5666 324.548 86.9347 324.904 84.2317 325.117C71.2146 326.042 62.9633 332.728 59.3356 345.177C56.9171 353.428 59.0511 360.328 65.1684 366.16C71.7125 372.491 79.6081 375.336 88.6419 375.55C114.605 376.119 140.497 374.838 166.389 372.207C194.557 369.361 222.725 370.499 250.893 372.278C264.266 373.131 277.639 373.914 291.011 374.056C308.368 374.269 320.389 365.165 328 350.227C336.465 333.724 335.54 316.582 329.565 299.51C327.004 292.183 321.1 288.342 314.129 285.995C313.489 285.782 312.209 286.066 311.782 286.635C307.656 291.33 303.673 296.167 299.689 301.004C309.435 311.318 307.443 322.912 301.823 331.235C295.564 340.553 286.957 347.595 275.86 349.8C266.542 351.65 256.868 352.076 247.337 352.788C231.972 353.855 216.608 354.495 201.243 355.633C188.938 356.558 176.774 358.905 164.468 359.047C145.974 359.261 127.551 358.265 109.057 357.482C101.374 357.127 93.6922 356.202 86.0811 355.348C82.5957 354.922 80.8885 352.716 81.2442 349.942C81.5998 347.168 83.7338 345.461 87.2192 345.674C90.7758 345.888 94.2613 346.457 97.8178 346.741C103.01 347.168 108.274 347.453 114.534 347.88C106.567 339.344 99.4539 331.519 92.7675 324.193ZM364.846 223.399C360.934 229.161 356.239 233.429 348.628 233.5C351.473 237.341 349.695 240.115 347.277 243.103C338.314 253.915 329.494 264.94 320.602 275.894C320.247 276.321 320.104 276.819 319.677 277.601C330.205 281.443 336.749 288.84 340.092 299.154C343.222 308.828 344.645 318.787 343.862 328.958C342.368 350.085 333.548 367.085 314.912 378.253C314.414 378.537 314.058 379.035 312.849 380.173C349.126 380.173 384.55 380.173 419.262 380.173C415.563 374.91 411.366 369.504 407.81 363.742C399.914 350.938 392.374 337.921 384.621 325.117C376.512 311.816 372.03 297.447 372.671 281.94C373.382 264.158 378.077 247.37 389.244 233.002C389.529 232.646 389.6 232.219 389.884 231.65C379.926 233.144 371.746 230.37 364.846 223.399ZM382.131 282.723C382.914 297.803 387.039 310.82 394.864 322.912C402.119 334.151 408.592 345.817 415.563 357.269C417.981 361.181 420.329 365.236 423.245 368.721C426.944 373.202 430.856 377.257 437.969 376.474C442.095 375.977 445.936 375.479 449.422 373.416C453.476 371.068 456.25 367.796 455.539 362.746C454.757 356.913 454.116 351.009 452.978 345.248C451.058 334.862 448.924 324.548 450.489 313.879C451.982 303.92 456.606 295.171 462.083 286.991C469.552 275.894 470.05 264.229 466.778 251.994C462.51 236.132 447.714 223.47 431.639 222.759C418.693 222.19 407.454 227.169 398.705 236.843C386.826 250.145 383.625 266.576 382.131 282.723ZM96.7509 113.074C96.4663 113.003 96.1107 112.932 95.8262 112.861C95.0437 102.973 94.2613 93.0148 93.4788 83.1275C92.7675 73.667 88.8552 66.3404 79.8215 62.3571C76.5495 60.9344 73.5619 58.9427 70.2188 57.8046C57.2017 53.1811 44.6825 53.8924 34.5107 63.922C20.2843 78.006 9.47232 93.8684 10.6816 115.421C11.2506 125.664 11.8197 135.623 17.4391 144.799C24.5522 156.464 27.0418 168.699 21.9204 182.143C19.7153 187.904 20.9245 193.879 26.046 197.934C31.1675 201.988 37.2848 202.771 43.0465 199.428C46.9587 197.152 50.7998 194.235 53.6451 190.75C69.6497 170.975 83.3781 149.707 93.5499 126.376C95.2571 122.108 95.6839 117.484 96.7509 113.074ZM322.95 212.16C322.309 213.939 322.025 215.646 321.242 216.997C310.715 234.709 300.187 252.421 289.447 269.99C278.065 288.556 266.471 306.979 255.019 325.544C253.596 327.82 251.676 328.958 249.044 328.034C246.412 327.109 245.345 324.904 245.914 322.343C246.483 319.996 247.55 317.649 248.83 315.515C254.877 305.485 260.709 295.313 267.253 285.568C283.898 260.814 300.045 235.776 314.058 209.244C308.652 204.905 306.803 198.432 305.238 191.959C302.179 193.168 299.405 194.662 296.489 195.373C293.43 196.085 290.229 196.013 288.095 196.227C268.605 245.521 249.186 294.317 230.052 342.687C238.587 342.687 246.981 342.758 255.374 342.616C256.299 342.616 257.508 341.691 258.077 340.909C264.124 332.302 269.601 323.197 276.145 314.946C291.652 295.171 307.585 275.752 323.447 256.262C329.992 248.224 336.607 240.257 343.293 232.148C334.829 228.307 329.423 221.265 328 211.449C326.079 211.734 324.586 211.947 322.95 212.16ZM243.567 146.364C230.123 160.448 214.118 165.142 194.984 162.226C195.624 163.435 196.975 163.791 197.9 164.644C204.515 171.117 211.273 177.448 217.532 184.206C227.277 194.733 236.169 206.043 241.859 219.416C245.701 228.592 245.701 237.839 241.931 247.086C240.792 249.789 239.441 252.35 238.089 255.124C242.926 254.484 247.55 253.701 252.245 253.346C254.236 253.203 255.09 252.563 255.801 250.785C258.789 243.031 261.919 235.42 264.977 227.667C269.53 216.286 274.011 204.834 278.563 193.239C264.337 186.126 265.191 173.465 267.68 159.879C256.726 160.803 250.538 152.979 243.567 146.364ZM81.173 251.069C83.7338 236.203 88.713 223.826 104.362 218.918C102.299 193.239 100.236 167.703 98.1024 141.455C91.7717 151.77 86.2234 161.515 80.0349 170.833C70.0765 185.842 61.3984 202.06 43.6155 210.24C56.0636 223.826 68.3693 237.199 81.173 251.069ZM250.609 263.517C248.901 263.731 247.621 263.802 246.341 264.015C226.922 266.789 211.059 275.041 201.243 292.895C200.247 294.673 199.109 296.309 198.042 298.016C190.218 310.82 179.477 319.356 164.397 321.703C159.204 322.557 154.012 323.339 148.392 324.264C153.798 330.168 158.991 335.787 164.184 341.478C169.447 347.168 169.376 347.026 176.489 344.252C189.72 339.059 200.532 331.164 208.641 319.071C214.616 310.18 221.8 302 228.985 294.033C232.043 290.619 236.453 288.556 240.295 285.853C241.006 285.355 242.215 284.999 242.5 284.288C245.274 277.459 247.906 270.631 250.609 263.517ZM112.684 285.355C121.291 294.744 129.4 303.565 137.58 312.243C138.434 313.167 140.07 313.736 141.279 313.665C146.828 313.523 152.447 313.452 157.924 312.74C170.016 311.176 180.331 306.552 187.444 295.953C193.774 286.493 198.754 275.965 208.499 268.639C192.636 268.212 177.699 269.777 163.046 274.045C146.828 278.953 130.823 285.213 112.684 285.355ZM97.1777 49.6956C96.6086 56.8088 97.6045 62.9261 100.379 68.6878C101.303 70.6795 102.37 72.7423 103.935 74.236C109.555 79.4287 115.387 84.5501 121.291 89.4582C123.141 91.0231 125.346 92.4458 127.693 93.0148C143.484 96.9982 157.568 93.655 169.163 82.0605C178.695 72.6 182.465 60.8633 181.113 47.8462C172.079 47.8462 163.472 47.8462 154.439 47.8462C159.774 58.0892 159.204 64.9889 152.803 71.6042C146.828 77.7926 139.003 79.5709 132.174 76.1566C127.337 73.7381 123.852 69.897 122.074 64.7755C120.224 59.5829 120.936 54.4614 123.07 49.6956C114.392 49.6956 105.998 49.6956 97.1777 49.6956ZM231.616 108.877C235.315 116.702 233.608 123.317 227.847 128.652C221.871 134.2 214.687 134.058 207.574 131.141C197.758 127.158 194.841 119.618 197.26 109.731C187.799 109.731 178.766 109.731 169.803 109.731C167.313 126.447 176.418 142.807 191.854 149.564C207.432 156.464 226.139 152.054 236.525 139.037C237.236 138.112 237.876 136.761 237.876 135.623C237.663 127.443 240.223 120.045 243.922 112.932C244.491 111.794 244.705 110.513 245.132 108.948C240.366 108.877 236.24 108.877 231.616 108.877ZM38.0672 249.504C56.2058 269.35 74.131 289.054 92.483 309.184C97.9601 304.418 103.082 300.008 108.345 295.384C89.3532 274.756 70.8589 254.626 52.1513 234.282C47.3855 239.475 42.8331 244.383 38.0672 249.504ZM99.3116 40.0217C125.63 39.097 151.807 38.1723 178.125 37.2476C174.711 22.0965 155.363 9.36398 137.367 10.0753C119.798 10.7866 101.303 25.1552 99.3116 40.0217ZM157.853 349.089C143.342 333.369 129.258 318.075 115.174 302.711C109.697 307.406 104.575 311.887 99.2405 316.439C106.354 324.264 113.894 331.661 120.438 339.913C125.559 346.386 131.392 349.658 139.643 349.089C145.405 348.804 151.309 349.089 157.853 349.089ZM173.146 98.9899C195.766 98.9899 218.457 98.9899 241.433 98.9899C236.311 85.3326 220.876 76.1566 204.871 76.8679C191.214 77.5081 176.276 87.9645 173.146 98.9899ZM235.315 302.995C234.96 302.782 234.533 302.569 234.177 302.426C227.206 311.389 220.52 320.494 213.265 329.172C208.925 334.365 203.733 338.917 198.896 343.683C198.256 344.323 197.544 344.75 196.264 345.817C203.804 345.177 210.49 344.75 217.106 344.038C217.888 343.967 218.884 342.758 219.311 341.833C222.867 333.44 226.282 325.046 229.696 316.582C231.545 312.1 233.466 307.548 235.315 302.995ZM293.003 308.757C285.108 319.498 277.425 329.883 269.459 340.695C279.559 340.34 292.79 330.31 295.422 321.703C296.844 317.364 297.129 313.096 293.003 308.757ZM160.556 127.016C160.556 117.413 160.556 108.664 160.556 100.697C153.585 102.191 145.903 103.827 138.221 105.463C145.334 112.291 152.66 119.334 160.556 127.016ZM409.232 217.14C412.575 216.073 415.492 215.148 418.835 214.081C415.919 212.658 413.5 211.449 410.868 210.169C410.299 212.445 409.801 214.579 409.232 217.14Z" fill="black"/>
<path d="M417.127 256.616C418.834 256.759 419.83 256.759 420.826 256.901C427.086 257.399 432.207 260.031 435.764 265.295C441.668 273.973 444.371 283.149 440.601 293.463C440.174 294.672 439.676 296.237 438.68 296.735C437.044 297.588 434.839 298.442 433.345 297.944C432.065 297.517 431.211 295.241 430.571 293.605C430.286 292.751 430.856 291.542 431.211 290.546C434.128 282.793 431.567 276.107 426.801 270.06C424.098 266.575 420.115 266.29 416.06 267.215C412.219 268.069 409.729 270.274 409.587 274.471C409.445 279.521 408.805 284.642 409.303 289.622C410.014 296.237 413.713 301.501 418.977 305.555C422.889 308.614 427.086 311.388 430.642 314.873C437.4 321.489 438.395 331.945 433.416 339.343C430.5 343.753 426.374 345.958 420.968 345.175C417.269 344.606 415.064 341.832 415.562 338.56C416.06 335.502 418.265 334.506 422.32 334.719C423.387 334.79 425.165 333.581 425.663 332.585C427.299 328.815 426.588 325.045 423.742 322.058C421.608 319.853 419.19 317.861 416.629 316.225C401.336 306.124 396.499 291.827 399.486 274.328C401.692 261.382 406.671 250.072 418.194 242.604C426.588 237.126 435.764 235.846 445.438 238.122C447.998 238.691 450.417 240.256 452.693 241.75C455.111 243.386 455.965 245.947 454.258 248.579C452.551 251.282 449.848 251.495 447.429 249.859C441.952 246.231 436.19 246.729 430.286 247.938C425.023 249.005 421.253 252.42 417.127 256.616Z" fill="black"/>
<path d="M77.6169 90.7378C74.4871 84.2648 66.5915 79.8546 58.8381 80.6371C51.8672 81.3484 45.3943 83.4112 39.846 87.8925C38.9213 88.6038 37.8543 89.7419 36.8585 89.6708C34.9379 89.5285 32.3772 89.244 31.3102 88.0348C30.3855 86.9678 30.5989 84.1937 31.3813 82.6288C32.0926 81.0639 33.9421 79.9258 35.507 78.8588C44.9675 72.4569 55.3527 69.1137 66.8049 71.4611C84.5878 75.1599 94.0483 92.5161 88.1444 110.37C84.2321 122.32 76.6922 131.781 66.7338 139.392C61.47 143.375 55.9929 147.216 50.8003 151.271C45.8211 155.183 44.0428 160.162 46.6035 166.351C47.955 169.694 46.6746 172.468 43.9716 173.393C41.4109 174.246 38.779 172.966 37.4987 169.836C34.2977 162.012 34.3689 154.329 40.3439 147.928C44.4696 143.589 49.1642 139.676 54.0723 136.262C62.7504 130.216 70.7171 123.672 75.6963 114.14C76.7633 112.148 77.688 110.086 78.4705 108.023C79.7509 104.466 77.7592 100.838 74.0603 101.123C69.3656 101.479 64.3153 102.19 60.1185 104.253C52.3652 108.023 46.0344 113.784 42.6913 122.178C41.6954 124.739 39.7037 125.948 37.0719 125.308C34.2266 124.596 32.9462 122.32 33.373 119.617C33.7287 117.483 34.5823 115.207 35.8626 113.429C43.2603 102.403 52.9342 94.3655 66.2358 91.6625C69.8636 90.8089 73.7047 90.9512 77.6169 90.7378Z" fill="black"/>
</g>
<defs>
<clipPath id="clip0_55_871">
<rect width="498.775" height="390.94" fill="white" transform="translate(0.224609 0.1875)"/>
</clipPath>
</defs>
</svg>
