<svg width="216" height="109" viewBox="0 0 216 109" fill="none" xmlns="http://www.w3.org/2000/svg">
<g clip-path="url(#clip0_2001_104)">
<rect x="201.5" y="39" width="6" height="29" fill="#9747FF"/>
<rect x="159.5" y="67" width="47" height="10" fill="#9747FF"/>
<rect x="152.244" y="37.8848" width="6.85726" height="30.9885" transform="rotate(12.0806 152.244 37.8848)" fill="#9747FF"/>
<rect x="106.674" y="61.5459" width="45.5904" height="10.7354" transform="rotate(8.98642 106.674 61.5459)" fill="#9747FF"/>
<rect x="98.5" y="36" width="7" height="28" fill="#9747FF"/>
<rect x="59.5" y="62" width="44" height="11" fill="#9747FF"/>
<rect x="45.5" y="35" width="9" height="35" fill="#9747FF"/>
<rect x="10.5" y="68" width="44" height="9" fill="#9747FF"/>
<path d="M156.079 63.3355C155.562 65.2887 155.023 67.2418 154.529 69.2174C154.125 70.8562 153.789 72.4951 153.34 74.1114C152.038 78.7586 148.782 81.3403 144.113 81.6546C140.027 81.9464 135.896 81.8342 131.788 81.5648C126.602 81.2056 121.438 80.5321 116.297 79.9035C111.448 79.3198 107.811 76.8054 105.297 72.6298C105.23 72.5175 105.14 72.4053 105.005 72.2257C104.848 72.3379 104.713 72.3828 104.646 72.4951C103.209 74.987 100.964 76.2891 98.1804 76.6483C90.4577 77.5912 82.7574 78.579 75.0122 79.3423C71.4651 79.7014 67.918 79.23 64.4608 78.2647C61.4974 77.434 59.2524 75.7054 58.0626 72.7869C57.9952 72.6073 57.883 72.4726 57.7258 72.2032C57.5911 72.4726 57.4564 72.6298 57.4115 72.8318C56.1094 77.5463 52.7195 80.0157 48.2296 81.0933C42.1232 82.5526 35.8822 82.9567 29.6187 82.7097C24.9491 82.5301 20.2571 82.3505 15.6324 81.7219C10.7159 81.026 6.82032 78.8184 5.86995 74.6219C5.73418 73.6614 5.73418 72.1781 5.73418 70.6847C5.73418 70.1416 6.00572 67.6679 6.00572 66.7475C5.80367 60.0125 5.66469 53.076 5.48509 46.341C5.48509 43.4899 5.37284 40.6837 5.59734 37.8999C6.04634 32.5793 8.91992 29.2792 14.1507 28.1567C17.0243 27.5281 19.9877 27.124 22.9062 26.9668C29.0574 26.6301 32.6875 26.537 38.8612 26.4248C39.9837 26.4023 42.2554 26.5606 43.3415 26.5606C43.8846 26.5606 45.378 26.6469 45.9211 26.6963C47.4145 26.8321 47.5336 27.8648 48.6336 28.4934C49.8908 29.2343 51.1256 30.0424 52.4052 30.6935C55.8176 32.4446 57.4789 35.1386 57.3442 39.0224C57.2544 41.7388 57.3217 44.4777 57.4564 47.1941C57.4564 45.1063 57.3442 42.996 57.4789 40.9082C57.6585 38.3713 57.7707 35.812 58.3769 33.365C59.5892 28.471 63.1587 26.0015 67.8956 25.0137C74.0244 23.7116 80.243 24.0034 86.4616 24.0483C90.2556 24.0708 93.9149 24.7892 97.3947 26.1586C98.5172 26.6076 99.4825 27.5281 100.425 28.3138C101.256 29.0098 101.907 29.9077 102.715 30.6261C106.734 34.1283 108.62 38.506 108.418 43.8266C108.395 44.1858 108.418 44.5226 108.642 44.9042C109.697 41.649 110.73 38.3938 111.785 35.1386C112.414 33.1854 113.065 31.2323 113.783 29.3016C114.838 26.4954 117.016 24.9463 119.912 25.081C123.279 25.2382 126.669 25.7545 129.992 26.4505C134.37 27.3934 138.657 28.6955 143.013 29.7955C144.921 30.2669 146.986 30.3792 148.805 31.0751C151.791 32.2201 154.597 33.8589 156.999 36.0141C157.358 36.3284 157.717 36.6427 158.234 37.0692C158.593 36.3508 158.975 35.7896 159.199 35.1835C160.456 31.569 163.285 29.9526 166.81 29.3914C169.01 29.0322 171.255 28.7853 173.5 28.7628C180.908 28.6955 188.316 28.7179 195.702 28.7404C198.127 28.7628 200.147 29.6383 201.809 31.5241C203.358 33.2752 205.199 34.8018 206.882 36.4406C209.891 39.3816 211.215 43.0409 211.036 47.1941C210.879 50.8534 210.519 54.5127 210.272 58.1496C209.981 62.7294 209.756 67.3316 209.397 71.9114C209.285 73.3481 209.038 74.8074 208.656 76.2217C207.691 79.881 205.109 81.8342 201.517 82.2607C197.925 82.6873 194.288 82.8444 190.674 82.8893C183.714 82.9791 176.755 82.9567 169.795 82.9118C167.999 82.9118 166.158 82.8893 164.452 82.4628C160.097 81.3852 157.897 78.13 157.089 73.9992C156.595 71.4175 156.707 68.7235 156.572 66.0744C156.527 65.1764 156.572 64.3009 156.572 63.4029C156.393 63.3804 156.236 63.358 156.079 63.3355ZM9.18931 48.3744C9.18931 48.6905 9.18438 51.3435 9.18931 51.5269C9.30156 55.7026 9.39136 59.9007 9.54851 64.0764C9.63831 66.3214 10.5588 67.3091 12.7813 67.4438C20.0775 67.8479 27.3512 67.9602 34.625 67.1295C37.2291 66.8377 39.7435 66.1193 42.0334 64.7274C43.9641 63.56 45.1539 62.011 45.2437 59.6762C45.5805 51.8188 45.7601 43.9838 44.907 36.1488C44.5927 33.1854 43.8069 32.467 40.8211 32.4221C32.7841 32.3772 24.7695 32.7364 16.7774 33.7242C14.5997 33.9936 12.5343 34.5998 10.7159 35.9018C9.54851 36.7549 8.91992 37.8101 8.91992 39.3142C8.96482 43.3776 9.18931 44.2885 9.18931 48.3744ZM195.164 61.9436C194.962 62.0559 194.76 62.1457 194.58 62.2579C191.617 64.0315 188.294 62.3477 188.114 58.9129C188.025 57.2067 188.025 55.4781 187.957 53.7495C187.935 52.9413 188.002 52.1106 188.967 52.0657C189.978 52.0208 190.09 52.829 190.112 53.6372C190.135 55.4332 190.157 57.2292 190.18 59.0252C190.18 59.9905 190.651 60.5293 191.617 60.7313C192.964 61.0007 193.884 60.5966 194.131 59.2048C194.49 57.1618 194.625 55.074 194.827 53.0086C194.894 52.2902 195.029 51.5943 195.927 51.5943C196.758 51.5943 196.96 52.2902 196.915 52.9413C196.802 54.7597 196.623 56.5781 196.488 58.3966C196.466 58.8007 196.376 59.2272 196.488 59.6089C196.847 60.7762 197.274 61.8987 197.7 63.111C199.407 62.4824 200.035 60.866 200.035 59.0252C199.99 51.5943 199.856 44.1634 199.721 36.7325C199.721 36.3733 199.362 35.9692 199.07 35.6774C198.037 34.6896 196.69 34.6447 195.388 34.6447C188.429 34.6447 181.469 34.5773 174.532 34.7569C171.816 34.8243 169.099 35.2733 166.45 35.8345C163.981 36.3733 162.185 38.506 162.117 40.549C161.983 45.2859 161.803 50.0452 161.848 54.7821C161.871 57.319 162.275 59.8334 162.566 62.3477C162.701 63.4253 163.42 64.0764 164.452 64.3233C165.103 64.4805 165.777 64.5927 166.45 64.6152C175.834 65.0193 185.218 64.7723 194.58 64.009C194.962 63.9866 195.321 63.8743 195.702 63.807C195.5 63.1335 195.343 62.5722 195.164 61.9436ZM61.1831 48.9003C61.1831 49.1651 61.1269 51.5091 61.1269 51.8131C61.1269 55.4051 61.0259 56.0842 61.0035 59.6762C61.0035 60.6864 61.4749 61.2252 62.4627 61.2926C63.1362 61.3375 63.8097 61.315 64.4832 61.2701C70.859 60.9334 77.2572 60.5966 83.6329 60.1926C86.7983 59.9905 89.9638 59.7436 93.1067 59.3844C95.0374 59.1823 96.3171 57.9925 96.8334 56.1291C97.1702 54.8495 97.4845 53.5025 97.5069 52.178C97.5743 47.5084 97.5294 42.8388 97.4845 38.1693C97.4845 37.2488 97.3273 36.3059 97.1926 35.3855C96.9232 33.4548 95.8456 32.1527 94.0047 31.5466C92.77 31.1425 91.4904 30.8057 90.2107 30.6037C84.5534 29.773 78.8736 30.1098 73.1938 30.4241C70.2079 30.6037 67.2445 30.9629 64.5281 32.4221C62.575 33.4773 61.2504 34.959 61.228 37.2488C61.1606 41.1327 61.1831 45.0165 61.1831 48.9003ZM135.425 63.807C137.131 63.6723 138.859 63.5825 140.566 63.4029C143.731 63.0661 145.392 61.4946 145.909 58.3292C146.627 53.974 147.301 49.6187 148.041 45.2859C148.401 43.1531 148.895 41.0429 149.299 38.9101C149.433 38.2142 149.231 37.6305 148.49 37.406C147.211 37.0243 145.931 36.6876 144.652 36.3508C140.251 35.2059 135.851 34.0161 131.406 32.9385C127.702 32.0405 123.998 31.0976 120.136 31.2547C118.048 31.3221 117.016 31.9956 116.365 33.9712C113.783 41.7388 111.224 49.5064 108.642 57.2741C108.44 57.8802 108.664 58.217 109.158 58.419C111.089 59.2946 112.975 60.3273 114.995 60.9558C121.64 62.9988 128.555 63.1559 135.425 63.807ZM153.182 39.5612C153.07 39.6285 152.98 39.7183 152.868 39.7857C152.756 40.5939 152.666 41.4021 152.509 42.2102C151.701 46.4757 150.848 50.7187 150.039 54.9842C149.546 57.6557 149.299 60.3946 148.603 63.0212C147.66 66.6357 145.325 69.0153 141.464 69.5541C140.139 69.7337 138.77 69.9807 137.445 69.8909C132.641 69.599 127.837 69.2174 123.032 68.7684C118.744 68.3418 114.546 67.354 110.618 65.5356C109.316 64.9295 108.103 64.1886 106.689 63.4253C106.913 65.6479 106.981 67.803 108.418 69.5541C110.281 71.7991 112.683 73.191 115.557 73.6624C122.83 74.8523 130.171 75.5258 137.535 75.7278C139.735 75.7952 141.958 75.7278 144.135 75.4809C147.458 75.1217 149.815 73.191 150.399 70.2276C151.544 64.4131 153.474 58.8456 155.293 53.2331C156.123 50.6514 156.662 47.9574 157.201 45.2859C157.358 44.4777 157.313 43.3103 156.819 42.749C155.809 41.5368 154.417 40.6163 153.182 39.5612ZM203.807 39.404C203.739 39.8979 203.65 40.1449 203.672 40.3918C203.762 43.1531 203.919 45.9145 203.919 48.6982C203.942 53.0311 203.986 57.3639 203.762 61.6967C203.515 66.3214 201.36 68.948 197.454 69.846C196.443 70.0705 195.388 70.2276 194.355 70.2725C186.655 70.497 178.955 70.7215 171.255 70.8787C169.436 70.9236 167.595 70.7664 165.777 70.5195C163.554 70.2052 161.713 69.1051 160.501 67.0622C160.119 69.2847 160.097 71.4175 160.568 73.5277C160.905 75.1217 162.005 76.0197 163.532 76.4238C164.25 76.6034 164.991 76.7605 165.732 76.783C168.65 76.8279 171.569 76.8054 174.487 76.8054C181.222 76.8279 187.957 76.9626 194.67 76.8503C197.027 76.8054 199.407 76.3115 201.741 75.7952C203.897 75.3237 205.109 73.7971 205.423 71.6195C205.67 69.9582 205.85 68.2745 205.962 66.6132C206.186 63.1784 206.344 59.7436 206.546 56.3087C206.77 52.7617 206.927 49.2146 207.287 45.69C207.533 42.7715 205.603 41.3123 203.807 39.404ZM60.6443 67.5561C60.9137 68.8357 61.3627 70.1154 62.6872 70.9236C64.8873 72.2481 67.3119 72.8318 69.8263 73.0339C74.855 73.4379 79.8164 72.9665 84.8003 72.2032C89.0433 71.5522 93.3312 71.1032 97.5967 70.5419C101.705 70.0031 102.558 68.948 102.85 64.8621C103.074 61.7416 103.568 58.6435 103.883 55.523C104.264 51.6167 104.668 47.7105 104.915 43.8042C105.117 40.6612 103.321 38.4611 100.964 36.2386C100.964 36.8896 100.964 37.2488 100.964 37.6305C100.964 42.4572 101.121 47.2839 100.919 52.1106C100.807 54.625 100.358 57.1843 99.6396 59.5864C98.6069 62.9539 96.2722 65.2213 92.6353 65.7377C90.6148 66.0295 88.5494 66.1642 86.5065 66.2765C80.5797 66.6132 74.6305 66.8826 68.6813 67.1969C66.0547 67.2642 63.4505 67.3989 60.6443 67.5561ZM48.5887 35.1386C48.5887 35.812 48.5663 36.1712 48.5887 36.5304C48.7234 39.5836 48.9704 42.6592 48.9704 45.7124C48.9479 50.8983 48.8806 56.1067 48.5663 61.2926C48.2745 65.9397 45.8723 69.4643 41.5395 71.2828C39.2945 72.2257 36.8475 73.0563 34.4678 73.2359C28.5411 73.6624 22.5919 73.6624 16.6651 73.8196C15.2508 73.8645 13.814 73.8196 12.3996 73.8196C12.3772 73.9094 12.3323 73.9992 12.3098 74.089C13.4772 74.5604 14.5997 75.2564 15.7896 75.436C18.5284 75.8401 21.2898 76.0421 24.0286 76.1993C31.2126 76.6258 38.3741 76.8279 45.4907 75.4584C47.7132 75.0319 49.9806 74.6053 51.9338 73.3257C53.5726 72.2481 54.6053 70.8562 54.5828 68.8133C54.5604 67.3989 54.6502 65.9622 54.6053 64.5478C54.3808 59.1599 54.089 53.7944 53.8869 48.4064C53.7747 45.4879 53.8869 42.5694 53.7971 39.651C53.7747 39.0224 53.4604 38.1693 52.9889 37.8325C51.6644 36.8896 50.2051 36.1263 48.5887 35.1386Z" fill="black"/>
<path d="M34.1742 55.2086C34.6007 54.8045 34.8926 54.6025 35.0497 54.3555C36.3742 52.2677 37.5641 50.1125 37.7661 47.5532C37.7886 47.3063 37.9101 46.5171 38.0448 46.3824C38.3816 46.0457 38.7315 46.0042 39.0682 46.0491C39.405 46.094 39.8771 46.5887 39.8098 46.9255C39.6077 48.3847 39.3601 50.0676 38.8886 51.482C38.4845 52.6718 37.8335 53.7943 37.16 54.8719C36.711 55.5903 36.8232 55.9495 37.5416 56.3536C38.3947 56.825 39.2478 57.3414 39.9438 57.9924C40.6397 58.6435 41.2459 59.4292 41.6948 60.2598C41.8744 60.5966 41.8463 61.4525 41.3357 61.6966C40.8959 61.8598 40.1683 61.4721 39.9662 61.1129C38.8886 59.272 37.0253 58.5312 35.364 57.4761C35.0946 57.3189 34.7579 57.2965 34.2864 57.1618C34.3762 58.172 34.4436 59.0251 34.5109 59.8782C34.5334 60.2598 34.7854 61.0249 34.6507 61.3167C34.4486 61.7657 34.2434 61.9956 33.6354 62.1681C33.2441 62.2791 32.6925 61.5619 32.6251 61.1803C32.3782 59.968 32.3108 58.7333 32.1986 57.521C31.8843 54.2433 31.5924 50.9881 31.2781 47.7104C31.2108 47.0593 31.2557 46.4532 31.9965 46.2736C32.8721 46.094 33.2537 46.7451 33.3435 47.4185C33.6129 49.4615 33.815 51.5044 34.0395 53.5473C34.0844 54.0188 34.1068 54.4678 34.1742 55.2086Z" fill="black"/>
<path d="M17.4939 39.6286C18.3919 40.7062 18.7724 41.0502 19.5805 42.038C19.9138 42.4453 20.5309 42.9884 20.8024 43.6672C20.9643 44.072 20.7267 44.6125 20.4797 44.7696C20.1655 44.9941 19.4471 44.9717 19.1328 44.7472C18.4817 44.2757 17.992 43.6854 17.4083 43.1242C16.9817 42.7201 16.5061 42.2777 15.7653 41.6715C15.8102 42.6369 15.8551 43.243 15.8775 43.8492C15.9 44.3431 16.0122 44.8594 15.8551 45.286C15.7204 45.6676 15.2489 46.1391 14.9122 46.1391C14.5754 46.1391 13.9693 45.6452 13.9468 45.3084C13.6775 42.3899 13.4754 39.4715 13.3183 36.5754C13.2958 36.2387 13.471 35.5652 14.2162 35.5652C14.5305 35.5427 15.0918 36.0366 15.2489 36.4407C15.4734 37.002 15.4285 37.6755 15.5183 38.6184C16.1469 37.8551 16.6408 37.2714 17.1123 36.7101C17.5613 36.1713 18.1001 35.6325 18.796 36.1713C19.492 36.7101 19.1777 37.3836 18.7511 37.9449C18.2797 38.5959 17.7409 39.2694 17.4939 39.6286Z" fill="black"/>
<path d="M171.499 46.7229C169.995 47.9127 168.424 47.7556 166.83 47.0821C165.73 46.6107 165.124 45.8025 165.034 44.5902C164.899 42.5697 164.764 40.5717 164.63 38.5512C164.607 38.3267 164.562 38.0348 164.675 37.9001C164.63 37.4221 165.122 36.7433 165.797 36.8674C166.48 36.8674 166.605 37.5858 166.628 37.9899C166.83 39.9206 166.919 41.8513 167.009 43.8044C167.054 44.6575 167.369 45.2188 168.266 45.3984C169.591 45.6678 170.107 45.3759 170.265 44.0289C170.444 42.435 170.534 40.8411 170.669 39.2247C170.691 38.843 170.692 38.5556 170.826 38.1246C170.96 37.6937 171.231 37.1506 171.881 37.1593C172.589 37.1688 172.861 37.6937 172.861 38.2367C172.861 39.0513 172.779 39.741 172.734 40.4819C172.667 41.3798 172.622 42.2778 172.487 43.1534C172.352 43.984 172.51 44.5902 173.183 45.1963C174.216 46.1392 174.216 48.9679 173.25 50.0006C173.048 50.2251 172.554 50.4271 172.285 50.3373C171.971 50.2251 171.656 49.821 171.589 49.4842C171.499 49.125 171.679 48.676 171.724 48.2719C171.769 47.778 171.791 47.2841 171.814 46.8127C171.701 46.8352 171.589 46.7678 171.499 46.7229Z" fill="black"/>
<path d="M95.3391 51.2698C95.3391 52.7964 95.4405 54.1982 95.4405 55.7248C95.4405 56.4207 95.2609 57.0718 94.4527 57.0942C93.5547 57.1167 93.4425 56.3983 93.42 55.6799C93.3751 52.9186 93.2853 50.1572 93.2629 47.3959C93.2629 46.5428 93.0384 46.1387 92.1179 46.0265C89.2668 45.6448 89.0423 45.802 88.975 48.698C88.9301 51.0777 89.1097 53.5023 88.2566 55.7921C88.0096 56.4432 87.7178 57.1167 87.2688 57.633C86.7524 58.2167 85.9667 58.3065 85.383 57.6779C84.8217 57.0718 85.3381 56.6452 85.6973 56.0615C86.2136 55.2533 86.5953 54.2431 86.6851 53.2778C86.8871 51.2124 86.8871 49.1021 86.9769 47.0143C87.0667 44.8815 87.9423 43.9611 90.075 43.8937C91.0852 43.8713 92.0955 43.8937 93.0833 44.0958C94.767 44.4101 95.3507 45.1734 95.3732 46.8796C95.3956 48.2939 95.3391 48.9051 95.3391 50.3195C95.3391 50.297 95.3391 51.2073 95.3391 51.2698Z" fill="black"/>
<path d="M69.001 36.7431C69.001 36.2 69.001 35.4494 69.001 34.9781C69.001 34.2822 68.8605 34.0161 68.2095 34.0385C66.4135 34.1283 66.0094 34.5549 65.8523 36.3509C65.7176 37.8326 65.5604 39.3367 65.2686 40.7735C65.1339 41.4245 64.7522 42.1654 64.2359 42.5246C63.8767 42.7715 62.9787 42.6593 62.5746 42.3674C62.0133 41.9633 62.5746 41.4694 62.7766 40.9306C63.2256 39.7857 63.4726 38.5509 63.6971 37.3162C63.8318 36.5529 63.7644 35.7447 63.8093 34.959C63.8767 33.7916 64.4379 32.8936 65.538 32.5793C66.7727 32.2425 68.0748 32.0405 69.3544 32.018C70.432 31.9956 71.1504 32.7813 71.1504 33.814C71.1504 36.3958 71.0157 38.955 70.8137 41.5143C70.7912 41.8511 70.3586 42.4572 69.781 42.4572C69.4083 42.4453 69.0459 41.7632 69.001 41.3591C68.8887 40.2591 69.001 39.4948 69.001 38.3723C69.001 38.1007 69.001 37.1504 69.001 36.7431Z" fill="black"/>
<path d="M139.824 58.9577C139.353 58.8006 139.039 58.6659 138.724 58.5985C135.132 57.8577 135.828 57.7454 134.885 60.5966C134.683 61.2252 134.302 61.8313 133.628 61.4946C133.247 61.2925 132.82 60.4843 132.932 60.0802C134.032 56.1291 135.963 52.6493 139.51 50.3819C141.62 49.0125 143.663 50.2472 143.776 52.784C143.776 53.0534 143.604 54.553 143.537 54.7999C142.976 57.4939 142.788 59.0251 141.373 61.4497C141.127 61.8762 140.363 62.3701 139.937 62.2803C139.106 62.1456 139.151 61.3374 139.331 60.6415C139.443 60.1027 139.622 59.5863 139.824 58.9577ZM140.767 57.0046C141.082 55.6576 141.463 54.3106 141.665 52.9636C141.755 52.4024 141.463 51.684 140.678 52.1105C139.039 52.9861 137.916 54.3555 136.996 56.0393C138.275 56.3535 139.375 56.6454 140.767 57.0046Z" fill="black"/>
<path d="M122.941 40.5713C122.29 40.4141 121.774 40.2794 121.28 40.1448C119.461 39.6509 119.461 39.6284 118.721 41.3121C118.496 41.8285 118.406 42.4122 118.092 42.8612C117.89 43.153 117.351 43.4673 117.037 43.4C116.722 43.3326 116.363 42.8387 116.296 42.4571C116.206 42.053 116.341 41.5366 116.543 41.1774C117.733 39.0223 118.855 36.8222 120.18 34.7568C120.943 33.5445 122.088 32.5792 123.749 33.0506C124.894 33.3649 125.792 34.7343 125.613 36.5528C125.366 38.8427 124.827 41.0876 124.288 43.3326C124.198 43.6694 123.714 44.3459 123.031 44.1184C122.425 43.9165 122.469 43.0299 122.492 42.5809C122.526 41.9021 122.717 41.357 122.941 40.5713ZM123.435 38.5957C123.435 37.4957 123.502 36.5752 123.413 35.6772C123.368 35.116 122.896 34.869 122.47 35.3405C121.819 36.014 121.28 36.7997 120.561 37.6977C121.594 38.0345 122.357 38.2814 123.435 38.5957Z" fill="black"/>
</g>
<defs>
<clipPath id="clip0_2001_104">
<rect width="205.551" height="58.9757" fill="white" transform="translate(5.46094 23.9805)"/>
</clipPath>
</defs>
</svg>
