<svg width="280" height="293" viewBox="0 0 280 293" fill="none" xmlns="http://www.w3.org/2000/svg">
<g clip-path="url(#clip0_2038_980)">
<path d="M36.4937 82.3256C35.7964 82.651 35.0991 82.9299 34.4483 83.2553C27.8009 86.7417 21.1069 90.1817 14.5989 93.854C9.20656 96.8756 6.23147 101.757 5.20878 107.846C4.23258 113.425 4.27906 118.91 5.58067 124.442C5.81309 125.371 5.53418 126.487 5.20878 127.463C4.27906 130.392 2.838 133.228 2.32666 136.203C0.792628 144.988 -0.369517 153.821 0.141827 162.792C0.792628 174.367 0.978571 186.035 2.5126 197.517C4.27906 210.44 7.90496 222.945 17.5275 232.707C10.2757 237.216 12.5535 246.374 19.1545 251.069C14.8778 255.02 14.1341 257.995 16.9697 261.621C18.2248 263.202 20.0378 264.41 21.7112 265.666C22.7804 266.456 24.082 266.921 25.4766 267.664C24.2215 268.548 23.1058 269.245 22.0831 270.082C18.1318 273.382 17.667 276.636 20.2237 281.099C22.641 285.329 26.7317 287.142 31.0084 288.63C42.3974 292.627 54.2048 293.185 66.0587 292.953C78.8423 292.72 91.6259 292.302 104.363 292.348C125.607 292.395 146.758 291.279 167.77 287.7C177.997 285.98 188.27 284.539 198.404 282.261C213.233 278.914 227.411 273.382 241.217 267.153C253.629 261.575 263.856 253.207 271.247 241.632C279.707 228.477 281.939 214.485 276.732 199.516C273.432 190.126 269.062 181.247 263.391 173.066C257.952 165.163 252.141 157.493 246.517 149.73C245.401 148.149 244.332 146.522 243.216 144.942C235.035 133.413 232.524 120.769 235.825 107.01C237.08 101.664 238.521 96.3643 239.497 90.9719C240.799 83.7201 237.777 79.211 230.711 77.1191C230.061 76.9332 229.363 76.6543 228.666 76.6078C223.739 76.2359 218.811 75.864 213.884 75.5386C210.351 75.3062 206.725 75.5851 203.331 74.7949C199.659 73.9581 198.776 71.5409 200.589 68.2404C202.123 65.4977 204.215 63.034 206.027 60.4772C207.561 58.2459 209.374 56.2005 210.583 53.7833C212.861 49.1812 211.745 45.2764 207.515 42.4872C205.33 41.0462 202.866 40.07 200.449 39.0473C198.822 38.35 197.056 37.9316 195.475 37.1878C192.361 35.7933 191.71 34.3057 192.733 31.0517C193.709 27.8907 194.917 24.7761 195.894 21.5686C197.985 14.7352 196.172 9.01744 190.78 4.46184C185.62 0.0456847 179.577 -0.930517 173.115 0.65C161.912 3.43915 155.218 11.4812 149.873 20.9643C148.85 22.7772 149.501 24.7761 151.035 25.3804C152.987 26.1707 154.149 25.1015 155.218 23.521C157.682 19.9881 160.146 16.3622 162.982 13.1547C166.282 9.43582 170.605 7.2045 175.533 6.18181C183.249 4.55481 194.174 10.6444 189.525 21.8475C188.316 24.6832 187.387 27.6583 186.596 30.6333C185.388 35.0495 186.829 38.8613 190.687 41.2786C192.64 42.4872 194.871 43.1845 197.009 44.1142C199.333 45.1369 201.704 46.1131 203.982 47.2288C205.749 48.112 206.074 49.6925 205.098 51.366C204.075 53.086 202.82 54.6665 201.658 56.2935C199.566 59.1756 197.195 61.8718 195.475 64.9864C191.57 72.1452 194.267 78.6532 202.123 80.6986C205.702 81.6283 209.607 81.5818 213.372 81.4423C218.997 81.2099 224.529 81.4423 229.921 83.1623C232.943 84.1385 233.733 85.3471 233.687 88.4617C233.687 89.4379 233.594 90.4606 233.361 91.4368C232.013 97.8518 230.525 104.267 229.27 110.728C227.132 121.56 228.527 131.972 234.337 141.409C239.544 149.823 244.983 158.097 250.979 166C258.742 176.273 265.622 186.919 270.131 199.005C272.502 205.281 274.176 211.742 273.385 218.529C271.991 230.476 266.459 240.098 257.022 247.629C241.914 259.669 224.901 267.943 206.632 273.801C191.291 278.728 175.3 280.309 159.495 282.865C142.016 285.701 124.259 286.584 106.501 285.98C96.042 285.608 85.5827 284.818 75.1699 285.05C65.0825 285.283 55.088 285.469 45.2331 282.958C39.1899 281.424 33.1003 279.937 27.0571 278.31C26.2668 278.077 25.1977 277.148 25.1047 276.404C25.0117 275.706 25.802 274.544 26.5458 274.079C30.1717 271.848 34.0765 270.686 38.4461 271.104C40.9564 271.383 43.5131 271.197 46.0233 270.872C47.6968 270.686 48.8125 269.431 48.673 267.571C48.5335 265.759 47.2784 264.829 45.6049 264.643C44.3033 264.503 42.9553 264.364 41.6536 264.55C35.2386 265.387 29.6603 262.923 24.175 260.087C23.0128 259.483 22.1296 258.367 21.0604 257.438C23.0593 255.346 25.1977 255.113 27.3825 255.113C32.1705 255.206 36.9586 255.439 41.7931 255.578C44.1639 255.625 45.512 254.555 45.5585 252.743C45.6514 250.93 44.3498 249.721 42.072 249.489C40.0731 249.303 38.0278 249.396 36.0754 248.977C31.5662 248.001 27.0571 246.932 22.5945 245.63C20.0842 244.886 18.9686 242.469 19.1545 240.145C19.2475 238.983 21.0604 237.728 22.362 237.03C26.5922 234.753 31.3803 234.938 35.9824 234.892C52.1594 234.845 68.3365 235.078 84.56 234.985C98.9706 234.892 113.335 234.334 127.745 234.195C136.996 234.102 146.154 233.776 155.218 231.824C165.864 229.546 175.951 226.013 184.69 219.412C198.311 209.092 198.264 190.916 192.779 181.805C188.921 175.437 184.179 169.765 178.043 165.303C172.186 161.026 166.468 156.517 161.029 151.682C150.43 142.246 142.946 130.903 141.877 116.26C141.645 112.913 141.552 109.566 141.366 106.126C153.824 107.939 158.426 103.244 163.214 96.1318C164.655 93.947 164.562 92.0411 162.982 91.0184C161.448 89.9957 159.867 90.5535 158.333 92.6919C157.31 94.1329 156.288 95.6205 155.125 96.9686C151.871 100.641 146.619 101.757 142.156 99.6648C142.342 98.1772 142.388 96.6432 142.76 95.1556C143.551 91.8551 144.48 88.6011 145.317 85.3471C145.596 84.2315 146.293 82.6974 145.828 82.0002C145.178 81.024 143.643 80.1407 142.481 80.0942C139.413 80.0013 136.299 80.4196 133.231 80.6056C128.629 80.838 124.026 81.0704 118.867 81.3029C121.423 77.3516 123.562 73.8651 125.886 70.5182C132.254 61.2675 138.809 52.1563 145.038 42.8126C146.99 39.9305 149.315 37.9781 152.522 37.0019C157.915 35.3749 162.796 39.2332 162.61 44.858C162.563 45.7877 162.331 46.7174 162.377 47.6471C162.424 49.3671 162.517 51.2266 164.702 51.6914C166.933 52.1563 167.956 50.6687 168.699 48.9487C171.303 43.0451 167.212 33.7014 160.983 31.6095C153.731 29.1458 147.362 30.8193 142.063 36.2581C139.413 38.9543 136.95 41.8829 134.765 44.9045C129.837 51.8309 125.003 58.8502 120.308 65.9626C117.007 70.983 113.893 76.1894 110.917 81.3958C110.267 82.5115 109.895 84.4174 110.453 85.4401C111.01 86.4163 112.823 87.2531 114.079 87.2531C120.494 87.2066 126.909 86.8812 133.324 86.6487C134.997 86.6022 136.624 86.6487 138.298 86.6487C137.554 90.6 136.903 94.3654 136.159 98.2702C134.951 97.9913 134.021 97.6194 133.045 97.5264C129.884 97.294 126.676 96.5967 123.655 97.0616C113.102 98.828 104.084 108.125 101.853 119.235C101.481 121.002 102.085 122.954 102.225 125.046C93.3923 127.091 87.3957 133.506 83.1655 141.827C78.8423 150.381 76.0067 159.446 73.9148 168.743C72.8921 173.345 71.9624 177.947 70.9397 182.828C67.0349 172.601 56.994 131.786 56.715 125.697C67.4068 119.886 78.0055 114.215 88.4648 108.404C90.2313 107.428 91.7653 105.801 93.0205 104.174C95.7631 100.594 95.2518 96.7362 92.0907 93.4822C91.5329 92.9243 91.161 91.7157 91.347 90.9254C93.9502 80.5126 96.6464 70.0998 99.296 59.687C99.7609 57.8275 100.272 55.9216 100.319 54.0157C100.412 50.2968 98.1804 48.3909 94.508 49.0882C90.8356 49.739 87.2562 50.5758 83.6303 51.366C79.1677 52.3422 74.7515 53.3649 70.2889 54.3876C70.6608 53.5044 71.2186 53.086 71.6835 52.6211C75.8672 48.7628 79.7255 44.6256 81.5385 39.0473C83.2584 33.7014 81.0271 30.3079 75.4953 29.5642C75.3094 29.5177 75.1234 29.3782 74.984 29.2853C75.4953 27.5653 76.1461 25.9848 76.4715 24.3578C77.3083 20.0346 74.6586 16.1298 70.2889 16.0833C67.3138 16.0368 64.1063 16.7806 61.3636 17.9892C55.6459 20.4994 50.8578 24.5437 46.9065 29.3782C45.6049 30.9587 44.3498 32.6322 43.0947 34.3057C43.1412 32.8647 43.5131 31.5631 44.1639 30.4009C50.6719 18.9654 59.9226 10.8769 72.4272 6.60018C73.171 6.36775 73.9148 6.18181 74.6121 5.85641C76.0531 5.15912 76.8899 3.85752 76.1926 2.46295C75.7277 1.53323 74.3332 0.882429 73.264 0.464057C72.6597 0.231628 71.7764 0.65 71.0327 0.835943C63.8274 2.78835 57.6912 6.64667 52.1594 11.4347C45.5585 17.106 39.8872 23.521 37.098 31.9814C35.7964 35.8862 35.75 39.6981 37.9348 43.4169C38.3532 44.1142 38.2602 45.1834 38.1207 46.0201C37.0516 52.6676 39.004 56.5724 45.0006 59.6405C45.0471 59.687 45.0471 59.8729 45.0471 60.0124C42.072 60.8026 39.0504 61.4069 36.1683 62.4761C31.2408 64.2891 29.9857 66.9852 31.8451 71.8663C33.0538 75.3992 34.8202 78.7462 36.4937 82.3256Z" fill="white"/>
<path d="M151.033 49.1357C146.757 49.1357 143.596 51.8319 143.596 55.4578C143.642 58.8048 146.431 61.5939 149.871 61.5939C154.241 61.6404 157.588 58.7583 157.634 54.993C157.681 51.4135 155.078 49.1357 151.033 49.1357Z" fill="white"/>
<path d="M36.493 82.3256C34.8195 78.7462 33.053 75.3992 31.705 71.8663C29.8455 66.9852 31.1006 64.2891 36.0281 62.4761C38.9103 61.4069 41.9318 60.8026 44.9069 60.0124C44.9069 59.8729 44.9069 59.687 44.8604 59.6405C38.8638 56.5724 36.9114 52.6676 37.9805 46.0201C38.12 45.1834 38.213 44.0677 37.7946 43.4169C35.6098 39.6981 35.6562 35.8862 36.9579 31.9814C39.7935 23.521 45.4648 17.106 52.0193 11.4347C57.5975 6.64667 63.7337 2.78835 70.8925 0.835943C71.6363 0.65 72.5195 0.231628 73.1238 0.464057C74.2395 0.882429 75.5876 1.53323 76.0524 2.46295C76.7497 3.85752 75.913 5.15912 74.4719 5.85641C73.7746 6.18181 73.0308 6.36775 72.2871 6.60018C59.7824 10.8769 50.4852 19.0119 44.0237 30.4009C43.3729 31.5631 43.001 32.8647 42.9545 34.3057C44.2096 32.6787 45.4648 31.0052 46.7664 29.3782C50.7641 24.4972 55.5057 20.4994 61.2234 17.9892C63.9661 16.7806 67.1736 16.0833 70.1487 16.0833C74.5184 16.1298 77.1681 20.0346 76.3313 24.3578C76.0059 25.9848 75.4016 27.6118 74.8438 29.2853C74.9832 29.3782 75.1692 29.5177 75.3551 29.5642C80.8869 30.2615 83.1647 33.7014 81.3983 39.0473C79.5853 44.6256 75.727 48.7628 71.5433 52.6211C71.0319 53.086 70.5206 53.5044 70.1487 54.3876C74.6113 53.3649 79.0275 52.3422 83.4901 51.366C87.116 50.5758 90.7419 49.739 94.3678 49.0882C98.0402 48.4374 100.318 50.3433 100.179 54.0157C100.132 55.9216 99.6207 57.8275 99.1559 59.687C96.5062 70.0998 93.81 80.5126 91.2068 90.9254C91.0208 91.6692 91.3927 92.8778 91.9506 93.4822C95.0651 96.7362 95.5764 100.594 92.8803 104.174C91.6252 105.801 90.0911 107.428 88.3247 108.404C77.8654 114.261 67.3131 119.886 56.5749 125.697C56.8538 131.786 66.8947 172.601 70.7995 182.828C71.8222 177.947 72.7519 173.345 73.7746 168.743C75.913 159.446 78.7021 150.334 83.0253 141.827C87.2555 133.506 93.2522 127.091 102.084 125.046C101.899 122.954 101.341 121.002 101.713 119.235C103.944 108.079 112.962 98.7815 123.514 97.0616C126.536 96.5502 129.79 97.2475 132.905 97.5264C133.881 97.6194 134.81 97.9913 136.019 98.2702C136.716 94.3654 137.414 90.6 138.157 86.6487C136.484 86.6487 134.81 86.6023 133.183 86.6487C126.768 86.8812 120.353 87.2066 113.938 87.2531C112.683 87.2531 110.87 86.4163 110.312 85.4401C109.755 84.4639 110.127 82.558 110.777 81.3958C113.752 76.1894 116.867 70.983 120.167 65.9626C124.863 58.8502 129.697 51.8309 134.625 44.9045C136.809 41.8364 139.273 38.9078 141.923 36.2581C147.222 30.8658 153.637 29.1923 160.843 31.6095C167.072 33.7014 171.162 43.0915 168.559 48.9488C167.815 50.6687 166.793 52.1563 164.561 51.6914C162.377 51.2266 162.284 49.3671 162.237 47.6471C162.191 46.7174 162.47 45.7877 162.47 44.858C162.655 39.2332 157.774 35.4214 152.382 37.0019C149.175 37.9316 146.804 39.884 144.898 42.8126C138.669 52.1563 132.114 61.2675 125.746 70.5182C123.421 73.8651 121.283 77.3516 118.726 81.3029C123.886 81.024 128.488 80.838 133.09 80.6056C136.159 80.4196 139.273 80.0013 142.341 80.0942C143.503 80.1407 145.037 81.024 145.688 82.0002C146.153 82.6974 145.502 84.185 145.177 85.3471C144.34 88.6011 143.364 91.8552 142.62 95.1556C142.248 96.6432 142.202 98.1772 142.016 99.6648C146.478 101.757 151.778 100.641 154.985 96.9686C156.147 95.6205 157.17 94.133 158.193 92.6919C159.727 90.5535 161.261 89.9957 162.841 91.0184C164.422 92.0876 164.561 93.947 163.074 96.1318C158.332 103.291 153.73 107.939 141.225 106.126C141.411 109.566 141.458 112.913 141.737 116.26C142.853 130.903 150.29 142.246 160.889 151.682C166.328 156.517 172.046 161.073 177.903 165.303C184.085 169.765 188.78 175.437 192.639 181.805C198.171 190.963 198.217 209.139 184.55 219.412C175.811 226.013 165.677 229.546 155.078 231.824C146.014 233.776 136.809 234.102 127.605 234.195C113.195 234.334 98.8305 234.845 84.4199 234.985C68.2428 235.078 52.0657 234.845 35.8422 234.892C31.2401 234.892 26.4521 234.706 22.2219 237.03C20.9202 237.728 19.1073 239.029 19.0143 240.145C18.8284 242.469 19.8976 244.886 22.4543 245.63C26.8704 246.932 31.3796 248.001 35.9352 248.977C37.8876 249.396 39.9329 249.303 41.9318 249.489C44.2096 249.721 45.5112 250.93 45.4183 252.743C45.3253 254.555 44.0237 255.625 41.6529 255.578C36.8649 255.439 32.0768 255.16 27.2423 255.113C25.104 255.067 22.9191 255.346 20.9202 257.438C21.9894 258.367 22.8727 259.483 24.0348 260.087C29.4736 262.923 35.0519 265.387 41.5135 264.55C42.8151 264.364 44.1632 264.503 45.4648 264.643C47.1847 264.829 48.3934 265.759 48.5328 267.571C48.6723 269.384 47.5566 270.64 45.8831 270.872C43.3729 271.197 40.7697 271.337 38.3059 271.104C33.9363 270.64 30.0315 271.802 26.4056 274.079C25.6618 274.544 24.8715 275.66 24.9645 276.404C25.0575 277.148 26.1267 278.077 26.9169 278.31C32.9601 279.937 39.0497 281.424 45.0929 282.958C54.9479 285.469 64.9423 285.283 75.0297 285.05C85.4425 284.771 95.9018 285.608 106.361 285.98C124.119 286.584 141.876 285.701 159.355 282.865C175.114 280.309 191.151 278.728 206.492 273.801C224.807 267.943 241.774 259.669 256.882 247.629C266.365 240.098 271.851 230.476 273.245 218.529C274.035 211.742 272.362 205.281 269.991 199.005C265.482 186.919 258.556 176.273 250.839 166C244.889 158.097 239.404 149.823 234.197 141.409C228.386 131.972 226.992 121.56 229.13 110.728C230.385 104.267 231.873 97.8983 233.221 91.4368C233.407 90.4606 233.5 89.4379 233.546 88.4617C233.593 85.3007 232.803 84.1385 229.781 83.1623C224.389 81.3958 218.903 81.2099 213.232 81.4423C209.467 81.5818 205.562 81.6283 201.982 80.6986C194.126 78.6532 191.477 72.1452 195.335 64.9864C197.008 61.8718 199.426 59.1756 201.518 56.2935C202.68 54.6665 203.935 53.086 204.958 51.366C205.934 49.739 205.608 48.1585 203.842 47.2288C201.564 46.0666 199.193 45.1369 196.869 44.1142C194.777 43.1845 192.499 42.4872 190.547 41.2786C186.689 38.8613 185.248 35.0495 186.456 30.6333C187.246 27.6583 188.176 24.6832 189.385 21.8475C194.033 10.6909 183.109 4.55481 175.393 6.18181C170.419 7.2045 166.142 9.43582 162.841 13.1547C160.006 16.3622 157.542 19.9881 155.078 23.521C153.963 25.1015 152.847 26.1242 150.895 25.3804C149.361 24.7761 148.71 22.7772 149.732 20.9643C155.078 11.4812 161.726 3.39266 172.975 0.65C179.437 -0.930517 185.48 0.0456847 190.64 4.46184C196.032 9.01745 197.845 14.7352 195.753 21.5686C194.777 24.7296 193.615 27.8442 192.592 31.0517C191.57 34.3057 192.267 35.7933 195.335 37.1878C196.962 37.9316 198.728 38.35 200.309 39.0473C202.726 40.1164 205.19 41.0927 207.375 42.4872C211.651 45.2764 212.721 49.1812 210.443 53.7833C209.281 56.2005 207.421 58.2459 205.887 60.4772C204.074 63.0804 201.982 65.4977 200.448 68.2404C198.635 71.5409 199.565 73.9581 203.191 74.7949C206.585 75.5386 210.21 75.3062 213.743 75.5386C218.671 75.864 223.598 76.2359 228.526 76.6078C229.223 76.6543 229.874 76.9332 230.571 77.1191C237.637 79.1645 240.659 83.7201 239.357 90.9719C238.381 96.3643 236.94 101.664 235.685 107.01C232.384 120.769 234.894 133.413 243.076 144.942C244.192 146.522 245.214 148.149 246.376 149.73C252.001 157.493 257.765 165.163 263.251 173.066C268.922 181.247 273.292 190.126 276.592 199.516C281.845 214.485 279.567 228.477 271.107 241.632C263.716 253.207 253.489 261.575 241.077 267.153C227.224 273.336 213.093 278.914 198.264 282.261C188.176 284.539 177.856 285.933 167.629 287.7C146.664 291.279 125.513 292.348 104.223 292.348C91.4392 292.348 78.6556 292.767 65.9185 292.953C54.0181 293.139 42.2107 292.581 30.8682 288.63C26.5915 287.142 22.5008 285.329 20.0835 281.099C17.4803 276.636 17.9452 273.382 21.9429 270.082C22.9191 269.245 24.0348 268.548 25.3364 267.664C23.9883 266.967 22.6867 266.456 21.5711 265.666C19.8976 264.457 18.0846 263.248 16.8295 261.621C14.0403 257.995 14.7841 255.02 19.0143 251.069C12.5528 246.374 10.275 237.216 17.5268 232.707C7.90422 222.945 4.23185 210.44 2.51187 197.517C0.977839 186.035 0.791896 174.367 0.141095 162.792C-0.370249 153.867 0.74541 144.988 2.32593 136.203C2.83727 133.228 4.27833 130.392 5.20805 127.463C5.48696 126.487 5.76588 125.371 5.57993 124.442C4.27833 118.91 4.23185 113.378 5.20805 107.846C6.23073 101.803 9.20583 96.9221 14.5982 93.854C21.1527 90.1817 27.8466 86.7882 34.4476 83.2553C35.0984 82.9299 35.7957 82.651 36.493 82.3256ZM5.85885 164.977C6.37019 173.112 6.92802 181.201 7.43937 189.336C8.09017 199.237 10.4609 208.72 14.3658 217.832C16.1787 222.108 18.8284 225.827 22.3148 228.849C23.0586 229.453 24.2207 229.872 25.1505 229.872C29.5666 229.732 33.9363 229.267 38.3524 229.174C44.0237 229.128 49.6485 229.453 55.3197 229.453C62.4321 229.453 69.5909 229.174 76.7032 229.174C88.3247 229.128 99.8996 229.267 111.521 229.174C113.659 229.174 116.03 228.616 117.936 227.64C122.027 225.548 124.909 222.155 127.326 218.25C138.204 200.678 141.969 181.433 140.621 161.073C140.296 156.006 139.645 150.799 136.159 146.662C133.741 143.733 131.371 140.758 128.581 138.155C121.701 131.786 113.148 129.834 104.223 130.95C96.971 131.833 92.1365 136.993 89.2079 143.315C85.9539 150.474 83.1182 157.865 80.8404 165.396C76.8892 178.551 75.6805 192.264 73.8676 205.838C73.5887 207.791 73.0308 209.371 70.846 209.65C69.126 209.883 67.8244 208.442 67.499 205.931C67.2201 204.025 67.4061 202.027 66.9877 200.167C64.245 187.941 61.6883 175.716 58.5273 163.583C55.8311 153.123 51.7868 142.99 50.2063 132.205C49.7414 128.997 49.1371 125.79 48.1609 122.722C47.1382 119.607 44.8604 118.259 41.8853 118.724C35.0984 119.84 28.358 121.188 21.5711 122.303C13.436 123.605 9.67068 129.09 8.22962 136.435C6.50965 145.732 5.57993 155.308 5.85885 164.977ZM127.466 228.198C144.154 228.802 159.913 226.432 174.649 218.947C178.972 216.763 182.83 214.02 185.666 209.929C191.151 201.934 191.988 193.38 187.572 184.92C184.457 178.97 179.809 174.042 174.23 169.951C168.048 165.442 162.051 160.654 156.333 155.541C142.713 143.361 135.322 128.254 135.508 109.706C135.554 103.848 135.043 103.384 129.046 102.733C128.907 102.733 128.721 102.733 128.581 102.686C120.818 102.082 112.776 107.381 109.243 115.702C108.035 118.492 107.244 121.467 106.315 124.349C106.501 124.395 106.594 124.442 106.64 124.442C107.244 124.488 107.895 124.488 108.499 124.535C124.537 124.814 135.368 133.413 143.271 146.569C144.108 147.917 144.619 149.544 144.991 151.078C148.338 165.256 147.315 179.481 144.061 193.427C141.179 206.024 135.787 217.692 127.466 228.198ZM79.4924 87.346C79.3529 87.0671 79.2134 86.7882 79.074 86.4628C77.6794 86.5558 76.2384 86.4163 74.8903 86.7417C70.0557 87.9039 65.4536 89.6703 61.4094 92.7384C59.7824 93.9935 57.83 94.9232 55.9241 95.667C54.483 96.2248 52.949 95.8994 52.0657 94.4119C51.136 92.9243 51.6009 91.5298 52.7165 90.4141C53.4138 89.7168 54.2041 89.0195 55.0873 88.5547C57.3186 87.2995 59.5964 86.1839 61.8278 84.9753C64.7564 83.3947 67.3131 81.3958 68.8006 78.1883C67.3131 78.2348 65.965 78.4672 64.7099 78.8856C58.4808 81.024 52.3911 83.4412 46.0691 85.3936C36.0746 88.4617 26.9634 93.4357 18.0381 98.735C11.7161 102.5 8.50854 112.867 11.1117 119.561C13.9474 118.584 16.69 117.236 19.6186 116.632C26.638 115.145 33.7503 114.075 40.8162 112.727C44.3491 112.03 47.4172 113.006 50.1598 115.098C51.8798 116.446 53.5068 117.934 55.2733 119.421C59.0386 117.515 62.9899 115.563 66.8482 113.471C73.1703 110.031 79.4924 106.591 85.7215 102.965C87.209 102.082 89.4403 100.641 88.3247 98.735C87.7203 97.6659 84.9312 97.108 83.4437 97.4799C78.8416 98.6886 74.3324 100.409 69.8698 102.036C67.8244 102.779 65.965 103.895 63.9661 104.732C62.3856 105.383 60.991 104.918 60.1543 103.43C59.364 101.943 59.7824 100.502 61.1305 99.5253C62.1067 98.828 63.2688 98.3167 64.3845 97.7124C68.2428 95.574 72.1476 93.5286 75.8665 91.1579C77.261 90.2746 78.2837 88.6476 79.4924 87.346ZM51.4614 76.5148C51.7403 76.6543 52.0193 76.7938 52.2982 76.9332C54.9014 75.957 57.4581 74.8878 60.1078 74.0976C63.1294 73.2143 66.2439 72.2846 69.312 72.0987C73.2168 71.8663 75.5411 74.9343 74.9832 78.8391C74.9368 79.304 74.8903 79.7688 74.8438 80.1872C85.3961 81.7677 85.8144 82.2326 84.6988 91.1114C87.7668 79.211 90.8349 67.3106 93.903 55.4103C93.7635 55.4103 93.5311 55.2708 93.2986 55.3173C80.608 58.1065 67.9639 60.9421 55.3197 63.7777C54.7619 63.9172 54.0181 64.5215 53.8787 65.0328C52.9955 68.8912 52.2517 72.703 51.4614 76.5148ZM45.9761 41.4645C47.882 40.9997 49.3696 40.9067 50.4852 40.3024C55.2268 37.6062 59.9683 34.91 64.5704 31.8885C66.2439 30.7728 67.685 29.0528 68.7541 27.2864C69.6374 25.8918 69.8233 24.0788 70.3347 22.4518C68.6612 22.5448 66.9412 22.4518 65.3142 22.7308C64.2915 22.9167 63.3153 23.5675 62.3856 24.0788C56.1565 27.5653 51.322 32.4463 47.6496 38.4894C47.1382 39.2332 46.7199 40.07 45.9761 41.4645ZM75.913 35.8398C70.939 35.5608 61.177 45.5088 59.0851 52.7606C65.9185 51.366 75.2157 42.0689 75.913 35.8398ZM46.9988 65.7301C44.1631 66.4274 41.374 67.1247 38.6313 67.822C37.1438 68.1939 36.8184 69.0306 37.5157 70.3787C38.6778 72.7495 39.747 75.1203 40.9556 77.491C42.4432 80.4196 43.001 80.5591 45.6507 79.0251C46.0691 74.6554 46.4874 70.4252 46.9988 65.7301ZM43.8842 47.9261C43.2799 52.0168 46.2085 55.2243 50.4852 54.713C50.8571 54.6665 51.3685 54.3411 51.5079 54.0157C53.0884 50.9476 54.6689 47.8796 56.1565 44.951C52.1587 45.8807 48.1609 46.8569 43.8842 47.9261Z" fill="black"/>
<path d="M151.033 49.1363C155.031 49.1363 157.681 51.4606 157.634 54.9935C157.634 58.7589 154.241 61.641 149.871 61.5945C146.431 61.548 143.642 58.8054 143.596 55.4584C143.596 51.8325 146.757 49.0898 151.033 49.1363Z" fill="black"/>
<path d="M5.85926 164.978C5.58034 155.309 6.51006 145.733 8.36949 136.297C9.81055 128.952 13.5294 123.467 21.7109 122.165C28.4978 121.096 35.2383 119.701 42.0252 118.586C44.9538 118.121 47.2781 119.469 48.3008 122.583C49.277 125.651 49.8813 128.859 50.3462 132.066C51.9267 142.851 55.9709 152.939 58.6671 163.444C61.7817 175.577 64.3849 187.803 67.1275 200.029C67.5459 201.888 67.36 203.887 67.6389 205.793C67.9643 208.303 69.2659 209.698 70.9859 209.512C73.1707 209.233 73.7285 207.652 74.0074 205.7C75.8204 192.126 77.029 178.413 80.9803 165.257C83.2581 157.727 86.0473 150.335 89.3478 143.177C92.2299 136.855 97.1109 131.695 104.363 130.811C113.334 129.742 121.841 131.648 128.721 138.017C131.464 140.573 133.835 143.595 136.298 146.524C139.785 150.707 140.389 155.867 140.761 160.934C142.109 181.295 138.344 200.54 127.466 218.112C125.049 222.016 122.167 225.456 118.076 227.502C116.17 228.478 113.846 229.036 111.661 229.036C100.039 229.175 88.4645 228.989 76.8431 229.036C69.7307 229.036 62.5719 229.315 55.4596 229.315C49.7883 229.315 44.1636 228.989 38.4923 229.036C34.0761 229.082 29.7065 229.594 25.2903 229.733C24.3606 229.78 23.152 229.361 22.4547 228.71C18.9218 225.689 16.3186 221.97 14.5056 217.693C10.6008 208.582 8.23003 199.099 7.57923 189.198C6.92843 181.202 6.41709 173.067 5.85926 164.978Z" fill="#9747FF"/>
<path d="M127.466 228.198C135.74 217.692 141.179 206.07 144.061 193.473C147.315 179.527 148.338 165.302 144.991 151.124C144.619 149.544 144.061 147.963 143.271 146.615C135.415 133.413 124.584 124.86 108.546 124.581C107.942 124.581 107.291 124.534 106.687 124.488C106.594 124.488 106.547 124.441 106.361 124.395C107.338 121.513 108.128 118.538 109.29 115.748C112.823 107.427 120.865 102.128 128.628 102.732C128.767 102.732 128.953 102.732 129.093 102.779C135.09 103.43 135.601 103.894 135.554 109.752C135.368 128.3 142.76 143.407 156.38 155.587C162.098 160.7 168.094 165.488 174.277 169.997C179.855 174.088 184.504 179.016 187.619 184.966C192.035 193.426 191.198 201.98 185.713 209.975C182.877 214.066 179.019 216.808 174.695 218.993C159.913 226.385 144.201 228.755 127.466 228.198Z" fill="white"/>
<path d="M79.4924 87.3452C78.2838 88.6468 77.2611 90.2738 75.7736 91.2035C72.0547 93.5743 68.1499 95.5732 64.2916 97.758C63.2224 98.3623 62.0603 98.8272 61.0376 99.571C59.6895 100.547 59.2711 101.988 60.0614 103.476C60.8516 104.963 62.2927 105.428 63.8732 104.777C65.8721 103.941 67.7315 102.825 69.7769 102.081C74.286 100.454 78.7487 98.7342 83.3508 97.5256C84.8383 97.1537 87.6275 97.7115 88.2318 98.7807C89.3474 100.687 87.1161 102.128 85.6286 103.011C79.3995 106.637 73.0774 110.077 66.7553 113.517C62.897 115.609 58.8992 117.561 55.1804 119.467C53.4139 117.979 51.7869 116.445 50.0669 115.144C47.3243 113.052 44.2562 112.122 40.7233 112.773C33.6574 114.121 26.5451 115.19 19.5258 116.678C16.5972 117.282 13.8545 118.584 11.0189 119.606C8.41566 112.866 11.6697 102.5 17.9452 98.7807C26.917 93.4348 35.9817 88.4609 46.0227 85.3928C52.2983 83.4869 58.4344 81.0696 64.6635 78.8848C65.9651 78.4199 67.3132 78.234 68.7542 78.1875C67.2667 81.395 64.71 83.3474 61.7814 84.9744C59.55 86.1831 57.2258 87.2987 55.0409 88.5538C54.1577 89.0652 53.3674 89.716 52.6701 90.4133C51.5545 91.5754 51.1361 92.9235 52.0193 94.411C52.9491 95.8986 54.4366 96.224 55.8777 95.6662C57.7836 94.8759 59.736 93.9462 61.363 92.7376C65.4073 89.716 70.0093 87.903 74.8439 86.7409C76.192 86.4155 77.633 86.5549 79.0276 86.462C79.2135 86.7874 79.353 87.0663 79.4924 87.3452Z" fill="white"/>
<path d="M51.4609 76.5143C52.2512 72.7025 52.995 68.8906 53.8782 65.0788C54.0177 64.5674 54.7614 63.9631 55.3193 63.8237C67.9634 60.9416 80.654 58.1524 93.2982 55.3633C93.4841 55.3168 93.7165 55.4097 93.9025 55.4562C90.8344 67.4031 87.7663 79.257 84.6983 91.1573C85.8604 82.2785 85.4421 81.8137 74.8433 80.2332C74.8898 79.7683 74.9363 79.3034 74.9828 78.8851C75.5406 75.0267 73.2163 71.9122 69.3115 72.1446C66.1969 72.3306 63.1289 73.2603 60.1073 74.1435C57.4576 74.8873 54.9009 76.003 52.2977 76.9792C52.0188 76.7932 51.7399 76.6538 51.4609 76.5143Z" fill="white"/>
<path d="M45.9766 41.4668C46.7203 40.0722 47.0922 39.2355 47.5571 38.4917C51.2295 32.4021 56.1105 27.5675 62.2931 24.0811C63.2228 23.5698 64.199 22.919 65.2217 22.733C66.8487 22.4541 68.5687 22.5471 70.2422 22.4541C69.7308 24.0811 69.5449 25.8941 68.6616 27.2886C67.5925 29.0086 66.1514 30.7751 64.4779 31.8907C59.9223 34.8658 55.1808 37.6085 50.3927 40.3046C49.37 40.909 47.929 40.9554 45.9766 41.4668Z" fill="white"/>
<path d="M75.9118 35.8417C75.2146 42.0708 65.9639 51.368 59.084 52.7625C61.1758 45.4643 70.8914 35.5628 75.9118 35.8417Z" fill="white"/>
<path d="M46.9969 65.7314C46.532 70.4265 46.0672 74.6102 45.6023 79.0264C42.9526 80.5139 42.3948 80.3745 40.9072 77.4924C39.7451 75.1681 38.6294 72.7508 37.4673 70.38C36.8165 69.0319 37.0954 68.1952 38.5829 67.8233C41.3721 67.1725 44.1148 66.4752 46.9969 65.7314Z" fill="white"/>
<path d="M43.8843 47.9272C48.161 46.9046 52.1588 45.9284 56.1565 44.9521C54.669 47.8808 53.135 50.9488 51.508 54.0169C51.322 54.3423 50.8572 54.6677 50.4853 54.7142C46.2086 55.2255 43.2335 52.018 43.8843 47.9272Z" fill="white"/>
</g>
<defs>
<clipPath id="clip0_2038_980">
<rect width="279.566" height="293" fill="white"/>
</clipPath>
</defs>
</svg>
