<svg width="240" height="222" viewBox="0 0 240 222" fill="none" xmlns="http://www.w3.org/2000/svg">
<g clip-path="url(#clip0_2025_962)">
<path d="M35.5 62.627L4.5 101.127V107.127L101.5 210.627L114 135.627L35.5 62.627Z" fill="#9747FF"/>
<path d="M203 73.627L116.5 133.127L106.5 211.627H111L119 209.127L235.5 133.127L203 73.627Z" fill="#9747FF"/>
<path d="M108.541 220.98C102.634 221.11 96.9212 218.968 92.3121 214.488C86.08 208.386 79.8479 202.154 73.9404 195.727C54.0757 174.045 34.2759 152.232 14.5409 130.485C10.9705 126.59 7.65968 122.435 4.34889 118.28C-0.519925 112.113 -1.36385 105.297 2.27153 98.221C3.95938 94.9751 6.03674 91.924 8.30885 89.0027C15.5147 79.5897 22.9153 70.2415 30.251 60.8934C30.6405 60.3741 31.3546 59.8547 31.3546 59.3354C31.6792 53.8174 35.8988 51.4155 39.8588 49.0784C46.4154 45.1185 53.1668 41.4182 59.9183 37.8477C75.888 29.4084 91.0137 19.541 105.49 8.69975C107.957 6.81715 110.684 5.19421 113.41 3.63619C120.551 -0.453614 128.082 -1.36246 135.417 2.40276C141.909 5.71355 148.531 9.15418 154.308 13.6335C170.018 25.9029 184.884 39.1461 197.543 54.5964C200.01 57.5826 201.309 61.4777 203.256 64.9832C205.463 69.073 207.67 73.0979 210.007 77.1228C218.901 92.5732 227.99 107.894 236.689 123.409C242.012 132.887 241.363 138.6 232.923 145.351C223.38 152.946 213.383 160.022 203.061 166.449C183.846 178.329 164.111 189.365 144.83 201.05C136.716 205.984 129.055 211.697 121.135 216.955C117.435 219.227 113.735 221.564 108.541 220.98ZM39.3394 60.9583C41.5466 63.3603 43.2345 65.6324 45.3118 67.3203C59.9832 79.0054 73.2264 92.1187 85.8203 106.076C90.5593 111.334 95.8826 116.203 101.401 120.682C108.866 126.72 116.916 127.694 125.745 122.76C148.336 110.036 170.083 96.2085 188.844 78.2264C191.441 75.6946 193.648 72.7084 195.726 69.6573C197.478 67.0606 197.543 64.2042 195.076 61.6724C185.534 52.1296 176.38 42.1323 166.448 33.0438C159.112 26.3573 150.998 20.5797 142.818 14.9318C133.015 8.18041 122.888 7.92074 113.021 15.1915C107.113 19.541 101.336 24.215 95.1035 28.0452C81.4709 36.3546 67.5785 44.2745 53.7511 52.3243C49.2069 55.0508 44.5977 57.8423 39.3394 60.9583ZM119.642 135.678C118.019 148.467 116.656 161.126 114.838 173.72C113.021 186.379 110.684 198.973 108.606 211.697C109.58 211.762 109.84 211.892 110.035 211.762C111.982 210.593 113.995 209.554 115.877 208.256C135.028 194.883 155.152 183.133 175.406 171.383C190.532 162.619 205.139 152.946 219.81 143.339C223.51 140.872 226.691 137.431 229.677 134.055C232.144 131.264 232.469 127.953 230.457 124.448C221.368 108.738 212.345 93.0276 203.256 77.2526C202.931 76.7333 202.477 76.214 202.088 75.6946C191.376 93.482 142.299 129.057 119.642 135.678ZM111.398 134.964C99.7776 130.485 91.8577 122.24 83.9377 113.931C75.1739 104.778 66.3451 95.7541 57.3865 86.8604C50.2456 79.7195 41.222 74.6559 35.4444 65.8272C33.0424 68.7484 30.7703 71.475 28.5631 74.2664C23.6943 80.4336 18.6957 86.6008 13.9567 92.8978C7.85443 100.948 7.91935 106.855 14.0216 114.97C14.9304 116.203 15.9042 117.372 16.878 118.475C41.5466 145.741 66.2802 172.941 91.0137 200.141C93.8701 203.257 97.0511 206.114 100.362 209.36C104.127 184.237 107.762 159.763 111.398 134.964Z" fill="black"/>
<path d="M90.8206 58.4906C87.9642 60.1135 85.0429 61.6716 82.1865 63.2945C83.6796 66.4755 85.6272 66.865 88.159 64.9824C89.2626 64.1384 90.496 63.2296 91.7943 62.905C92.5733 62.7102 93.612 63.6191 95.2999 64.3981C92.3786 66.2158 90.3012 67.5141 88.159 68.8774C89.717 71.539 91.9242 71.9934 94.5858 70.76C96.5333 69.8512 98.4159 68.8125 100.234 67.644C102.051 66.4755 103.155 66.9299 104.453 69.4617C100.818 71.0846 97.3772 72.6426 93.8717 74.0708C93.3524 74.2656 92.3786 74.3305 91.9891 74.0059C87.7694 70.5653 83.6147 67.0597 79.5898 63.4243C79.2653 63.1647 79.9144 61.0873 80.6285 60.6329C82.8357 59.1398 85.2377 57.8414 87.7045 56.8028C88.5485 56.4782 89.8468 57.1923 90.8855 57.4519C90.8206 57.7116 90.8206 58.1011 90.8206 58.4906Z" fill="black"/>
<path d="M118.539 47.2596C116.072 48.7528 113.865 49.7265 112.177 51.3494C111.398 52.1285 111.722 54.0111 111.592 55.4393C113.021 55.5042 114.773 56.0235 115.812 55.4393C117.37 54.5304 118.409 52.7776 119.967 51.0249C121.59 51.2196 122.239 52.2583 121.525 54.2058C120.356 57.5166 116.656 59.4641 113.15 58.5553C109.775 57.6464 107.697 54.6602 108.282 51.6091C108.931 48.2983 112.501 45.442 115.812 45.8964C116.851 45.9613 117.825 46.8701 118.539 47.2596Z" fill="black"/>
<path d="M107.115 60.6977C105.492 60.9574 103.934 61.1522 102.311 61.5417C99.9736 62.1259 97.9611 61.4768 97.312 59.2046C96.533 56.4781 98.6752 55.0499 100.818 54.2709C103.025 53.427 105.037 53.6867 105.881 56.2184C104.128 56.7378 102.505 57.2571 100.558 57.8414C103.479 58.3607 105.881 58.4905 108.023 59.3994C109.062 59.8538 110.231 61.9312 109.971 62.9699C109.646 64.1384 108.023 65.3718 106.725 65.8262C105.556 66.2157 104.063 65.5016 102.7 65.3069C102.7 64.9823 102.765 64.5928 102.765 64.2682C104.323 63.5541 105.816 62.84 107.374 62.061C107.309 61.6066 107.179 61.1522 107.115 60.6977Z" fill="black"/>
</g>
<defs>
<clipPath id="clip0_2025_962">
<rect width="240" height="221.044" fill="white"/>
</clipPath>
</defs>
</svg>
